<svg width="591" height="395" viewBox="0 0 591 395" fill="none" xmlns="http://www.w3.org/2000/svg">
<path d="M376.139 0.367224C373.972 0.29472 371.804 2.22615 369.637 2.58363C367.16 2.99218 360.565 13.6248 359.739 15.6677C358.913 17.7105 353.092 25.4627 353.092 25.4627C353.092 25.4627 348.593 31.2335 345.29 36.5448C341.987 41.856 336.981 43.4799 336.981 43.4799C336.981 43.4799 333.699 45.0937 328.745 45.9108C323.791 46.728 314.688 49.9657 310.972 49.5573C307.257 49.1488 294.902 54.8991 289.948 57.3504C284.994 59.8016 278.822 65.1231 275.932 67.5746C273.042 70.0258 268.852 70.8634 268.852 70.8634C268.852 70.8634 259.377 74.5303 257.726 74.9387C256.075 75.3472 252.782 79.4021 253.608 81.445C254.434 83.4878 250.285 85.9494 250.285 85.9494C250.285 85.9494 243.71 89.5959 240.82 92.4558C240.116 93.153 239.799 94.0911 239.737 95.101L12.9523 40.6214C12.9523 40.6214 10.4443 28.3649 7.96733 29.1819C5.49035 29.999 0.959473 33.2164 0.959473 35.259C0.959473 37.3018 2.18767 46.3412 2.18767 46.3412C2.18767 46.3412 8.80343 49.1704 9.62924 47.1277C10.452 45.0921 239.128 99.7198 240.748 100.106C241.299 101.599 241.898 102.94 242.049 103.538L239.954 109.615C239.954 109.615 246.157 110.075 247.395 112.118C248.634 114.161 255.27 121.055 255.27 121.055L261.845 117.408L268.058 116.979C268.058 116.979 277.11 112.097 277.522 108.829C277.935 105.56 282.941 97.8183 282.941 97.8183L291.972 97.3893L292.405 107.613C292.405 107.613 289.123 110.473 287.059 110.473C284.995 110.473 283.344 112.496 281.279 115.764C279.215 119.033 280.051 120.667 280.051 127.204C280.051 133.741 279.184 132.954 276.294 134.997C273.404 137.04 276.728 141.932 276.728 141.932C276.728 141.932 273.435 152.534 272.61 155.802C271.784 159.071 276.759 171.767 278.823 175.035C280.887 178.303 288.288 197.485 288.288 197.485L285.831 208.138C285.831 208.138 278.813 208.955 277.161 208.138C275.51 207.321 270.948 214.644 270.948 214.644L156.148 146.007L153.692 150.082L267.625 223.652L330.407 264.905C330.407 264.905 318.393 273.883 317.98 271.841C317.568 269.798 313.45 263.649 310.973 262.832C308.496 262.015 302.726 273.863 301.075 274.271C299.424 274.68 290.743 279.991 290.743 279.991L166.913 238.308L168.141 247.745L341.1 308.59L455.104 354.348C455.104 354.348 490.608 376.461 498.453 382.59C506.296 388.718 525.689 380.088 525.689 380.088C525.689 380.088 569.854 394.438 576.045 394.03C582.238 393.621 590.494 383.377 590.494 383.377L582.258 381.303C582.258 381.303 563.226 378.096 558.272 379.73C553.318 381.365 523.159 366.646 523.159 366.646L450.912 336.402L370.862 278.775L377.437 271.84L400.194 244.028L426.564 217.932C429.454 215.072 429.506 215.46 431.983 211.783C434.46 208.106 430.734 205.634 430.321 202.775C429.908 199.915 428.257 201.171 427.431 199.128C426.605 197.085 425.326 194.215 423.674 191.764C422.023 189.313 419.969 188.924 416.666 186.473C413.364 184.022 408.389 184.022 404.673 183.613C400.958 183.205 398.894 181.54 398.894 181.54C398.894 181.54 400.999 179.517 402.651 176.249C404.302 172.981 408.389 172.174 410.453 172.174C412.517 172.174 415.046 164.37 415.872 162.736C416.698 161.102 417.121 155.842 417.534 153.799C417.946 151.756 415.407 149.295 413.343 146.435C411.279 143.575 409.266 144.392 407.202 143.575C405.138 142.758 399.317 141.093 394.776 141.501C390.235 141.91 384.868 139.091 380.326 139.5C375.785 139.908 370.831 137.396 368.767 138.213C366.703 139.03 363.803 132.544 367.105 129.276C370.408 126.007 368.818 126.365 371.296 123.913C373.772 121.462 379.109 114.517 380.76 112.474C382.411 110.431 382.019 112.515 384.083 110.472C386.148 108.429 393.135 108.419 396.438 108.827C399.741 109.236 403.084 108.01 405.974 108.827C408.864 109.644 412.157 109.226 415.872 110.043C419.588 110.86 424.129 112.903 430.322 115.763C436.514 118.622 441.458 117.826 445.999 119.051C450.54 120.277 453.038 120.645 460.882 121.053C468.726 121.462 470.367 122.698 473.67 122.698C476.972 122.698 485.229 125.558 485.229 125.558L494.26 125.2C494.26 125.2 498.252 124.935 502.424 124.7C500.329 134.95 466.228 301.656 466.228 301.656C466.228 301.656 454.669 300.021 454.669 301.656C454.669 303.29 455.474 309.03 457.125 310.664C458.777 312.298 463.339 313.524 463.339 313.524L461.677 331.899L465 332.685L466.662 313.524L472.442 310.235C472.442 310.235 473.639 304.148 471.575 302.514C469.587 300.94 504.397 136.97 507.049 124.487C508.117 124.439 509.913 124.344 510.372 124.344C512.849 124.344 514.118 123.118 515.357 121.484C516.595 119.85 519.888 117.021 519.475 114.978C519.062 112.935 522.365 112.118 522.365 112.118C522.365 112.118 526.927 111.27 525.688 107.185C524.45 103.099 525.224 106.408 526.049 102.323C526.875 98.2374 524.429 99.0341 522.365 96.1742C520.3 93.3143 518.226 94.54 514.923 93.3143C511.62 92.0887 509.123 92.8649 505.82 92.4563C502.517 92.0478 502.517 93.7228 497.15 93.3143C491.783 92.9058 490.576 96.6032 490.576 96.6032C490.576 96.6032 477.396 95.3673 472.442 94.9587C467.488 94.5502 462.11 90.8732 459.22 89.239C456.33 87.6048 450.52 88.4219 448.456 86.3791C446.391 84.3363 442.294 82.2936 441.881 80.6593C441.468 79.0251 419.546 70.0267 417.895 67.5753C416.244 65.124 413.797 65.512 411.32 64.2864C408.843 63.0608 397.707 61.4061 395.643 60.9975C393.579 60.589 392.732 61.8555 392.319 58.9956C391.907 56.1357 393.176 55.2778 394.415 52.4179C395.653 49.558 397.284 48.3427 399.761 45.4828C402.238 42.6229 401.02 40.2227 403.084 36.5458C405.148 32.8689 403.466 31.9905 403.879 26.6792C404.292 21.368 403.043 22.604 402.217 16.8842C401.392 11.1644 398.502 12.7884 396.438 9.51988C394.373 6.25137 391.494 5.84298 386.54 3.80011C381.586 1.75736 379.552 1.39987 377.075 0.582859C376.766 0.480818 376.446 0.378777 376.136 0.368482V0.368413L376.139 0.367224ZM344.857 222.436L360.968 223.651L368.41 229.371L352.298 239.595L344.857 222.436ZM405.979 317.169L424.546 330.253L403.45 322.102L405.979 317.169V317.169ZM496.361 366.217C498.012 366.217 513.7 374.01 513.7 374.01L510.377 377.657L496.361 366.217Z" fill="#C69C6E"/>
</svg>
