<svg width="397" height="177" viewBox="0 0 397 177" fill="none" xmlns="http://www.w3.org/2000/svg">
<g clip-path="url(#clip0_377_18)">
<path fill-rule="evenodd" clip-rule="evenodd" d="M127.077 153.887C127.077 165.5 117.716 174.913 106.17 174.913C94.6239 174.913 85.2635 165.499 85.2635 153.887C85.2635 142.275 94.6239 132.861 106.17 132.861C117.716 132.861 127.077 142.275 127.077 153.887Z" fill="#C69C6E" stroke="#C69C6E" stroke-width="3.97323"/>
<path fill-rule="evenodd" clip-rule="evenodd" d="M200.752 14.9899C198.218 24.5879 189.446 27.9114 181.871 32.4397C182.147 41.5802 181.379 50.1551 181.871 58.1003C195.211 57.9365 202.812 58.0772 217.082 58.1003C218.75 60.0155 218.903 63.4534 220.144 65.7978C227.44 68.4728 237.769 67.2964 241.067 61.6924C264.216 61.7386 294.156 66.355 298.04 66.939C301.925 67.5229 306.97 68.3962 309.448 67.8505C311.926 67.3048 316.13 61.2317 318.634 58.0992C321.811 54.1219 325.22 50.4594 326.798 47.3216C329.653 38.2325 333.012 31.4782 339.399 25.3797C345.786 19.2813 363.31 11.3903 376.807 19.6073C378.481 36.7927 375.691 53.5373 375.276 69.39C381.851 70.8172 390.766 69.8937 396.199 72.47C393.098 77.3918 384.976 77.2649 377.829 78.1149C376.749 79.8601 380.612 81.7291 378.849 84.274C371.626 86.7443 363.476 88.2733 355.375 89.9188C347.328 91.5549 338.993 92.3577 331.391 94.5373C332.064 98.161 334.668 99.1312 339.046 100.182C343.423 101.233 347.784 98.3215 348.742 103.262C349.7 108.203 341.652 107.019 338.536 105.828C335.096 104.513 334.211 104.423 331.006 101.736C327.8 99.0499 327.13 97.2837 326.288 95.5637C278.454 106.008 238.166 114.773 189.015 123.278C190.685 126.903 195.448 127.414 195.139 133.029C174.548 134.998 158.911 132.017 139.515 133.029C135.185 133.969 121.716 135.877 124.288 139.675C126.953 143.609 121.754 138.514 113.397 135.373C107.141 133.022 93.9282 132.632 91.5457 131.489C89.1632 130.345 87.5307 129.452 87.3116 127.037C87.0413 124.051 89.7373 123.305 91.5457 121.225C68.4682 115.683 30.0559 101.748 27.5085 99.1806C24.9611 96.6134 25.1078 98.0436 22.7688 93.2363C20.4297 88.4289 21.1392 79.7379 22.1578 76.6027C23.1765 73.4674 23.2055 73.7095 26.2274 69.3889C29.2493 65.0684 37.258 58.6701 45.6183 57.585C51.6944 56.7969 60.8123 57.5294 69.0922 57.0718C79.1691 56.5156 91.4653 57.3111 101.242 57.585C101.884 50.6787 100.682 37.2157 101.242 28.8454C96.3144 23.6802 89.2766 15.2533 95.1175 6.77707C100.958 -1.69913 116.185 1.02098 130.328 3.18489C142.274 5.01194 154.7 4.81255 167.581 6.77707C175.738 8.02169 184.497 8.86018 191.566 10.3693C195.095 11.1248 198.951 12.0578 200.752 14.9899L200.752 14.9899ZM188.505 12.9372C182.676 11.9171 173.363 10.7943 167.583 9.85818C158.335 8.36065 148.327 7.39832 138.514 6.53674C126.959 5.523 113.8 2.85221 104.305 5.75177C102.274 6.37198 99.2329 8.15076 98.6914 10.8845C107.077 6.8054 120.82 7.75198 131.861 8.31867C138.518 8.65973 146.068 9.15821 153.464 10.1142C163.218 11.3756 172.566 12.3296 181.872 13.4504C185.299 13.8628 188.923 14.7149 191.103 15.3519C193.052 15.9218 195.841 18.8727 197.181 16.5294C195.341 13.8565 191.509 13.463 188.505 12.9372ZM344.659 25.0257C337.042 29.693 331.385 39.3768 329.859 47.8369C328.406 55.8934 330.302 63.7755 326.797 71.4447C322.973 72.1552 317.443 70.7521 313.019 70.4174C310.346 69.9546 311.099 72.9339 308.426 72.4711C308.528 71.0019 308.49 69.6702 306.896 69.9052C284.759 67.8515 266.282 65.9573 243.617 64.2604C235.63 72.3168 221.079 71.0397 213.509 66.3131C211.156 64.8439 209.167 61.3661 206.875 60.6682C198.963 58.2556 189.612 62.5057 181.871 60.6682C181.548 64.2845 182.088 70.9001 181.871 76.0643C221.592 76.6142 247.161 77.319 284.436 77.7608C287.454 77.7965 295.359 77.7078 298.028 77.3683C300.697 77.0288 300.905 76.6058 306.378 75.5511C311.852 74.4965 321.235 74.0211 328.328 71.959C329.293 72.1867 331.404 71.2611 330.88 72.9853C341.298 65.2321 357.71 69.3648 372.214 69.3931C373.176 54.0705 375.27 38.7614 373.746 21.6642C363.913 17.8497 353.413 19.8973 344.659 25.0257ZM153.804 34.4924C153.842 40.2684 153.996 45.61 153.804 50.9148C153.726 53.0756 151.627 57.521 155.335 58.1003C158.479 57.6448 156.266 54.2058 156.356 51.9412C156.443 49.7363 156.831 47.244 156.866 44.7558C156.97 37.4717 158.235 26.3845 154.825 24.2269C152.671 28.2021 153.78 30.9296 153.804 34.4924ZM104.304 26.7938C104.72 34.4599 103.016 46.2386 104.304 55.0212C104.43 55.8828 104.334 57.7214 105.835 58.1003C109.251 57.8557 107.86 52.7503 107.876 49.8885C107.915 42.6947 107.952 35.2112 106.856 31.4123C106.815 29.4898 109.055 29.8613 108.386 27.307C106.99 26.1778 105.868 25.4023 104.304 26.7938ZM151.253 32.9529C152.001 32.1396 152.306 28.878 150.232 29.3607C149.524 30.8918 149.63 32.5016 151.253 32.9529ZM110.939 38.0856C110.775 36.2092 112.312 36.0455 113.49 35.5198C113.314 33.5552 113.598 31.4207 109.918 31.9276C109.717 34.271 109.363 36.4758 110.939 38.0856ZM150.232 41.1646C150.694 46.0927 149.038 53.3065 151.253 58.1013C151.385 53.7304 151.298 49.9042 151.253 47.3237C151.166 42.2875 152.718 37.3069 150.743 33.4671C149.586 35.9228 149.97 38.3669 150.232 41.1646ZM159.417 41.6778C159.547 47.7708 158.429 53.2792 159.417 58.1003C164.675 57.4874 172.164 57.4758 178.808 58.1003C179.98 51.2381 178.993 42.2046 179.318 34.4924C173.24 37.4455 166.243 39.4751 159.417 41.6778ZM124.206 48.8632C127.979 46.4978 131.478 43.8596 134.923 41.1646C125.677 40.3188 122.14 38.2682 112.98 38.5988C117.083 41.6568 119.755 46.1546 124.206 48.8632ZM147.68 40.6515C147.841 39.9567 148.407 39.6713 148.191 38.5977H146.66C146.517 39.7678 146.783 40.5276 147.68 40.6515ZM142.066 41.1646C137.596 45.2228 132.654 48.8065 128.288 52.9686C130.034 55.6614 131.143 58.9933 136.454 58.1013C139.071 52.3505 142.573 47.4906 144.619 41.1646H142.066ZM139.516 57.5871C140.946 58.0121 145.648 58.6365 148.191 57.5871C147.413 51.7659 149.488 45.7894 147.17 41.1646C145.115 47.139 141.812 51.8562 139.516 57.5871ZM125.737 51.4291C130.447 49.1497 135.84 44.8271 137.984 41.6778C133.911 44.9373 129.108 47.4633 125.737 51.4291ZM109.918 49.8896C112.443 49.9315 112.118 42.2246 109.918 42.191C109.139 43.9351 110.185 46.2239 109.918 49.8896ZM121.655 50.9159C121.552 48.9472 119.194 46.5755 118.083 47.3237C119.862 47.9282 119.378 50.8099 121.655 50.9159ZM114 57.0739C115.121 56.1473 116.521 55.5029 117.063 53.9939C115.365 52.6212 115.909 48.9965 113.491 48.349C113.436 50.7774 112.628 55.7286 114 57.0739ZM119.104 52.4554C118.836 51.322 117.394 48.7478 116.553 49.8896C118.208 49.9336 116.91 52.9497 119.104 52.4554ZM110.939 58.1013C111.665 56.3015 112.243 50.7868 109.918 50.4027C110.36 52.8668 108.898 57.245 110.939 58.1013ZM122.676 54.5081C124.021 54.6623 124.35 53.7976 124.206 52.4554H122.676V54.5081ZM313.53 67.8526C316.796 69.0153 321.166 69.0688 325.267 69.3921C326.493 64.9803 325.12 57.9533 326.288 53.4828C326.176 53.083 325.861 52.8857 325.267 52.9696C321.32 57.8946 317.946 63.3967 313.53 67.8526ZM120.124 54.5081C119.713 57.6154 122.463 54.8502 120.124 54.5081V54.5081ZM124.717 56.5607C125.065 58.0919 126.748 58.2818 128.8 58.1003C128.702 55.9752 127.276 55.185 125.737 54.5081C125.731 55.5281 124.345 55.1608 124.717 56.5607ZM116.041 58.1013H119.103C119.322 55.6173 116.129 56.6164 116.041 58.1013ZM61.4384 63.7462C59.2878 64.0274 61.6857 59.7342 59.3973 60.154C56.4349 59.2273 59.1385 64.0001 56.3347 63.234C54.4857 63.212 56.2158 59.5904 53.7834 60.154C51.7758 59.8455 53.9139 63.7063 51.7424 63.234C49.8548 63.5919 49.4875 62.4218 49.7014 60.6682C46.788 60.304 48.6412 64.7347 45.6183 64.2604C43.6273 63.5783 45.515 61.9674 44.5978 60.6682C42.0632 60.8571 40.2381 61.7586 38.4736 62.7209C38.7595 66.3687 37.8674 71.1992 38.9839 74.0116C62.6269 74.21 77.0425 74.5647 101.752 74.5248C101.504 69.8129 102.305 64.0463 101.242 60.155C95.7342 60.6336 94.6636 60.1802 88.4841 60.155C86.6268 60.5118 87.6149 63.7283 84.9123 63.2351C83.4483 62.8248 84.5909 59.794 82.361 60.155C80.7437 60.5811 82.0751 63.9728 79.2995 63.2351C78.1214 62.7093 79.3141 59.7993 77.2574 60.155C74.9639 59.73 76.6929 63.3505 74.7061 63.2351C72.664 63.5772 72.6547 61.8771 72.664 60.155H69.0922C69.3343 62.1091 68.8752 63.3589 67.5615 63.7472C65.3201 63.6066 66.8895 59.6335 64.4989 59.6419C62.7709 60.2957 63.9834 63.9099 61.4384 63.7462ZM153.804 60.154C153.451 75.5973 153.226 90.6576 153.294 111.476C153.306 115.122 154.168 119.136 152.274 122.254C150.025 119.34 151.142 114.943 151.253 110.963C151.772 92.5634 151.915 79.4498 151.763 67.3394C151.734 64.9708 152.214 61.8635 150.233 60.6682C150.184 73.5667 150.322 90.093 150.233 102.239C150.201 106.594 151.281 111.54 148.702 114.556C147.359 113.854 148.462 110.692 146.151 110.964C135.788 110.539 126.915 111.093 115.532 113.018C113.692 113.563 114.19 116.459 112.47 117.123C110.635 108.557 111.449 98.0225 111.449 87.8703C111.449 82.4721 111.498 77.3446 111.449 72.4742C111.405 68.202 112.176 63.6223 110.428 60.1571C109.54 81.6368 110.086 96.6698 109.918 111.992C109.897 113.902 112.118 117.628 108.898 118.664C107.293 114.841 108.385 111.043 108.387 106.347C108.392 97.6195 108.17 81.4877 107.877 67.3425C107.834 65.292 109.335 60.5255 105.836 60.1571C104.382 62.6925 104.434 66.4684 104.305 69.3952C103.601 85.5081 105.292 101.284 104.816 115.585C104.75 117.569 106.031 121.281 103.285 122.256C101.629 121.505 103.66 119.44 101.754 119.69C98.1018 121.202 92.2104 123.021 92.058 126.362C96.4385 127.73 100.993 126.559 105.326 126.362C133.064 125.094 164.34 125.883 190.546 130.468C189.573 126.485 185.833 125.285 182.381 123.796C181.439 122.338 180.838 127.262 179.319 125.336C178.531 124.59 178.87 122.708 178.809 121.231C171.914 119.099 166.324 115.653 158.907 114.045C158.412 117.603 159.612 119.809 157.887 122.256C155.202 119.875 156.356 115.61 156.356 112.505C156.356 91.663 157.095 75.952 156.356 60.6692C156.248 60.0931 155.79 59.8706 155.335 59.6429C155.25 60.239 154.529 60.1981 153.804 60.154ZM113.49 60.6671C113.664 65.4536 113.043 71.0376 114 75.0369H127.779C125.959 69.3396 122.717 65.0726 120.124 60.1529C117.95 60.3618 114.866 59.6566 113.49 60.6671ZM129.82 71.9579C131.854 67.8337 126.694 63.5121 124.207 60.6671C124.095 60.2673 123.78 60.07 123.187 60.154C124.729 64.7599 126.796 68.8401 129.82 71.9579ZM127.778 60.6671C129.047 62.9843 129.909 65.7086 132.371 66.8262C133.001 64.5815 135.552 62.0094 134.922 60.154C132.593 60.3765 129.304 59.6345 127.778 60.6671ZM137.984 60.6671C135.953 63.0724 134.813 66.3739 133.901 69.9052C135.079 71.7994 135.887 74.0673 137.984 75.038C139.186 75.6204 145.663 74.1984 146.15 77.0906C144.671 78.3405 140.148 76.5282 139.516 78.6302H146.661C148.145 73.2938 148.835 67.0088 147.681 60.154C144.548 60.4247 140.293 59.5663 137.984 60.6671ZM159.417 75.5501C166.723 75.5616 170.565 76.2028 179.319 76.0633V60.6671C173.636 60.1152 165.311 61.0303 159.417 60.154C158.733 64.3905 159.524 72.1699 159.417 75.5501ZM34.3926 64.7725C27.4514 69.9546 23.1113 86.4183 25.6752 91.4604C28.2391 96.5026 31.6326 98.3415 36.4336 100.184C36.5693 91.2757 35.9234 83.4376 35.9234 73.4974C35.9234 70.2264 36.7801 66.3068 34.9018 64.7725H34.3926ZM130.841 75.0369C131.521 75.7694 133.732 75.7694 134.413 75.0369C134.187 73.552 133.337 72.6978 131.861 72.4711C131.642 73.4481 130.761 73.7598 130.841 75.0369ZM336.494 73.4974C334.876 76.0273 340.565 75.2864 344.869 76.0153C349.173 76.7441 355.632 76.801 362.519 77.0896C364.531 77.2313 364.08 74.8952 366.092 75.0369C366.668 75.9971 366.695 77.5094 368.643 77.0896C376.418 75.9331 383.054 76.801 390.075 73.4974C370.29 73.5121 338.111 70.9675 336.494 73.4974ZM38.9849 76.0633C38.5874 76.1766 38.3912 76.4925 38.4747 77.0896C38.4736 77.6049 38.8879 77.7004 38.9849 78.1159C56.2617 78.7918 77.7092 76.864 94.098 77.6028C96.9018 77.7297 100.378 79.3564 101.753 77.6028C81.6348 76.0265 56.9546 77.119 38.9849 76.0633ZM114 78.1159C116.595 78.86 119.187 78.881 121.145 77.6028C119.06 77.6783 115.042 75.8723 114 78.1159ZM122.165 78.1159C123.188 78.9933 126.303 78.8631 126.758 77.6028C125.363 77.0245 123.483 77.2869 122.165 78.1159ZM132.882 78.6302C134.041 78.2566 136.863 79.5547 136.454 77.6028H132.882V78.6302ZM165.031 78.1159C163.314 78.4413 160.292 77.4548 159.418 78.6291C161.322 79.2273 164.211 79.4613 165.031 78.1159ZM167.072 79.1423C170.819 78.8044 175.911 79.8202 178.809 78.6291C175.346 79.3291 170.038 76.9175 167.072 79.1423ZM192.587 79.1423C191.571 79.4812 182.169 77.1568 181.871 79.1423C186.517 78.8537 191.241 79.5914 192.587 79.1423ZM196.16 78.6302C195.418 78.9104 193.522 78.0299 193.609 79.1433C194.35 78.8621 196.246 79.7425 196.16 78.6302ZM199.222 78.6302C195.952 78.0372 198.101 80.197 199.222 78.6302V78.6302ZM38.4747 101.212C55.2318 109.678 75.8018 114.309 96.139 119.174C98.3251 117.78 101.28 117.16 103.284 115.581C102.442 103.863 102.449 92.8079 101.753 80.1697C90.7297 80.3533 76.1159 80.0416 63.4794 80.1697C63.1862 81.0722 64.0961 83.1857 62.9691 83.2497C60.8342 84.0326 59.1125 83.4491 57.3553 83.2497C57.35 81.8865 57.5483 80.3187 56.845 79.6575C54.3428 80.5684 55.9267 82.9601 53.2732 83.7629C51.9448 84.1648 51.6026 83.0147 50.2106 83.7629C48.7038 83.3966 50.076 80.135 48.1696 80.1707C46.9164 81.133 48.8624 82.8016 47.149 83.7629C45.5525 83.8678 43.403 83.4166 42.5567 84.2761C41.0426 83.404 42.5139 79.5285 40.0054 79.6575H38.9849C37.8173 85.8376 38.7981 94.1805 38.4747 101.212ZM114.51 101.724C118.333 94.9613 121.596 87.6363 125.227 80.6818C120.636 79.6722 118.153 81.089 114 80.1686C113.184 88.4654 113.204 96.1052 114.51 101.724ZM142.066 100.184C140.73 97.0979 138.45 94.1081 136.454 90.433C134.351 86.5628 133.048 81.0659 129.309 80.1686C129.223 80.7668 128.502 80.7259 127.778 80.6818C125.362 85.931 123.147 90.7216 120.634 95.5647C118.248 100.161 114.133 104.546 113.999 110.961C122.024 109.742 131.26 107.178 140.024 108.395C141.316 106.272 141.456 102.992 142.066 100.184ZM143.088 96.0789C146.4 89.3238 141.578 85.5574 139.005 80.6828H134.413C137.017 86.1042 139.511 91.6367 143.088 96.0789ZM145.639 85.8145C145.281 83.573 146.507 82.9234 146.15 80.6818H141.557C142.275 83.0388 142.922 85.4682 145.639 85.8145ZM158.907 111.475C166.264 113.143 171.996 116.444 178.809 118.66C178.934 104.192 178.843 93.3169 179.319 81.7092C173.558 81.3765 167.115 81.09 158.907 81.196C159.064 91.7942 158.801 102.139 158.907 111.475ZM182.565 81.149C182.49 81.7555 180.962 82.3588 181.871 82.7345C181.756 93.2077 181.889 111.616 181.361 120.2C187.461 123.257 193.796 119.594 199.731 118.146C206.047 116.606 213.121 115.877 219.633 114.554C258.065 106.743 297.743 98.8694 337.003 90.9462C338.75 88.6868 341.807 85.2825 341.595 82.7345C332.887 84.318 293.173 80.5919 282.252 82.5775C237.351 82.5949 244.269 80.0894 182.565 81.149ZM358.948 86.3277C363.437 86.0223 368.997 84.6249 371.628 83.8767C374.258 83.1284 375.237 83.6443 375.789 81.7092C370.7 82.3944 359.725 79.7992 358.948 86.3277ZM349.762 82.7355C348.281 83.3746 343.991 88.6816 343.638 89.9209C347.02 89.2168 349.883 87.991 353.844 87.8682C354.413 86.3875 354.763 84.6864 354.865 82.7355C353.128 81.8918 351.088 82.1625 349.762 82.7355ZM148.191 89.9199C147.87 88.3604 148.844 85.4997 147.68 84.7871C147.489 86.2847 145.479 90.0657 148.191 89.9199ZM147.68 104.804C147.686 100.232 149.645 95.5196 146.15 92.4868C144.453 96.525 143.89 102.766 147.68 104.804ZM143.088 108.396C144.201 108.669 146.389 109.639 146.66 107.883C145.035 107.293 145.817 104.282 143.597 104.291C143.959 106.193 142.726 106.492 143.088 108.396ZM98.6903 128.925C100.484 131.537 104.16 130.307 106.856 130.464C126.684 131.621 150.282 129.398 171.665 129.951C148.734 127.162 123.481 127.687 98.6903 128.925Z" fill="#C69C6E"/>
<path fill-rule="evenodd" clip-rule="evenodd" d="M121.471 154.008C121.471 162.441 114.673 169.277 106.288 169.277C97.9025 169.277 91.1046 162.441 91.1046 154.008C91.1046 145.574 97.9025 138.738 106.288 138.738C114.673 138.738 121.471 145.574 121.471 154.008Z" fill="#C69C6E" stroke="#C69C6E" stroke-width="2.88549"/>
<path d="M41.2566 85.6135C41.2566 85.6135 41.2072 83.9563 40.7368 83.3608C40.2663 82.7654 39.7213 82.7031 39.7213 82.7031C37.2927 85.5233 40.1655 100.859 40.1655 100.859C40.1655 100.859 68.0648 109.159 71.046 110.203C74.0272 111.248 85.855 115.837 87.7312 116.046C89.6073 116.255 95.2437 116.948 95.2437 116.948L101.745 114.788L99.2168 84.7761C98.5588 83.3926 99.5309 82.64 99.445 81.9682C87.3543 81.9084 65.6052 81.6454 64.688 82.3943C64.688 82.3943 64.9382 83.9769 64.0019 85.3774C63.0656 86.778 49.4246 85.7557 49.4246 85.7557L41.2566 85.6135ZM115.619 82.0614C114.848 85.6734 114.853 89.7535 114.543 93.5705L114.999 99.3095C114.999 99.3095 116.532 96.5939 118.162 93.7556C120.877 88.2583 122.459 84.9734 123.836 82.1238L117.086 82.0621H115.619V82.0614ZM131.303 82.2157C128.235 87.167 123.12 95.8551 118.912 103.105C118.878 103.166 118.847 103.198 118.814 103.259C117.77 105.163 117.018 106.657 116.858 107.239C116.195 109.641 118.097 109.121 118.097 109.121C118.097 109.121 126.705 107.443 131.01 107.548C135.315 107.652 138.836 107.98 138.836 107.98C138.836 107.98 142.267 104.721 141.053 101.901C139.839 99.081 133.548 87.3876 132.444 86.1346C131.631 84.7494 132.166 84.6952 131.303 82.2161V82.2157ZM161.173 82.4934L160.86 109.47C163.592 111.097 176.72 117.01 177.556 113.62C177.665 103.303 177.705 90.6751 177.542 82.5557L161.172 82.494L161.173 82.4934ZM184.194 82.586L184.417 119.582L225.255 110.519C225.255 110.519 291.82 98.531 295.354 97.9045C298.887 97.278 336.009 89.656 336.009 89.656L339.883 83.9312C339.883 83.9312 341.028 84.2623 313.083 83.9863C299.875 83.8558 283.53 84.0048 282.68 84.0048C280.546 84.0048 214.369 83.5797 184.029 83.4742L184.194 82.586Z" fill="#C69C6E"/>
<path fill-rule="evenodd" clip-rule="evenodd" d="M17.5124 1.56128C14.9744 8.35046 13.1984 23.7725 13.1984 41.702C13.1984 59.6315 14.9744 75.0204 17.5124 81.8102C20.0483 75.0153 21.8161 59.6221 21.8161 41.702C21.8161 23.7819 20.0483 8.35634 17.5124 1.56128Z" fill="#AE8A62"/>
<path fill-rule="evenodd" clip-rule="evenodd" d="M23.2951 74.5803V89.244H22.7274C12.6565 89.244 4.01265 86.2352 0.199778 81.9122C4.0164 77.5929 12.662 74.5803 22.7274 74.5803H23.2951Z" fill="#AE8A62"/>
<path fill-rule="evenodd" clip-rule="evenodd" d="M17.5124 79.8064C14.9744 86.5956 13.1984 102.018 13.1984 119.947C13.1984 137.877 14.9744 153.265 17.5124 160.055C20.0483 153.26 21.8161 137.867 21.8161 119.947C21.8161 102.027 20.0483 86.6015 17.5124 79.8064Z" fill="#AE8A62"/>
</g>
<defs>
<clipPath id="clip0_377_18">
<rect width="396" height="176" fill="white" transform="translate(0.198975 0.982666)"/>
</clipPath>
</defs>
</svg>
