<svg width="441" height="447" viewBox="0 0 441 447" fill="none" xmlns="http://www.w3.org/2000/svg">
<path d="M195.057 87.5707L190.962 79.9707C190.391 132.528 189.896 204.001 190.525 218.673L198.572 185.357L195.057 87.5707Z" fill="#C69C6E"/>
<path d="M191.812 9.84424C191.63 29.8847 191.284 31.8657 190.962 61.4387L195.057 63.1772L191.812 9.84424Z" fill="#C69C6E"/>
<path d="M61.9938 397.401C32.3708 397.322 20.627 403.272 47.0147 405.097C73.4023 406.922 202.972 408.534 173.43 413.411C107.162 420.85 214.42 418.105 236.165 418.583C272.217 418.155 284.532 420.012 320.244 418.419C330.287 417.992 304.611 414.948 291.947 414.526C258.316 399.803 354.873 391.165 361.68 389.915C357.494 387.03 275.519 388.336 230.716 388.302C185.913 388.266 126.466 388.369 72.7851 388.302C22.671 388.101 128.018 395.989 61.9938 397.401V397.401ZM117.031 400.056C129.973 400.056 140.465 400.748 140.468 401.601C140.471 402.455 129.977 403.147 117.031 403.147C104.085 403.147 93.5918 402.455 93.595 401.601C93.5984 400.748 104.09 400.056 117.031 400.056ZM264.59 407.865C268.419 407.865 271.524 409.034 271.524 409.432C271.524 409.83 268.419 410.153 264.59 410.153C260.76 410.153 248.026 409.83 248.025 409.432C248.026 409.034 260.76 407.865 264.59 407.865Z" fill="#C69C6E"/>
<path d="M224.491 424.256C239.975 424.234 246.113 425.781 232.32 426.255C218.528 426.729 150.802 427.148 166.244 428.415C200.882 430.347 144.819 429.634 133.452 429.758C114.608 429.647 84.6845 430.041 66.018 429.627C60.7684 429.517 97.6761 428.814 104.295 428.704C121.888 428.631 111.566 426.689 101.414 426.008C91.5963 425.065 72.4939 425.537 84.799 422.575C86.987 421.826 112.882 421.902 136.301 421.893C159.719 421.886 190.792 421.91 218.85 421.893C245.045 421.841 189.98 423.889 224.491 424.256ZM195.723 424.946C188.959 424.946 183.475 425.126 183.473 425.347C183.471 425.569 188.956 425.749 195.723 425.749C202.49 425.749 207.975 425.569 207.973 425.347C207.971 425.126 202.487 424.946 195.723 424.946ZM118.595 427.194C116.593 427.194 114.971 427.278 114.97 427.381C114.971 427.484 116.593 427.568 118.595 427.568C120.597 427.568 122.22 427.484 122.22 427.381C122.22 427.277 120.597 427.194 118.595 427.194Z" fill="#C69C6E"/>
<path d="M201.389 333.582V347.61L193.248 349.298V335.926L201.389 333.582Z" fill="#C69C6E"/>
<path d="M134.953 389.849C134.953 389.849 112.013 370.281 111.642 344.215C167.359 365.327 272.523 353.409 345.433 263.729C349.722 317.166 305.177 389.849 305.177 389.849H134.953Z" fill="#C69C6E"/>
<path d="M176.901 59.2124C243.502 115.875 179.861 303.292 109.055 375.815C133.756 345.259 365.195 265.759 371.839 313.642C374.232 224.105 280.278 85.9766 176.901 59.2124Z" fill="#C69C6E"/>
</svg>
