<svg width="432" height="302" viewBox="0 0 432 302" fill="none" xmlns="http://www.w3.org/2000/svg">
<path d="M95.6476 1.52112C92.3435 3.45233 89.1146 7.39526 88.4387 10.2921C88.0633 11.9015 88.4387 12.7061 90.0157 14.0741C91.9681 15.7639 92.1183 16.1663 91.7428 20.9943C91.5926 23.8107 91.1421 26.9489 90.8417 27.995C90.3911 29.5239 90.5413 29.9262 91.8179 30.3286C93.4699 30.7309 95.7227 34.9957 95.7227 37.6512C95.7227 39.6628 97.2996 40.3066 100.078 39.5019C102.781 38.6168 105.86 39.1801 107.062 40.7089C107.737 41.5941 107.512 42.4792 105.935 44.6519C104.809 46.1808 103.007 49.5604 101.955 52.1354C98.3509 60.504 94.371 66.3782 87.838 72.7351C83.9332 76.5171 80.4038 80.7819 79.0522 83.4373C76.499 88.2654 62.3066 102.911 59.0776 104.118C57.9512 104.52 56.6746 105.164 56.149 105.566C55.5482 106.129 54.572 105.807 53.2204 104.681C49.1654 101.221 47.0628 103.474 50.6672 107.417C52.3193 109.268 52.92 110.555 52.6196 111.601C52.3193 112.567 52.6947 114.015 53.6709 115.303C54.6471 116.59 54.8724 117.556 54.4219 117.878C53.9713 118.199 53.8211 118.602 53.9713 118.924C54.1215 119.246 54.9475 123.913 55.8486 129.304C57.5006 139.604 57.8761 149.823 56.7497 153.122C55.9988 155.134 55.9988 155.134 47.8888 154.732C34.2971 154.008 23.7842 158.031 14.0221 167.768C4.41032 177.343 0.205145 187.804 0.0549598 202.369C-0.0201326 217.094 4.10995 227.797 13.872 238.177C23.1834 248.075 33.5462 252.661 46.6873 252.661C55.7735 252.661 60.2791 251.615 67.9385 247.592C82.957 239.706 92.719 222.888 92.719 204.783C92.719 196.656 91.2922 190.54 87.3874 182.01C84.0834 174.849 78.076 167.446 71.6931 162.779C69.8158 161.411 68.4641 159.882 68.6143 159.238C68.7645 158.594 68.9147 157.709 69.0649 157.307C69.3652 155.858 70.9422 151.674 71.6931 150.306C72.1437 149.421 72.1437 148.777 71.618 148.455C71.0924 148.053 71.1675 147.57 71.6931 146.846C72.2188 146.202 72.3689 145.317 72.0686 144.834C71.8433 144.432 71.9935 144.03 72.3689 144.03C72.8195 144.03 73.195 143.144 73.195 142.018C73.195 140.891 73.4953 140.006 73.7957 140.006C76.0485 140.006 91.9681 158.916 91.9681 161.572C91.9681 162.135 92.2684 162.537 92.6439 162.537C93.1695 162.537 105.259 179.275 109.239 185.471C109.84 186.517 113.294 191.425 116.899 196.414C122.906 204.783 123.282 205.668 122.305 207.116C120.954 209.209 120.954 211.784 122.38 216.773C123.657 221.359 125.384 223.693 127.412 223.693C129.965 223.693 128.763 225.383 125.009 227.153C121.179 229.004 120.278 230.693 122.38 232.544C123.131 233.268 125.159 233.349 129.439 232.947C135.071 232.383 135.371 232.464 135.897 234.154C136.348 235.763 136.723 235.843 140.252 235.361C142.43 235.039 145.133 234.315 146.335 233.671C150.465 231.579 152.342 232.142 156.097 236.97C158.049 239.384 161.804 242.925 164.507 244.775C169.088 248.075 169.313 248.316 169.313 251.454C169.313 256.202 171.866 266.099 174.57 271.732C177.648 278.089 182.98 285.17 188.312 289.757C204.156 303.436 225.933 305.609 245.081 295.551C255.67 289.918 266.032 276.962 270.313 263.846C276.245 245.821 271.889 224.578 259.274 210.335C256.345 207.036 252.29 203.173 250.263 201.806C246.884 199.472 246.658 199.07 247.109 196.817C247.334 195.449 247.935 193.92 248.31 193.356C248.686 192.793 248.836 191.988 248.536 191.506C248.31 191.103 248.461 190.701 248.836 190.701C249.287 190.701 249.662 189.977 249.662 189.172C249.662 188.287 249.962 187.402 250.413 187.08C250.788 186.839 250.939 186.195 250.713 185.551C250.488 184.988 250.788 183.459 251.239 182.171C251.765 180.884 252.29 178.953 252.365 177.907C252.516 176.861 252.741 175.895 252.891 175.734C253.041 175.573 255.519 177.826 258.448 180.642C262.052 184.183 267.834 191.747 276.02 203.817C282.703 213.634 289.761 223.854 291.564 226.429C294.492 230.613 294.793 231.418 294.192 233.59C293.892 234.958 292.69 236.648 291.639 237.292C290.587 238.016 288.335 239.545 286.758 240.671C285.106 241.879 281.952 243.488 279.774 244.293C273.466 246.707 272.866 250.247 278.197 252.661C279.474 253.224 280.45 254.19 280.45 254.753C280.45 255.478 281.276 255.88 282.628 255.88C283.829 255.88 285.256 256.443 285.782 257.167C286.608 258.294 288.185 258.455 295.844 258.213L304.855 257.892L305.306 261.271C305.681 264.731 307.033 267.145 308.535 267.145C308.985 267.145 310.337 268.031 311.538 269.157C316.044 273.341 324.83 271.088 328.734 264.812C329.861 262.961 330.912 261.513 331.062 261.513C331.212 261.513 332.264 264.168 333.315 267.306C337.37 279.216 347.057 290.642 357.945 296.516C371.612 303.839 389.259 303.436 403.977 295.551C413.364 290.481 422.6 280.101 427.331 269.157C431.085 260.467 431.686 257.248 431.686 245.821C431.761 236.407 431.536 234.717 429.659 228.923C425.604 216.612 418.169 206.714 408.407 200.518C400.673 195.61 394.816 193.839 385.129 193.356C374.766 192.793 367.782 194.322 359.147 198.909C352.163 202.691 353.44 203.254 347.883 193.92C345.855 190.46 344.804 187.804 344.804 186.114C344.879 184.666 344.429 183.378 343.828 183.137C341.5 182.171 343.377 176.136 346.907 173.159C347.958 172.274 348.784 171.308 348.784 170.986C348.784 170.664 351.037 167.446 353.74 163.825C358.922 156.904 365.455 150.467 367.257 150.467C369.96 150.467 375.667 144.915 373.64 144.191C373.264 144.03 373.414 142.662 374.165 140.972C375.968 136.627 375.892 122.062 374.015 114.659C370.11 98.9677 363.052 89.7943 347.282 79.8968C343.377 77.4023 337.971 73.9422 335.267 72.1719C332.564 70.4016 329.635 68.3899 328.659 67.8266C326.106 66.2172 324.229 62.4353 323.703 57.8486C323.027 52.2158 319.648 48.2729 315.668 48.2729H312.74V44.4105C312.74 39.2605 310.712 34.9957 308.234 34.9957C306.657 34.9957 306.282 34.5934 306.132 32.4207C305.981 30.7309 305.306 29.4435 304.329 28.8802C300.199 26.4661 287.509 31.2942 282.102 37.2488C278.798 40.9503 277.446 44.8932 277.446 50.7674C277.446 53.1815 276.77 55.8369 275.494 58.3314C273.091 63.2399 273.842 64.2055 278.723 62.5157C282.027 61.3087 282.402 61.3087 283.304 62.5157C283.754 63.2399 284.205 65.2516 284.205 66.9415C284.205 69.5164 284.805 70.5625 288.56 74.6664L292.84 79.3335L290.813 83.6788C289.686 86.0928 288.109 91.1623 287.208 94.7833C286.232 98.9677 284.054 104.761 281.426 109.992C278.047 116.751 276.62 118.763 274.142 120.453C272.49 121.579 269.411 124.154 267.309 126.085C263.479 129.706 249.061 137.753 244.631 138.799C241.928 139.362 238.398 142.018 238.398 143.466C238.398 143.949 236.896 146.041 235.019 148.053C231.64 151.755 231.565 151.835 232.316 155.215C233.067 159.077 234.719 161.33 238.023 163.101C240.876 164.629 245.908 169.779 245.908 171.147C245.908 171.711 245.081 174.044 244.03 176.297C243.054 178.631 242.303 180.723 242.528 181.045C243.429 182.654 238.849 194.724 237.272 194.724C236.746 194.724 235.62 192.31 234.719 189.253C231.715 179.677 224.957 169.618 218.123 164.951C216.096 163.503 214.369 161.974 214.444 161.411C214.444 160.928 215.345 158.514 216.471 156.1C218.499 151.755 218.574 151.674 222.253 151.272C225.858 150.869 226.008 150.708 226.233 148.294C226.383 146.524 226.008 145.478 224.882 144.593C223.53 143.547 223.455 143.386 224.506 142.42C226.759 140.409 227.81 137.109 230.138 123.832C234.794 98.002 236.896 87.7826 238.173 84.9662C238.849 83.3569 239.224 81.9085 239.074 81.6671C238.849 81.5061 237.122 81.828 235.244 82.4717L231.79 83.5983L229.913 80.46C226.383 74.8273 216.922 72.1719 210.389 75.1492C207.385 76.4367 204.006 80.5405 203.405 83.5178C203.18 84.7248 202.729 86.2537 202.354 86.9779C201.828 88.024 202.129 88.4264 204.006 88.8287L206.334 89.3115L205.883 94.1396C205.358 99.2895 206.109 102.589 208.211 104.359C209.413 105.405 209.337 105.566 207.61 106.773C206.559 107.578 204.381 109.75 202.729 111.601C201.002 113.532 198.975 115.061 198.074 115.061C194.469 115.061 190.264 121.66 189.138 129.304C188.837 131.638 187.561 133.971 184.707 137.431C182.53 140.087 180.577 143.144 180.352 144.191C179.901 146.041 179.526 146.202 170.44 146.926C161.729 147.651 160.903 147.892 158.95 149.904C157.749 151.191 156.322 153.605 155.872 155.376C154.971 158.514 154.82 158.594 152.568 158.031C151.216 157.79 150.014 157.387 149.864 157.226C148.287 155.697 160.302 137.592 169.388 127.936C179 117.717 182.079 110.957 182.079 99.6114C182.079 94.6224 181.779 93.4958 177.949 85.61C175.246 79.8163 174.119 76.5976 174.495 75.7929C174.87 75.1492 176.597 73.8617 178.399 72.8961C182.379 70.8844 183.506 68.1485 183.506 60.2626C183.581 57.3658 183.956 54.6299 184.407 54.1471C184.932 53.5838 184.257 52.1354 181.929 49.3995C175.095 41.0308 169.388 35.3981 167.811 35.3981C166.985 35.3981 164.958 34.6739 163.306 33.7887C160.828 32.4207 158.875 32.1794 151.216 32.1794C143.331 32.1794 142.205 32.0184 143.031 30.9723C143.481 30.3286 143.707 29.4435 143.406 28.9606C142.58 27.5122 140.328 28.0755 137.174 30.57L134.095 32.9036L129.364 30.6505C126.736 29.4435 123.657 27.995 122.456 27.4317L120.278 26.4661L122.38 24.1326C124.258 22.0404 124.408 21.3967 124.108 17.4537C123.657 11.9819 120.128 6.26871 114.946 2.88907C111.868 0.796906 110.516 0.475037 104.884 0.233612C99.4773 -0.00778198 97.9004 0.233612 95.6476 1.52112ZM128.388 74.5054C134.32 82.4717 136.648 86.3342 137.024 88.5873C137.85 93.4958 136.723 94.22 120.128 99.37C113.069 101.543 107.062 103.876 105.259 105.244C100.979 108.302 97.9004 112.728 97.4498 116.349C97.1494 119.004 97.5249 120.131 99.7777 123.752C103.157 129.143 102.781 129.304 91.6677 128.017C76.7994 126.246 77.5503 126.488 78.076 123.591C78.902 119.085 79.2775 118.28 80.4038 118.28C81.0046 118.28 81.4551 117.717 81.4551 117.073C81.4551 116.429 81.1548 115.866 80.7793 115.866C80.3287 115.866 80.1035 114.337 80.1786 112.486C80.3287 109.509 80.1035 109.107 78.3012 108.543C76.499 108.061 76.0485 108.302 75.2225 110.072C74.4715 111.842 73.7957 112.245 71.7682 112.245C69.5905 112.245 69.0649 111.923 68.6143 110.153C68.1638 108.302 68.6143 107.417 71.9935 103.957C74.0961 101.784 80.2537 96.2317 85.5852 91.7255C90.9919 87.1389 98.0506 80.9429 101.355 77.9655C107.888 72.1719 118.776 63.5618 119.752 63.5618C120.053 63.5618 123.957 68.4703 128.388 74.5054ZM302.752 102.991C305.981 106.934 310.412 109.831 315.368 111.038C322.427 112.808 328.885 115.303 330.462 116.751C331.288 117.636 332.714 118.28 333.54 118.28C334.366 118.28 335.493 118.843 336.093 119.567C337.145 120.935 336.995 121.177 332.639 123.671C323.928 128.66 313.866 138.236 302.903 151.835C294.117 162.779 293.666 163.583 293.216 169.457L292.84 174.366L275.569 167.124C266.107 163.181 258.223 159.801 258.072 159.721C257.922 159.56 258.148 157.79 258.448 155.617C258.898 152.72 259.424 151.674 260.325 151.674C262.278 151.674 262.878 150.387 261.527 149.34C260.4 148.455 260.325 147.892 261.076 145.639C261.752 143.305 261.752 142.823 260.551 141.937C259.8 141.294 259.274 140.73 259.499 140.57C259.649 140.409 262.653 139.443 266.182 138.477C273.842 136.385 279.549 133.649 283.454 130.35C285.782 128.338 287.659 125.12 292.765 113.854C296.294 106.129 299.373 99.7723 299.674 99.7723C299.974 99.7723 301.401 101.221 302.752 102.991ZM70.8671 118.199C71.7682 118.843 71.7682 119.728 70.6418 124.074C68.6143 131.718 68.6143 131.718 65.0099 127.534L61.7809 123.752L64.6344 120.613C67.4879 117.475 68.9147 116.912 70.8671 118.199ZM58.7021 123.671C59.2278 124.878 59.5281 126.005 59.3029 126.166C58.627 126.89 56.6746 124.556 56.6746 123.028C56.6746 120.855 57.6508 121.177 58.7021 123.671ZM62.682 127.856C62.6069 128.902 60.4293 125.12 60.4293 123.993C60.4293 123.269 60.9549 123.752 61.5556 125.039C62.1564 126.246 62.682 127.534 62.682 127.856ZM140.252 125.522C140.553 125.844 140.478 127.775 139.952 129.867C138.976 134.052 139.201 133.971 130.791 132.845C126.135 132.201 125.384 131.799 123.131 128.982C121.705 127.292 120.578 125.522 120.503 125.12C120.503 124.154 139.276 124.476 140.252 125.522ZM64.5593 131.959C66.2114 133.891 67.7883 134.132 66.3615 132.201C65.4604 131.074 65.4604 130.913 66.4366 131.316C67.7132 131.799 67.563 136.948 66.2114 139.604C65.7608 140.489 65.3103 141.455 65.2352 141.777C65.1601 142.179 65.0099 142.662 64.9348 142.984C64.8597 143.386 64.7846 143.869 64.8597 144.191C65.0099 145.559 61.856 155.215 60.8798 156.019C59.1527 157.548 57.2754 156.18 57.7259 153.766C58.8523 147.57 58.9274 144.593 58.2516 138.397C57.801 134.615 57.2754 130.35 56.975 128.982L56.5244 126.327L59.8285 128.338C61.7058 129.465 63.8084 131.074 64.5593 131.959ZM94.5963 132.684C100.378 133.488 104.358 134.213 103.382 134.293C101.204 134.373 81.1548 131.959 80.7793 131.477C80.1786 130.913 83.9332 131.235 94.5963 132.684ZM99.3271 135.259L108.563 136.305L112.018 140.73C113.97 143.225 117.95 147.973 120.879 151.272C123.882 154.571 126.811 158.433 127.562 159.882C128.838 162.698 129.139 165.756 128.088 165.756C127.712 165.756 126.36 167.768 125.084 170.182C123.807 172.596 122.305 174.607 121.78 174.607C121.329 174.607 118.476 171.147 115.622 166.802C109.54 157.79 108.639 156.744 107.662 157.307C107.287 157.629 106.987 157.226 106.987 156.583C106.987 154.732 105.56 154.169 103.532 155.376C101.505 156.502 101.28 157.548 102.781 158.836C103.382 159.319 104.058 161.008 104.283 162.537L104.734 165.354L103.457 163.342C102.706 162.296 98.0506 155.617 93.0194 148.455C81.3049 131.799 81.9808 133.247 86.4112 133.81C88.4387 134.052 94.2208 134.695 99.3271 135.259ZM81.5302 142.984C84.5339 147.329 88.2885 152.64 89.9406 154.732C91.5926 156.824 92.7941 158.755 92.5688 158.916C92.4186 159.077 90.2409 156.502 87.838 153.122C85.3599 149.743 81.2299 144.995 78.6016 142.42C75.2225 139.121 74.021 137.512 74.3964 136.546C74.6217 135.822 75.1474 135.178 75.4477 135.178C75.7481 135.178 78.5265 138.719 81.5302 142.984ZM135.747 138.155C134.771 138.316 133.269 138.316 132.368 138.155C131.392 137.995 132.143 137.834 134.02 137.834C135.897 137.834 136.648 137.995 135.747 138.155ZM136.873 140.409C137.024 140.57 136.723 142.742 136.197 145.156C134.771 151.915 134.02 151.352 129.74 140.087C129.364 139.202 129.965 139.121 132.969 139.604C134.996 139.926 136.798 140.248 136.873 140.409ZM254.919 143.547C254.919 145.076 252.891 146.685 251.915 146.041C251.314 145.639 251.464 144.995 252.365 143.949C253.867 142.179 254.919 141.937 254.919 143.547ZM179.451 149.662C180.277 151.03 172.918 159.238 168.938 161.411L165.108 163.503L162.405 161.652C160.978 160.606 159.176 159.319 158.425 158.916C157.223 158.111 157.223 157.87 158.275 155.134C159.626 151.755 161.579 150.306 166.31 149.582C171.716 148.777 178.925 148.777 179.451 149.662ZM250.939 152.559C251.314 153.686 248.386 164.066 247.334 165.273C246.508 166.239 241.627 161.411 240.951 159.077C240.276 156.824 246.734 150.387 248.911 151.03C249.812 151.272 250.713 151.996 250.939 152.559ZM215.42 151.996C215.871 152.72 213.993 158.192 212.792 159.801C212.341 160.445 210.464 160.043 206.484 158.594C201.453 156.744 200.852 156.261 200.852 154.41C200.852 153.283 201.077 152.076 201.378 151.835C202.129 151.03 214.969 151.191 215.42 151.996ZM237.948 161.652C237.122 162.618 234.644 158.755 234.644 156.583C234.644 154.169 234.644 154.169 236.446 157.709C237.422 159.721 238.098 161.491 237.948 161.652ZM241.477 161.893C242.603 164.147 241.026 163.664 239.6 161.33C238.023 158.836 238.023 156.744 239.6 158.916C240.276 159.801 241.102 161.169 241.477 161.893ZM154.295 160.606C154.295 161.974 152.643 161.733 152.192 160.284C152.042 159.721 152.417 159.319 153.093 159.319C153.769 159.319 154.295 159.882 154.295 160.606ZM160.753 161.974C162.93 163.986 162.855 166.158 160.603 167.124C158.8 167.848 155.722 164.227 156.247 161.893C156.848 159.64 158.2 159.64 160.753 161.974ZM50.2918 162.537C53.3706 163.342 52.8449 163.503 45.0353 163.744C34.3722 164.147 26.1871 167.848 18.9032 175.734C11.8445 183.298 8.61549 192.23 8.61549 204.139C8.61549 225.624 26.3373 243.81 47.2881 243.81C64.4091 243.81 80.3287 229.486 83.6328 211.14C85.0596 202.852 82.957 191.908 78.2262 183.217C76.4239 179.918 70.1913 173.159 66.5117 170.343C65.4604 169.618 64.8597 168.814 65.085 168.492C67.1125 166.4 78.2262 177.746 81.5302 185.39C92.1183 209.611 81.9808 235.682 59.0025 243.649C52.4695 245.821 42.7825 246.304 37.1506 244.614C25.8117 241.315 15.5991 232.222 10.4177 220.876L7.48911 214.439V203.576V192.713L10.643 185.712C16.0496 173.561 25.1358 165.917 37.5261 163.101C43.3082 161.733 46.8375 161.572 50.2918 162.537ZM102.856 172.998C107.212 179.194 110.516 184.264 110.216 184.264C109.84 184.264 106.386 179.677 102.481 173.964C98.6513 168.331 95.1219 163.261 94.7465 162.698C94.371 162.215 94.2208 161.733 94.4461 161.733C94.6714 161.733 98.426 166.802 102.856 172.998ZM152.793 165.917C152.793 166.722 148.513 166.802 148.062 165.917C147.837 165.595 147.987 164.468 148.362 163.422L149.038 161.491L150.916 163.342C151.967 164.388 152.793 165.515 152.793 165.917ZM204.907 165.836C207.235 166.802 209.112 167.929 209.112 168.25C209.112 169.136 209.563 169.216 204.607 167.365C202.354 166.561 200.402 165.515 200.251 165.032C199.876 163.825 200.101 163.905 204.907 165.836ZM327.383 168.492C324.079 176.458 323.027 181.689 324.004 184.344C324.529 185.631 324.755 186.919 324.529 187.16C323.928 187.804 311.463 182.735 310.487 181.447C309.21 179.757 310.337 176.7 313.416 173.481C316.119 170.664 326.407 164.227 328.284 164.147C328.885 164.147 328.584 165.675 327.383 168.492ZM42.332 179.194V193.356L39.3283 190.218C37.6763 188.528 35.7989 185.953 35.2733 184.666C34.7477 183.298 34.222 182.815 34.222 183.459C34.1469 184.585 23.634 174.044 23.634 172.837C23.634 171.791 34.7477 166.4 35.6488 166.963C36.0242 167.204 36.3997 167.124 36.3997 166.641C36.3997 165.997 37.6763 165.595 41.4309 165.032C42.1818 164.951 42.4071 168.331 42.332 179.194ZM49.9914 172.998L50.3669 180.642L50.5921 174.205C50.7423 170.664 51.0427 168.653 51.1929 169.779C51.4182 170.825 52.094 172.113 52.6947 172.596C53.6709 173.4 53.6709 173.883 52.6196 176.619C50.8174 181.125 51.6434 180.884 53.6709 176.217C54.6471 173.964 55.6984 172.193 55.9988 172.193C56.8248 172.193 53.2955 185.792 51.4182 190.218C50.5171 192.23 49.3156 194.242 48.7148 194.805C46.9877 196.334 46.6123 193.759 48.039 190.218C50.442 184.183 51.3431 181.045 50.6672 181.045C50.2167 181.045 49.9163 181.608 49.9163 182.252C49.9163 184.424 45.1104 195.529 44.2844 195.288C43.8338 195.127 43.4584 189.413 43.3082 179.918L43.158 164.871L46.3119 165.112L49.5409 165.354L49.9914 172.998ZM246.283 167.365C246.508 167.768 246.433 168.17 245.983 168.17C245.607 168.17 245.006 167.768 244.781 167.365C244.556 166.882 244.631 166.561 245.081 166.561C245.457 166.561 246.058 166.882 246.283 167.365ZM201.603 168.25C201.603 168.653 201.978 168.814 202.429 168.572C203.48 167.848 207.61 169.699 207.61 170.906C207.61 171.389 205.583 176.217 203.18 181.528C200.176 188.287 197.999 191.908 196.422 193.195C194.619 194.644 194.094 195.69 194.019 197.863C194.019 199.472 193.793 200.277 193.568 199.713C193.418 199.231 192.892 198.909 192.517 199.15C192.141 199.472 192.066 199.07 192.292 198.345C192.667 197.46 192.442 197.219 191.541 197.621C190.264 198.184 189.889 196.736 191.09 195.931C191.541 195.69 191.841 194.805 191.841 194.081C191.766 192.954 191.691 192.954 190.94 194.322C190.489 195.207 190.039 196.092 189.889 196.253C189.438 196.817 180.577 187.16 180.577 186.034C180.577 185.471 180.277 185.149 179.901 185.39C179.601 185.631 178.475 184.907 177.573 183.861C176.597 182.735 175.396 181.85 174.87 181.85C173.669 181.85 172.317 179.918 172.918 179.033C173.744 177.826 176.898 176.378 179.976 175.814C181.929 175.493 183.055 175.734 183.881 176.619C184.557 177.343 185.083 177.585 185.083 177.102C185.083 176.619 185.608 176.458 186.284 176.78C187.11 177.102 187.411 178.148 187.26 180.562C187.035 186.114 187.335 193.437 187.786 192.954C188.011 192.632 188.161 189.172 188.161 185.149C188.086 179.838 188.387 177.826 189.063 177.826C190.865 177.826 195.971 179.596 196.422 180.482C197.473 182.171 199.35 180.321 199.35 177.665C199.425 176.217 199.876 174.125 200.477 172.998C201.077 171.871 201.528 170.584 201.528 170.182C201.528 169.699 201.077 170.262 200.477 171.389L199.425 173.4L199.35 170.343C199.35 168.25 199.651 167.365 200.477 167.365C201.077 167.365 201.603 167.768 201.603 168.25ZM157.148 169.136C157.674 169.94 157.223 171.067 155.346 173.32C153.919 175.09 152.643 176.297 152.493 176.136C152.042 175.653 155.271 168.17 155.872 168.17C156.172 168.17 156.698 168.653 157.148 169.136ZM218.048 175.171C223.305 180.884 226.083 185.31 227.51 190.46C228.336 193.678 226.834 192.391 225.407 188.77C223.38 183.539 217.823 175.814 213.993 172.998C210.764 170.664 209.713 168.975 211.365 168.975C211.816 168.975 214.819 171.791 218.048 175.171ZM259.8 176.7C262.278 180.482 264.831 184.344 265.432 185.31C266.032 186.275 263.704 184.183 260.175 180.723C256.646 177.182 253.792 174.044 253.867 173.642C253.942 173.32 254.017 172.274 254.093 171.389C254.093 170.504 254.393 169.779 254.768 169.779C255.069 169.86 257.322 172.918 259.8 176.7ZM67.7132 172.998L69.4403 174.205L66.2114 177.826L63.0575 181.447L66.0612 178.389C67.7883 176.78 69.4403 175.412 69.8909 175.412C70.3415 175.412 71.4678 176.297 72.444 177.424L74.2463 179.516L67.9385 186.275C64.4091 190.057 60.9549 193.356 60.2791 193.598C59.5281 193.839 59.0776 194.322 59.3029 194.724C59.5281 195.046 58.4768 196.495 56.975 197.943C55.4732 199.311 54.3468 200.518 54.497 200.679C54.6471 200.759 55.8486 200.599 57.0501 200.277C58.4018 199.955 58.7021 199.713 57.801 199.633C56.5995 199.552 56.8248 199.07 59.2278 196.414C60.8047 194.644 62.9824 193.035 64.0337 192.713C65.3854 192.391 65.6857 191.988 65.0099 191.586C64.3341 191.103 65.6106 189.494 69.14 185.953C71.9184 183.298 74.6217 181.045 75.0723 181.045C76.1236 181.045 79.9533 189.092 81.4551 194.081C81.9057 195.77 82.5064 199.472 82.7317 202.369C83.1072 207.277 83.0321 207.599 81.38 208.323C80.0284 208.887 79.9533 209.128 80.9295 209.128C82.4313 209.209 82.5815 210.979 81.38 214.922C79.728 220.635 78.9771 222.083 77.9258 222.083C77.3251 222.083 77.0998 222.405 77.3251 222.888C77.7756 223.612 77.25 224.9 75.5228 227.716C74.9221 228.682 74.5466 228.601 73.0448 227.314L71.3176 225.704L72.7444 227.555C74.1712 229.326 74.1712 229.326 72.0686 231.74L69.8909 234.154L64.1839 228.36C60.8047 224.819 59.9036 224.095 61.9311 226.509C63.8084 228.682 66.1363 231.498 67.1125 232.705L68.8396 234.878L66.3615 236.487C65.0099 237.372 63.6582 237.936 63.2828 237.694C62.9824 237.453 62.682 237.614 62.682 238.016C62.682 238.821 59.378 240.591 57.8761 240.591C57.2754 240.591 56.0739 238.579 55.1728 236.165C54.1966 233.671 53.3706 231.82 53.2204 231.981C53.0702 232.142 53.5958 234.154 54.497 236.487C55.3981 238.74 55.9988 240.832 55.7735 241.074C55.5482 241.315 54.1215 241.718 52.6196 241.959L49.9163 242.442L49.7661 235.28L49.6159 228.118L49.3907 235.119L49.0903 242.2L44.4346 242.12C38.1268 242.039 35.9491 241.315 36.2495 239.304C36.3997 238.177 36.3246 238.016 35.7989 238.901C34.9729 240.189 30.4674 239.384 29.9417 237.775C29.7165 237.292 30.9179 233.268 32.57 228.843C34.9729 222.405 36.2495 220.233 39.3283 217.014C41.4309 214.841 43.158 212.669 43.158 212.186C43.158 211.623 42.7825 211.784 42.4071 212.427C42.1067 213.071 37.5261 217.819 32.3447 222.888C27.1633 227.958 23.1083 232.222 23.3336 232.464C23.4838 232.705 25.8867 230.533 28.515 227.716C31.1432 224.9 33.4711 222.727 33.6964 222.969C34.3722 223.612 28.7403 236.568 27.7641 236.568C26.5626 236.568 19.8794 230.693 18.8281 228.762C18.2273 227.636 19.2786 226.268 24.46 221.118C29.6414 215.968 31.819 214.439 36.8502 212.266C40.9803 210.496 42.8576 209.289 42.6324 208.645C42.332 207.841 41.9565 207.921 41.1305 208.967C40.1543 210.335 40.0792 210.255 40.6049 208.484C40.9052 207.197 40.8301 206.795 40.2294 207.116C39.7788 207.438 39.4034 208.243 39.4034 208.887C39.4034 210.013 34.3722 212.91 33.6964 212.186C33.5462 212.025 34.9729 210.335 36.8502 208.484C38.6525 206.553 40.0041 204.783 39.7788 204.461C39.4785 204.22 38.9528 204.622 38.5774 205.427C37.9766 206.473 36.9253 206.795 33.9216 206.714H30.0168L33.2458 205.105C35.048 204.3 36.8502 203.817 37.2257 204.059C37.6012 204.3 37.9015 204.059 37.9015 203.656C37.9015 203.173 37.3008 202.771 36.625 202.691C35.874 202.691 33.9216 201.966 32.2696 201.162L29.2659 199.633H33.1707C35.2733 199.552 37.3008 199.955 37.6012 200.438C37.9015 201.081 38.277 201.001 38.7275 200.277C39.1781 199.391 39.5536 199.391 40.3045 200.196C40.9803 200.92 40.9803 201.162 40.3045 201.162C39.7788 201.162 39.4034 201.484 39.4034 201.966C39.4034 202.369 40.0041 202.53 40.755 202.288C41.6562 201.966 41.7312 202.047 41.0554 202.53C40.0792 203.254 40.5298 205.99 41.5811 205.99C42.2569 205.99 44.2093 210.094 44.0591 210.979C43.984 211.381 44.2844 211.623 44.7349 211.623C45.1855 211.623 45.3357 210.898 44.9602 209.772C44.5097 208.082 44.5097 208.082 46.1617 210.013C47.2881 211.381 47.7386 211.542 47.4383 210.657C47.0628 209.611 47.4383 209.128 48.7899 208.726C49.8412 208.484 50.5171 207.921 50.2918 207.599C49.8412 206.795 55.9237 204.3 56.8999 204.944C57.3505 205.266 57.4256 205.024 57.0501 204.461C56.7497 203.898 55.9237 203.576 55.2479 203.817C54.1215 204.059 53.8962 203.656 53.9713 201.162C54.1215 197.863 55.4732 195.529 57.3505 195.529C58.4018 195.449 58.3267 195.288 57.2003 194.322C55.6984 193.195 55.8486 191.586 57.8761 187.321C58.4768 186.114 58.9274 184.988 58.8523 184.907C58.7772 184.666 60.9549 178.631 62.9824 173.4C63.8084 171.389 64.4091 170.664 65.085 171.147C65.6106 171.469 66.8121 172.354 67.7132 172.998ZM280.45 176.941L293.591 182.413L294.042 190.781C294.267 195.368 294.718 202.691 295.093 207.116C295.468 212.427 295.393 214.922 294.868 214.761C294.417 214.6 289.611 207.841 284.054 199.794C278.573 191.828 271.739 181.85 268.961 177.826C262.878 169.055 262.052 169.136 280.45 176.941ZM212.566 173.883C213.993 175.573 213.993 175.653 209.112 180.401C206.409 183.057 204.907 184.907 205.733 184.424C206.559 183.942 208.737 181.93 210.614 179.918C212.416 177.907 214.294 176.217 214.744 176.217C215.195 176.217 216.396 177.102 217.372 178.228L219.175 180.321L212.867 187.08C208.211 191.988 205.433 194.242 202.579 195.449L198.674 197.058L200.627 192.471C201.678 189.977 202.88 187.402 203.33 186.758C203.781 186.195 204.231 185.31 204.306 184.746C204.682 182.332 209.413 172.193 210.239 172.193C210.689 172.193 211.74 172.998 212.566 173.883ZM28.515 179.435C31.2934 182.493 33.9216 184.827 34.2971 184.585C34.6726 184.344 34.8978 184.424 34.8227 184.827C34.7477 185.149 35.4235 187.08 36.2495 189.092C37.1506 191.103 37.6763 191.828 37.451 190.701L37.0004 188.689L39.3283 191.023C40.6049 192.31 41.8063 194.081 42.1067 194.885C42.332 195.69 42.7825 196.173 43.158 195.931C43.5335 195.69 44.0591 195.931 44.2844 196.334C44.6598 196.897 45.1855 196.736 45.8613 195.77C46.6873 194.563 46.9126 194.563 46.9877 195.529C47.0628 196.173 47.0628 196.977 46.9877 197.299C46.9877 197.702 47.213 197.943 47.6635 197.943C48.039 197.943 48.4145 197.38 48.4145 196.736C48.4145 196.092 48.7899 195.529 49.1654 195.529C50.2167 195.529 50.1416 196.817 49.0152 197.782C48.039 198.587 45.2606 198.506 43.0078 197.541C41.9565 197.138 41.8063 197.38 42.0316 198.828C42.332 200.196 42.1818 200.438 41.506 199.713C40.9803 199.15 39.7037 198.748 38.6525 198.748C37.451 198.748 35.874 197.782 34.5224 196.334C33.3209 194.966 32.57 193.92 32.8703 193.92C34.1469 193.92 39.4034 196.575 39.4034 197.299C39.4034 197.702 39.7788 197.782 40.1543 197.541C40.6049 197.219 40.4547 196.575 39.7788 195.851C39.1781 195.127 38.6525 194.161 38.6525 193.678C38.6525 193.035 38.4272 193.035 37.9766 193.759C36.8502 195.77 31.819 192.552 24.8355 185.229L18.0771 178.228L23.2585 184.585C26.1871 188.206 27.7641 190.54 26.7128 189.977C25.8117 189.413 24.8355 189.092 24.6853 189.333C24.5351 189.494 25.6615 190.299 27.3135 191.103C28.8904 191.828 31.5187 193.92 33.0956 195.61L35.9491 198.748H31.6689C28.1395 198.748 25.9618 198.104 19.6541 195.046C15.4489 192.954 11.8445 191.103 11.6943 190.942C11.469 190.781 11.9196 189.413 12.5954 187.804C13.6467 185.471 14.1723 185.068 15.5991 185.471C17.0258 185.873 17.1009 185.792 15.9746 185.068C15.2236 184.585 14.6229 183.861 14.6229 183.459C14.6229 182.654 22.057 173.803 22.808 173.803C23.0332 173.803 25.6615 176.297 28.515 179.435ZM114.721 177.826C115.472 179.114 115.923 180.24 115.697 180.24C115.547 180.24 114.646 179.114 113.745 177.826C112.844 176.458 112.393 175.412 112.769 175.412C113.144 175.412 114.045 176.458 114.721 177.826ZM164.057 175.814C164.057 176.056 162.855 177.907 161.353 179.918C159.927 182.01 158.049 185.068 157.298 186.758C154.896 191.828 152.568 201.886 153.018 205.748C153.319 208.484 153.093 209.209 152.192 209.209C149.864 209.209 152.417 192.23 155.947 184.827C158.124 180.079 164.057 173.561 164.057 175.814ZM177.198 188.528C180.953 192.31 183.806 195.529 183.581 195.77C183.356 196.092 181.478 195.449 179.451 194.402C174.57 191.988 163.005 179.596 164.207 178.068C165.108 176.861 167.211 178.47 177.198 188.528ZM150.54 179.435C150.841 179.435 150.465 180.884 149.639 182.654C148.813 184.424 147.987 185.873 147.837 185.873C147.687 185.873 147.536 184.183 147.536 182.171C147.536 179.114 147.762 178.55 148.738 178.953C149.414 179.194 150.165 179.435 150.54 179.435ZM167.06 184.022C173.143 191.345 182.229 201.162 182.905 201.162C183.28 201.162 182.229 199.874 180.577 198.265C178.925 196.656 177.648 195.127 177.874 194.966C178.475 194.242 184.332 198.024 184.332 199.15C184.332 199.713 184.632 200.438 185.008 200.759C185.458 201.001 185.458 200.196 185.083 198.587C184.106 195.207 184.482 195.046 186.509 197.943L188.161 200.357L184.632 202.047C182.154 203.093 180.802 203.334 180.277 202.771C179.901 202.369 178.775 201.966 177.874 201.966C176.147 201.966 174.87 200.759 175.846 200.116C176.222 199.955 176.072 199.955 175.546 200.035C175.095 200.196 173.594 199.955 172.392 199.552C169.388 198.667 169.388 199.391 172.317 200.438C173.518 200.92 174.42 201.725 174.344 202.208C174.194 203.254 180.051 204.381 182.905 203.817C184.257 203.576 185.008 203.817 185.308 204.783C185.683 205.588 185.533 205.909 185.008 205.507C184.557 205.185 183.956 205.346 183.656 205.748C183.431 206.231 178.475 207.036 172.692 207.519C166.91 208.082 160.527 208.645 158.425 208.887L154.67 209.37L154.445 205.668L154.22 201.966L158.575 201.886C163.005 201.806 162.93 201.645 157.749 200.759C154.896 200.277 154.896 200.277 155.271 196.977C155.496 195.207 155.872 193.598 156.097 193.276C156.397 193.035 157.824 193.437 159.251 194.242C160.753 194.966 162.104 195.449 162.255 195.288C162.405 195.127 161.203 194.322 159.551 193.517C157.148 192.391 156.623 191.747 156.998 190.54C157.824 187.563 162.104 180.24 163.005 180.24C163.456 180.24 165.333 181.93 167.06 184.022ZM222.629 186.195C222.629 186.678 220.902 187.804 218.874 188.609C216.772 189.413 215.195 190.218 215.345 190.46C215.57 190.62 217.372 190.057 219.475 189.172C223.305 187.563 223.38 187.563 224.131 189.092C225.557 191.908 225.032 192.31 220.226 192.31C217.598 192.31 214.143 192.713 212.566 193.115C210.914 193.517 209.262 193.598 208.887 193.356C208.511 193.115 210.689 190.218 213.693 186.919L219.25 180.964L220.977 183.057C221.878 184.183 222.629 185.631 222.629 186.195ZM125.609 185.631C126.06 186.356 126.811 186.758 127.562 186.436C129.139 185.792 129.664 188.126 129.364 194.724L129.139 199.874L124.934 193.839C119.302 185.712 119.377 185.953 121.404 185.149C123.957 184.022 124.859 184.103 125.609 185.631ZM119.001 195.851C122.456 200.679 124.859 204.461 124.408 204.3C123.507 203.978 111.492 187.08 111.492 186.114C111.492 185.39 111.792 185.712 119.001 195.851ZM135.522 193.035C135.522 196.656 135.071 196.012 134.545 191.586C134.245 189.253 134.395 188.367 134.846 189.172C135.221 189.735 135.522 191.506 135.522 193.035ZM320.925 194C326.331 196.253 330.762 198.506 330.762 198.989C330.762 199.552 329.41 204.863 327.833 210.818C318.897 243.407 319.047 243.005 315.293 243.005C314.091 243.005 312.514 241.476 309.811 237.372L305.981 231.82L307.108 221.762C307.709 216.29 308.685 208.565 309.361 204.702C309.961 200.92 310.487 195.931 310.487 193.839C310.487 191.667 310.637 189.896 310.787 189.896C311.013 189.896 315.518 191.747 320.925 194ZM17.3262 194.805C20.1797 196.173 24.3849 198.184 26.6377 199.311C28.8904 200.438 31.744 201.725 32.9454 202.288L35.1982 203.254L31.2934 205.024C27.689 206.714 26.7128 206.795 18.3024 206.312L9.21623 205.748L9.74188 200.116C10.2675 194.161 10.7181 192.31 11.6192 192.31C11.9196 192.31 14.4727 193.437 17.3262 194.805ZM197.323 195.127C196.046 197.943 194.845 198.828 194.845 196.977C194.845 196.173 197.698 192.31 198.374 192.31C198.449 192.31 197.999 193.598 197.323 195.127ZM225.482 200.84C229.012 201.886 226.909 202.771 220.977 202.771C214.669 202.771 203.255 205.427 202.204 207.116C201.828 207.76 201.378 207.68 200.702 206.955C200.026 206.231 200.026 205.99 201.077 205.99C201.753 205.99 202.354 205.668 202.354 205.266C202.354 204.541 208.436 202.288 213.618 201.242C217.748 200.357 223.154 200.196 225.482 200.84ZM137.024 201.966C137.024 202.369 136.723 202.771 136.348 202.771C135.897 202.771 135.371 202.369 135.146 201.966C134.921 201.484 135.221 201.162 135.822 201.162C136.498 201.162 137.024 201.484 137.024 201.966ZM392.338 203.173C407.356 207.438 419.071 219.589 422.675 234.636C424.177 240.832 424.177 252.42 422.75 258.213C419.221 272.537 408.858 284.446 394.966 290.159C388.733 292.734 377.094 293.7 370.561 292.171C359.447 289.596 348.108 279.859 343.227 268.674C340.224 261.754 339.398 259.099 340.299 259.099C340.674 259.099 341.575 261.03 342.326 263.283C346.381 275.997 356.744 286.136 369.434 290.159C375.667 292.09 386.18 292.09 391.587 290.159C399.096 287.423 404.578 283.802 410.135 277.848C418.32 268.996 422.45 258.535 422.45 246.224C422.525 233.912 418.995 224.658 410.81 216.048C404.578 209.45 398.345 205.748 390.085 203.898C382.876 202.288 376.869 202.852 368.684 205.829C362.451 208.162 359.672 207.921 364.929 205.507C372.964 201.966 384.528 200.92 392.338 203.173ZM224.656 204.22C225.107 204.541 225.482 207.116 225.557 210.577C225.557 215.726 225.482 216.37 224.281 215.968C223.38 215.646 223.23 215.726 223.981 216.29C225.182 217.175 224.506 220.715 222.929 222.164C222.328 222.647 221.878 223.532 221.878 224.095C221.878 224.658 220.902 226.268 219.625 227.716C218.424 229.165 217.372 230.613 217.372 231.015C217.372 231.337 216.697 232.061 215.946 232.544C214.744 233.188 213.843 232.544 209.788 227.716C207.235 224.578 204.231 221.52 203.18 220.796C202.129 220.072 203.255 221.681 205.658 224.417C208.136 227.072 209.938 229.486 209.788 229.728C209.112 230.372 199.951 219.75 200.402 218.945C200.702 218.543 200.552 217.98 200.101 217.658C199.726 217.416 199.35 217.658 199.35 218.301C199.35 219.83 202.279 225.946 202.354 224.497C202.354 223.13 210.464 231.418 211.365 233.751C212.491 236.889 210.764 237.453 206.784 235.28C202.654 232.947 191.541 220.796 192.292 219.508C192.592 218.945 192.442 218.865 191.991 219.187C191.465 219.508 191.09 219.348 191.09 218.865C191.09 218.382 191.691 218.06 192.442 218.221C193.118 218.301 194.169 218.14 194.694 217.819C195.971 216.933 197.097 217.899 196.572 219.428C196.271 220.313 196.422 220.555 197.173 220.313C197.698 220.152 198.524 218.704 198.9 217.175C199.35 215.646 200.251 213.956 200.927 213.393C201.678 212.83 202.354 211.623 202.504 210.577C202.88 207.438 210.614 204.622 210.614 207.68C210.614 208.243 209.788 208.404 208.361 208.082C206.935 207.841 206.184 207.921 206.484 208.404C206.709 208.887 207.61 209.209 208.436 209.209C209.187 209.209 210.539 209.933 211.44 210.898L213.017 212.588L212.491 210.898C212.041 209.37 212.341 209.209 214.669 209.209H217.372V216.209L217.297 223.29L216.021 220.313C214.969 217.819 214.594 217.577 213.768 218.543C213.167 219.187 213.092 219.669 213.618 219.669C214.669 219.669 217.372 224.497 217.372 226.429C217.372 227.958 217.372 227.958 215.72 226.429C213.993 224.9 213.993 224.9 215.345 226.59C217.898 229.889 218.499 228.762 218.198 221.037L217.973 213.876L219.7 214.359L221.502 214.841L219.85 213.956C218.799 213.312 218.123 212.266 218.123 211.059C218.123 209.53 218.574 209.209 220.601 209.048L223.004 208.967L220.601 208.645C218.724 208.404 218.123 207.921 218.048 206.553C217.898 204.783 217.898 204.783 217.598 206.553C217.297 208.082 216.772 208.404 214.369 208.404C212.416 208.404 211.365 208.002 211.065 207.116C210.464 205.346 210.464 205.346 215.195 204.461C220.451 203.576 223.53 203.415 224.656 204.22ZM226.909 207.358C226.684 208.162 226.534 207.68 226.534 206.392C226.534 205.024 226.684 204.461 226.909 204.944C227.059 205.507 227.059 206.634 226.909 207.358ZM338.196 209.611L341.275 214.761L338.947 218.543C335.793 223.532 332.564 231.82 331.513 237.936C330.987 240.752 330.236 243.005 329.861 243.005C328.81 243.005 324.755 240.591 324.755 239.947C324.755 238.579 334.517 204.381 334.892 204.381C335.042 204.381 336.544 206.714 338.196 209.611ZM378.971 208.565L379.121 212.83L379.347 208.484L379.647 204.22L385.429 204.783C395.341 205.748 395.116 205.346 390.986 214.922L387.457 223.049L387.006 217.577L386.631 212.025L386.556 219.267L386.48 226.509L390.911 216.612L395.341 206.795L398.12 208.002C399.622 208.726 401.048 209.45 401.274 209.611C401.424 209.852 400.523 212.588 399.171 215.726C397.895 218.945 396.918 221.681 397.144 221.842C397.294 222.003 398.345 219.75 399.471 216.853C400.673 213.956 401.874 211.381 402.25 211.14C402.625 210.898 404.052 211.623 405.404 212.749L407.957 214.841L402.625 220.635L397.219 226.429L402.625 220.957C405.629 217.98 408.483 215.646 409.008 215.807C410.21 216.209 417.118 225.865 417.118 227.153C417.118 227.958 408.483 231.82 402.1 233.912C401.499 234.154 403.677 231.498 407.056 227.958C410.36 224.497 412.087 222.566 410.81 223.693C409.534 224.739 406.305 227.877 403.602 230.613C400.598 233.671 397.369 236.085 395.191 236.97C393.164 237.775 391.587 238.579 391.587 238.74C391.587 238.982 392.037 238.982 392.563 238.74C393.013 238.579 394.29 238.097 395.341 237.775C397.068 237.211 397.068 237.372 394.666 240.108C393.089 241.798 391.286 243.005 390.31 243.005C388.358 243.005 388.133 242.039 389.559 240.43C390.01 239.867 390.535 238.821 390.686 238.177C390.836 237.533 391.887 234.878 393.013 232.303L395.116 227.555L391.286 231.659C389.184 233.912 387.156 235.763 386.931 235.763C386.631 235.763 386.255 234.556 386.105 233.108C385.88 230.774 385.805 230.854 385.73 233.832C385.579 236.97 384.153 239.545 383.101 238.499C382.876 238.177 382.801 238.982 383.026 240.269C383.402 242.603 383.402 242.603 382.2 240.832C381.149 239.223 381.224 238.74 383.702 233.59C385.129 230.613 386.33 227.716 386.255 227.314C386.255 226.831 385.354 228.44 384.153 230.854L382.125 235.119L380.473 230.935C379.422 228.199 378.746 224.739 378.671 221.359C378.596 216.451 378.596 216.29 378.145 219.669C377.695 223.13 377.62 223.21 377.094 220.957C376.794 219.75 376.343 218.865 376.118 219.026C375.742 219.508 377.695 225.865 380.098 231.579C382.05 236.407 382.125 237.05 380.999 237.855C380.023 238.499 370.561 228.682 370.561 227.072C370.561 226.509 370.26 226.187 369.96 226.429C369.585 226.67 368.308 225.785 367.182 224.497C366.055 223.21 364.854 222.325 364.553 222.486C363.652 223.049 361.55 220.152 362.151 219.187C362.451 218.704 363.427 217.899 364.328 217.336C365.68 216.612 366.13 216.692 366.806 217.819C367.557 219.106 367.632 219.106 367.182 217.658C366.956 216.773 366.506 215.083 366.281 213.795C366.055 212.588 365.53 211.381 365.229 211.14C363.727 210.174 364.779 208.565 367.557 207.599C371.011 206.392 371.462 206.714 372.814 211.059C373.339 212.749 373.865 213.956 374.015 213.795C374.165 213.634 373.79 211.944 373.189 210.013C372.588 208.082 372.213 206.392 372.363 206.151C372.663 205.829 376.643 204.702 378.295 204.461C378.596 204.381 378.896 206.312 378.971 208.565ZM137.324 205.909C137.549 206.312 137.249 207.036 136.723 207.519C135.972 208.162 135.522 208.243 135.146 207.599C134.921 207.197 135.296 206.795 136.047 206.795C137.174 206.795 137.249 206.634 136.273 205.99C135.597 205.507 135.522 205.185 136.047 205.185C136.498 205.185 137.099 205.507 137.324 205.909ZM30.2421 207.68C35.874 207.519 36.625 208.002 34.1469 210.416C33.3209 211.22 32.8703 212.186 33.0956 212.588C33.3209 212.91 33.2458 213.232 32.8703 213.151C31.9692 212.91 27.3135 215.324 27.7641 215.726C28.4399 216.451 17.7768 227.153 16.9508 226.59C16.5002 226.268 15.5991 224.98 14.9983 223.693L13.872 221.359L20.2548 218.784C23.7842 217.336 26.4875 216.048 26.3373 215.887C26.1871 215.726 23.3336 216.692 19.8794 218.06C16.4251 219.428 13.5716 220.394 13.4965 220.313C12.5954 219.267 11.0935 214.037 11.6943 214.037C12.1448 214.037 11.9196 213.473 11.3188 212.749C10.643 212.105 10.1173 210.416 10.1173 209.048V206.553L17.4764 207.197C21.4563 207.519 27.2384 207.76 30.2421 207.68ZM124.108 208.806C123.657 209.933 123.131 210.657 122.906 210.496C122.38 209.933 123.582 206.795 124.258 206.795C124.633 206.795 124.558 207.68 124.108 208.806ZM251.164 213.071C255.219 216.853 260.851 225.946 262.953 232.142C264.005 235.28 264.305 238.579 264.305 247.511V258.857L260.776 266.421C254.843 279.216 245.607 287.745 233.367 291.849C227.735 293.7 226.233 293.861 219.024 293.539C207.085 292.895 198.074 288.791 189.738 280.101C183.656 273.744 178.174 262.317 177.423 254.271C177.048 250.167 178.7 251.937 179.826 256.846C183.656 273.02 193.418 284.285 208.361 289.757C214.143 291.849 223.83 292.171 230.138 290.562C249.362 285.573 263.179 267.467 263.179 247.028C263.179 240.832 260.926 231.337 258.072 225.785C255.594 220.957 250.113 214.359 245.983 211.22C244.255 210.013 242.904 208.484 242.904 207.841C242.904 206.312 246.208 208.404 251.164 213.071ZM125.534 210.174C125.309 210.818 125.084 210.577 125.084 209.691C125.009 208.806 125.234 208.323 125.459 208.645C125.685 208.887 125.76 209.611 125.534 210.174ZM177.198 212.427C175.996 213.715 174.42 215.002 173.669 215.324C172.918 215.566 172.467 216.048 172.692 216.451C172.918 216.773 170.59 219.508 167.661 222.566C164.658 225.544 162.555 227.797 163.081 227.636C163.606 227.475 167.661 223.451 172.167 218.623C176.822 213.795 181.028 210.013 181.779 210.013C183.055 210.094 183.055 210.174 181.553 211.542C180.577 212.427 179.826 213.312 179.826 213.634C179.826 213.876 179 215.324 178.024 216.692C177.048 218.14 175.17 221.52 173.894 224.337C172.467 227.314 170.815 229.647 169.914 230.05C168.337 230.693 168.337 230.693 169.839 231.096C171.04 231.418 171.341 231.981 171.04 233.671C170.59 236.085 168.112 236.326 168.262 233.912C168.337 233.188 168.112 232.786 167.736 232.947C167.06 233.429 164.057 231.659 164.057 230.774C164.057 230.533 164.658 230.05 165.408 229.889C166.46 229.567 166.385 229.486 165.108 229.406C163.005 229.326 160.753 226.59 158.049 220.876C156.247 217.014 155.947 215.968 156.773 214.922C157.374 214.117 157.374 213.876 156.773 214.278C156.322 214.6 155.722 214.519 155.421 214.037C155.196 213.634 155.571 213.151 156.322 213.151C158.2 212.991 160.152 212.749 169.689 211.381C174.269 210.737 178.249 210.174 178.625 210.094C179.075 210.013 178.399 211.059 177.198 212.427ZM245.081 212.186L247.484 214.439L241.477 220.313L235.395 226.268L236.821 222.325C240.125 213.634 241.627 210.013 242.078 210.013C242.378 210.013 243.73 210.979 245.081 212.186ZM229.387 212.669C229.387 214.198 226.909 221.279 226.383 221.279C225.933 221.279 225.633 221.842 225.633 222.647C225.633 224.497 221.127 231.82 220.301 231.257C219.926 231.015 219.625 231.418 219.625 232.142C219.625 232.786 218.799 233.832 217.748 234.315C216.697 234.797 215.871 235.682 215.871 236.246C215.871 236.729 215.345 237.372 214.744 237.694C212.942 238.418 213.392 235.924 215.345 234.878C217.222 233.751 217.598 233.268 222.479 225.624C224.506 222.566 226.383 218.543 226.684 216.773C226.984 215.083 227.435 213.393 227.585 213.071C227.96 212.427 229.387 212.186 229.387 212.669ZM154.971 216.612C155.496 218.543 156.923 222.003 158.124 224.256C159.626 227.233 160.002 228.521 159.326 228.521C158.124 228.521 153.769 219.669 153.093 215.807C152.417 212.025 153.919 212.669 154.971 216.612ZM124.859 217.416C125.309 218.704 125.459 219.669 125.084 219.669C124.408 219.669 122.756 216.129 122.756 214.68C122.756 213.393 123.732 214.761 124.859 217.416ZM126.435 217.658C126.435 218.06 126.135 217.899 125.76 217.255C125.384 216.612 125.084 215.485 125.084 214.841C125.084 213.554 126.36 216.129 126.435 217.658ZM129.064 214.761C129.289 215.163 128.989 215.646 128.388 215.968C127.787 216.209 127.111 215.968 126.811 215.485C126.511 214.922 126.586 214.841 127.111 215.163C127.637 215.485 128.012 215.324 128.012 214.922C128.012 213.876 128.538 213.795 129.064 214.761ZM250.563 217.014C251.69 218.221 252.666 219.589 252.666 220.072C252.666 221.118 238.023 235.763 236.971 235.763C236.521 235.763 236.145 236.165 236.145 236.729C236.145 238.016 231.565 243.005 230.363 243.005C228.111 243.005 230.288 239.223 233.367 237.855C235.244 236.97 235.47 236.648 234.193 236.648C231.79 236.568 231.64 235.843 232.917 232.222C233.667 229.969 236.221 226.751 240.951 221.922C244.706 218.06 247.935 214.922 248.085 214.841C248.31 214.841 249.437 215.807 250.563 217.014ZM352.088 216.612C351.713 217.175 350.211 219.348 348.709 221.44C343.227 228.843 339.848 239.384 339.698 249.04C339.698 252.5 339.473 253.385 339.022 252.259C337.445 248.396 339.322 235.843 342.401 229.406C344.654 224.578 350.812 215.646 351.863 215.646C352.238 215.646 352.389 216.129 352.088 216.612ZM131.467 221.922C131.542 223.13 131.091 223.693 130.19 223.693C128.388 223.693 127.712 222.325 128.914 220.957C130.19 219.348 131.392 219.83 131.467 221.922ZM186.585 220.474C186.585 220.957 185.233 223.854 183.656 226.831C182.079 229.889 180.502 233.993 180.202 235.924C179.901 237.775 179.376 239.947 179.075 240.591C178.475 241.637 178.324 241.637 177.949 240.43C177.273 238.579 180.877 227.233 183.431 223.049C185.383 219.75 186.585 218.784 186.585 220.474ZM193.343 225.624V228.118L191.465 224.9C188.987 220.635 188.987 218.784 191.465 221.279C192.667 222.486 193.343 224.015 193.343 225.624ZM255.67 224.176C256.571 225.704 257.246 227.072 257.096 227.233C256.946 227.394 256.12 227.877 255.294 228.44C253.942 229.245 254.017 229.326 255.895 228.843C257.697 228.44 258.072 228.682 259.049 231.257C260.475 234.878 260.551 234.717 258.148 236.165C256.946 236.889 256.721 237.211 257.547 236.97C260.175 236.085 260.4 236.165 261.001 238.177C262.278 242.925 261.902 243.81 258.523 243.971L255.294 244.051L258.523 244.373L261.677 244.695V248.316V251.857H251.615C242.378 251.857 241.252 251.696 237.197 249.764L232.766 247.592L235.77 246.143C237.422 245.339 240.05 244.453 241.627 244.132C246.358 243.246 244.706 242.603 238.248 242.844L232.015 243.086L242.528 232.142C248.235 226.187 253.191 221.279 253.492 221.279C253.792 221.279 254.768 222.566 255.67 224.176ZM188.387 225.785C188.687 226.59 188.462 226.911 187.936 226.751C186.81 226.348 186.209 224.497 187.185 224.497C187.561 224.497 188.161 225.061 188.387 225.785ZM201.903 233.429C201.753 233.751 202.204 234.234 203.03 234.556C203.856 234.797 204.982 235.924 205.658 236.97C206.859 238.901 206.784 238.982 204.682 240.189C201.753 241.798 201.228 241.718 200.176 239.545C199.575 238.338 199.425 238.257 199.726 239.304C200.251 241.154 198.975 242.2 196.121 242.2C194.394 242.2 194.019 241.879 194.244 240.591C194.394 239.223 193.643 238.499 189.964 236.889C184.031 234.234 182.905 233.832 184.707 235.039C185.533 235.602 186.434 236.326 186.66 236.729C186.885 237.211 187.26 237.453 187.411 237.292C187.561 237.211 188.987 237.533 190.564 238.097C194.394 239.464 194.394 241.879 190.639 242.683C188.687 243.086 187.711 242.925 187.185 242.12C186.735 241.315 186.359 241.315 186.134 241.879C185.608 243.166 181.028 242.039 180.727 240.591C180.652 239.947 181.178 238.097 181.854 236.568C183.205 233.751 183.28 233.751 188.237 233.751C192.742 233.671 193.343 233.912 193.568 235.361C193.793 236.326 193.944 236.004 194.019 234.475C194.094 231.9 195.596 230.452 196.797 231.74C197.173 232.061 198.299 232.625 199.35 232.866C201.152 233.429 201.152 233.349 199.2 232.142C198.074 231.498 196.572 229.889 195.971 228.682C194.995 226.911 194.845 226.831 195.22 228.279C195.52 229.406 195.37 230.13 194.92 230.13C194.019 230.13 193.793 226.67 194.619 225.785C195.22 225.141 202.429 232.544 201.903 233.429ZM350.136 229.647C352.989 233.912 354.266 238.74 352.313 237.936C349.235 236.568 348.634 236.568 350.812 237.936C352.764 239.143 353.064 239.625 352.464 240.752C351.863 241.959 350.661 242.2 346.456 242.2C341.8 242.2 341.2 242.039 341.575 240.752C341.8 240.028 342.176 238.338 342.476 237.131C342.927 235.2 343.227 234.878 344.954 235.28C346.832 235.682 346.832 235.682 345.255 234.797C344.279 234.315 343.528 233.59 343.528 233.188C343.528 232.222 346.832 226.107 347.357 226.107C347.583 226.107 348.859 227.716 350.136 229.647ZM187.936 229.647C186.885 231.82 185.834 232.544 184.632 231.981C182.905 231.257 185.458 226.992 187.335 227.475C188.612 227.797 188.687 228.118 187.936 229.647ZM419.071 231.337C419.596 232.866 420.122 234.395 420.122 234.797C420.122 235.2 417.268 236.729 413.739 238.177C410.21 239.625 407.431 240.993 407.581 241.154C407.807 241.315 410.585 240.35 413.814 238.982C417.043 237.694 419.897 236.809 420.197 237.211C420.422 237.533 420.873 239.143 421.098 240.752L421.549 243.81L415.391 243.971L409.233 244.132L415.466 244.373L421.699 244.695L421.474 248.075L421.248 251.454L411.261 251.696C402.55 251.857 400.823 251.696 397.819 250.247C393.539 248.235 392.638 248.235 396.092 250.247L398.721 251.776L396.618 251.857C395.416 251.857 393.614 251.132 392.563 250.247C391.512 249.362 390.01 248.638 389.334 248.638C388.583 248.638 387.832 248.155 387.607 247.511C387.306 246.707 387.607 246.546 388.733 246.868C389.785 247.109 390.16 246.948 389.785 246.385C389.484 245.821 388.808 245.419 388.208 245.419C386.33 245.419 386.405 244.132 388.283 243.971C389.409 243.89 389.935 244.132 389.709 244.614C389.484 245.097 389.559 245.419 390.01 245.419C390.385 245.419 390.986 245.017 391.211 244.614C391.437 244.132 393.389 243.81 395.416 243.81C397.519 243.81 399.021 244.132 398.796 244.534C398.495 244.936 399.622 244.856 401.123 244.373C403.977 243.407 403.977 243.407 398.495 243.005L393.013 242.603L396.242 239.223C398.796 236.568 401.349 235.119 408.483 232.222C413.439 230.211 417.569 228.601 417.719 228.601C417.869 228.521 418.47 229.808 419.071 231.337ZM165.559 234.154C171.04 239.545 170.214 240.832 164.582 235.682C161.203 232.544 158.875 229.326 160.077 229.326C160.377 229.406 162.855 231.579 165.559 234.154ZM373.114 236.326C373.414 237.05 373.189 237.936 372.663 238.338C371.837 238.821 371.837 238.982 372.663 238.982C373.189 238.982 374.165 240.189 374.766 241.557C375.517 243.327 375.742 243.568 375.517 242.361C375.292 241.154 375.517 240.591 376.043 240.832C377.394 241.315 377.62 243.89 376.418 244.695C375.066 245.66 372.063 245.58 372.063 244.614C372.063 244.132 372.438 243.81 372.964 243.81C373.414 243.81 373.264 243.327 372.513 242.764C371.762 242.2 371.087 240.752 371.087 239.545C371.011 238.338 370.711 237.372 370.411 237.372C369.96 237.372 366.055 230.372 366.055 229.567C366.055 228.762 372.739 235.119 373.114 236.326ZM213.843 234.395C213.543 234.878 212.942 234.636 212.341 233.751C210.839 231.498 211.14 230.452 212.867 232.142C213.693 232.947 214.143 233.912 213.843 234.395ZM389.709 238.097C388.583 240.832 387.382 243.005 387.081 243.005C386.781 243.005 386.556 241.798 386.48 240.35C386.405 238.499 387.081 237.05 388.733 235.2C390.085 233.751 391.211 232.705 391.437 232.866C391.587 233.108 390.836 235.441 389.709 238.097ZM208.737 237.372C208.962 237.775 208.887 238.177 208.436 238.177C208.061 238.177 207.46 237.775 207.235 237.372C207.01 236.889 207.085 236.568 207.535 236.568C207.911 236.568 208.511 236.889 208.737 237.372ZM212.116 238.982C211.29 240.671 210.464 240.993 209.563 240.028C209.337 239.706 209.863 238.982 210.764 238.418C213.017 237.131 213.017 237.131 212.116 238.982ZM376.268 239.545C375.742 240.108 374.315 238.982 374.315 238.016C374.315 237.533 374.766 237.533 375.442 238.177C376.118 238.74 376.418 239.384 376.268 239.545ZM225.182 239.223C224.882 240.269 221.878 242.522 221.878 241.798C221.878 241.154 224.431 238.177 225.032 238.177C225.332 238.177 225.407 238.66 225.182 239.223ZM385.354 241.154C385.129 241.396 384.528 241.315 384.078 240.993C383.477 240.591 383.552 240.108 384.228 239.223C385.129 238.016 385.204 238.097 385.429 239.304C385.579 240.108 385.504 240.913 385.354 241.154ZM208.737 241.476C208.436 241.879 207.61 242.2 206.784 242.2C206.033 242.2 205.358 242.522 205.358 243.005C205.358 243.407 205.057 243.81 204.607 243.81C203.405 243.81 204.607 241.637 206.334 240.832C208.136 239.947 209.413 240.269 208.737 241.476ZM179.075 243.005C179.075 243.407 178.775 243.81 178.324 243.81C177.949 243.81 177.573 243.407 177.573 243.005C177.573 242.522 177.949 242.2 178.324 242.2C178.775 242.2 179.075 242.522 179.075 243.005ZM190.339 244.212C193.042 244.212 196.797 243.89 198.825 243.568C203.63 242.683 203.48 244.212 198.599 245.339C191.616 246.948 180.577 246.224 180.577 244.132C180.577 243.327 181.178 243.166 183.055 243.649C184.332 243.971 187.636 244.212 190.339 244.212ZM347.658 243.729C343.978 244.212 343.978 244.293 346.381 244.936C347.658 245.258 348.784 245.741 348.784 246.063C348.784 247.028 344.729 251.052 343.753 251.052C343.227 251.052 342.777 251.374 342.777 251.857C342.777 252.259 342.476 252.661 342.026 252.661C341.65 252.661 341.275 250.81 341.275 248.638C341.275 245.339 341.5 244.614 342.626 244.534C343.678 244.534 343.678 244.373 342.401 243.81C341.425 243.327 342.626 243.166 346.156 243.166C351.187 243.246 351.262 243.246 347.658 243.729ZM236.145 245.178C234.719 245.821 232.691 246.707 231.64 247.028C229.988 247.511 229.688 247.35 229.688 245.821C229.688 244.212 230.063 244.051 234.268 243.971L238.774 243.89L236.145 245.178ZM316.269 244.293C316.044 244.534 315.368 244.614 314.842 244.373C314.242 244.132 314.467 243.89 315.293 243.89C316.119 243.81 316.569 244.051 316.269 244.293ZM323.628 244.775C324.679 245.258 325.505 245.982 325.505 246.385C325.505 247.27 324.98 247.189 323.102 246.143C321.15 245.017 320.324 245.902 322.126 247.35C323.628 248.557 323.027 250.408 321.375 249.764C320.775 249.523 320.324 249.04 320.399 248.799C320.399 248.477 320.399 248.075 320.249 247.833C318.897 244.051 320.024 243.005 323.628 244.775ZM327.383 245.097C328.359 245.741 329.335 246.868 329.56 247.511C329.786 248.235 328.885 247.833 327.383 246.546C325.956 245.419 324.755 244.293 324.755 244.132C324.755 243.488 325.581 243.81 327.383 245.097ZM375.066 247.431C375.592 248.155 375.817 248.879 375.517 249.201C375.292 249.442 375.066 249.282 375.066 248.799C375.066 248.235 374.541 247.833 373.94 247.833C373.339 247.833 372.814 247.431 372.814 247.028C372.814 245.821 374.015 246.063 375.066 247.431ZM215.495 248.477C215.27 248.718 214.669 248.477 214.143 247.914C213.468 247.109 213.543 247.028 214.594 247.511C215.345 247.753 215.72 248.235 215.495 248.477ZM235.094 249.603L238.774 251.454L235.094 251.696C232.466 251.857 231.039 251.615 230.213 250.649C229.162 249.523 229.162 249.282 230.138 248.638C230.739 248.235 231.34 247.833 231.34 247.833C231.415 247.833 233.067 248.638 235.094 249.603ZM214.744 249.764L216.997 250.81L214.519 250.891C212.867 250.891 212.266 250.649 212.566 250.006C212.942 249.362 212.792 249.362 212.041 250.006C211.515 250.569 210.013 251.052 208.812 251.052L206.484 250.971L208.361 249.845C210.689 248.396 211.816 248.396 214.744 249.764ZM231.34 253.064C233.592 255.478 235.395 257.811 235.395 258.213C235.395 258.616 235.92 259.179 236.596 259.42C237.722 259.903 237.722 259.742 236.821 258.535C236.296 257.731 235.019 256.121 234.043 254.914L232.166 252.742L246.959 252.661C255.069 252.661 261.677 252.903 261.677 253.305C261.677 254.995 260.025 259.903 259.424 259.903C259.124 259.903 257.171 259.179 255.219 258.294C253.267 257.409 251.539 256.765 251.389 256.926C251.239 257.167 252.966 258.053 255.294 259.099C257.547 260.064 259.424 261.191 259.424 261.593C259.424 261.915 258.823 263.524 258.148 265.134C257.171 267.387 256.571 267.87 255.369 267.467C253.867 266.984 253.867 267.065 255.144 268.111C256.345 269.077 256.345 269.318 254.243 271.973L251.99 274.79L245.757 268.352L239.525 261.915L245.382 268.433C249.587 273.1 251.089 275.273 250.713 276.238C250.188 277.848 241.627 284.848 240.276 284.848C239.75 284.848 238.699 283.239 237.948 281.227C237.272 279.216 236.521 277.687 236.371 277.928C236.221 278.089 236.596 279.618 237.197 281.227C237.873 282.917 238.398 284.687 238.398 285.251C238.398 286.458 232.992 289.033 232.316 288.228C232.015 287.906 231.264 285.975 230.514 283.802C229.763 281.71 229.012 280.101 228.862 280.262C228.711 280.503 229.237 282.434 230.063 284.768L231.64 288.872L229.913 289.274C229.012 289.515 225.708 289.757 222.629 289.918L216.997 290.079L216.772 279.457C216.546 269.077 216.621 268.674 218.724 264.168L220.902 259.581L221.878 262.639C222.328 264.249 222.929 265.456 223.154 265.295C223.305 265.053 222.929 263.524 222.253 261.835C221.653 260.225 221.277 258.133 221.578 257.328C221.953 255.88 222.103 255.88 223.305 257.006C224.356 257.972 224.506 259.099 224.206 262.478C223.905 264.812 223.981 269.962 224.206 273.985C224.581 280.986 224.656 281.066 224.807 275.997C224.882 273.1 224.957 268.031 224.882 264.731L224.807 258.696L228.261 262.317C230.213 264.329 232.241 266.984 232.766 268.352C233.292 269.64 233.818 270.203 233.818 269.559C233.893 268.916 236.596 271.169 240.125 274.79L246.283 281.227L239.374 273.583C234.268 267.87 232.09 264.812 230.889 261.593C229.612 258.133 229.537 257.087 230.288 256.604C231.039 256.041 230.964 255.88 229.988 255.88C229.312 255.88 228.411 254.834 227.96 253.466C227.134 250.73 226.008 250.086 226.759 252.822C227.209 254.19 227.059 254.431 226.008 254.029C225.332 253.707 224.431 253.466 224.056 253.466C223.68 253.466 223.38 253.064 223.38 252.581C223.38 252.098 223.905 251.857 224.506 252.178C225.182 252.42 225.633 252.178 225.633 251.454C225.633 250.81 226.008 250.247 226.459 250.247C226.834 250.247 226.984 249.845 226.759 249.442C225.557 247.431 227.66 249.04 231.34 253.064ZM330.011 253.224C330.011 254.753 328.734 254.512 327.758 252.822C326.932 251.535 326.932 251.535 327.308 252.822C327.533 253.627 327.383 254.271 327.007 254.271C325.806 254.271 325.806 251.454 327.007 250.489C327.908 249.684 328.359 249.764 329.11 250.81C329.56 251.535 330.011 252.661 330.011 253.224ZM321 251.052C321 251.454 320.7 251.857 320.249 251.857C319.874 251.857 319.498 251.454 319.498 251.052C319.498 250.569 319.874 250.247 320.249 250.247C320.7 250.247 321 250.569 321 251.052ZM391.587 250.971C391.587 251.857 387.982 251.937 387.457 251.132C387.231 250.649 388.057 250.408 389.334 250.408C390.535 250.489 391.587 250.73 391.587 250.971ZM207.085 254.914C201.978 259.823 201.002 260.628 200.627 260.145C200.402 259.903 199.575 260.145 198.825 260.708C197.623 261.432 197.698 261.513 199.35 261.11C200.777 260.708 199.651 262.237 194.995 267.226C188.912 273.663 188.612 273.905 187.561 272.376C185.608 269.64 181.929 260.708 182.304 259.662C182.68 258.696 196.572 252.983 200.101 252.42C201.152 252.259 203.856 252.017 206.109 252.017L210.239 251.857L207.085 254.914ZM213.468 253.224C213.317 254.029 211.665 255.236 209.488 256.121L205.733 257.57L208.286 254.753C211.065 251.696 213.918 250.81 213.468 253.224ZM215.795 253.546C214.594 254.351 214.068 253.868 214.744 252.742C214.969 252.259 215.57 252.098 216.021 252.339C216.471 252.661 216.396 253.064 215.795 253.546ZM192.442 253.868C192.517 253.949 190.189 254.995 187.26 256.121C184.257 257.328 181.779 258.213 181.703 258.133C181.553 257.972 181.253 256.685 180.953 255.317L180.427 252.661L186.359 253.144C189.588 253.466 192.292 253.788 192.442 253.868ZM221.502 253.385C221.953 252.742 222.178 252.742 222.629 253.385C222.854 253.949 224.131 254.431 225.332 254.512C227.209 254.673 227.735 255.236 229.237 259.018C230.138 261.432 230.889 263.605 230.889 263.846C230.889 264.088 229.537 262.8 227.885 261.11C226.233 259.34 225.032 257.489 225.182 256.926C225.407 256.363 225.107 256.121 224.506 256.443C223.905 256.685 223.154 256.282 222.929 255.558C222.404 254.029 221.352 253.868 221.352 255.236C221.352 255.799 220.301 258.616 219.1 261.513C213.242 274.87 211.14 280.744 214.369 274.388L215.795 271.571L215.871 280.584C215.871 290.964 216.021 290.803 208.737 288.469C202.579 286.538 201.453 285.653 201.903 283.239C202.354 281.227 202.354 281.227 201.378 282.998L200.402 284.848L197.623 282.837C196.121 281.71 194.845 280.584 194.845 280.342C194.845 279.537 207.085 267.548 207.761 267.709C208.061 267.87 208.361 267.628 208.361 267.226C208.361 266.743 209.938 264.892 211.816 262.961C216.621 258.213 218.123 256.443 217.823 256.041C217.673 255.88 216.096 257.409 214.294 259.42C212.566 261.513 210.99 263.042 210.839 262.881C210.689 262.72 211.215 260.949 212.041 258.938C213.092 256.202 214.068 255.075 215.795 254.431C217.898 253.627 218.198 253.707 219.175 255.719C220.226 257.731 220.301 257.731 220.151 256.041C220.076 255.075 219.775 254.271 219.475 254.271C219.175 254.271 218.874 253.868 218.874 253.385C218.874 252.742 219.175 252.742 219.926 253.385C220.752 254.11 221.127 254.11 221.502 253.385ZM320.324 253.466C322.051 254.512 322.276 258.455 320.7 259.823C319.273 261.11 315.593 260.628 315.143 259.099C314.842 258.133 314.992 258.053 315.819 258.857C317.395 260.547 319.498 260.064 320.399 257.811C321.15 256.041 321.15 255.558 319.874 254.592C319.123 253.949 317.696 253.707 316.569 253.949C315.068 254.271 314.842 254.19 315.743 253.546C317.17 252.42 318.447 252.42 320.324 253.466ZM391.587 253.385C391.587 254.351 389.409 255.236 388.508 254.592C387.156 253.788 387.832 252.661 389.709 252.661C390.761 252.661 391.587 252.983 391.587 253.385ZM409.984 256.765C414.715 259.018 418.62 261.271 418.62 261.674C418.62 263.283 416.292 267.145 415.316 267.145C414.715 267.145 411.486 265.858 408.032 264.329C404.653 262.72 401.724 261.593 401.574 261.754C401.424 261.915 404.352 263.444 408.107 265.134C411.862 266.824 415.091 268.433 415.241 268.755C415.391 269.077 414.565 270.525 413.364 272.054L411.186 274.79L405.554 268.352C402.55 264.812 400.147 261.754 400.222 261.513C400.373 261.271 399.471 260.467 398.27 259.742C397.068 258.938 396.092 258.455 396.092 258.535C396.092 258.616 399.321 262.317 403.226 266.743C407.131 271.169 410.36 275.192 410.36 275.675C410.36 276.077 409.309 277.526 408.107 278.813L405.854 281.147L398.721 273.18C394.816 268.755 391.662 264.651 391.587 264.088C391.587 263.524 391.211 263.283 390.761 263.524C390.235 263.927 390.385 264.57 391.136 265.456C391.812 266.26 392.338 267.306 392.338 267.789C392.338 268.272 392.788 268.755 393.314 268.916C393.764 269.077 396.693 271.893 399.697 275.273L405.178 281.469L402.625 283.158C401.199 284.044 399.697 284.848 399.246 284.848C398.796 284.848 397.744 282.434 396.843 279.537C395.942 276.641 395.041 274.468 394.891 274.629C394.666 274.79 395.341 277.365 396.393 280.342C398.345 286.216 398.42 286.055 393.614 287.987C391.812 288.711 391.662 288.55 388.208 278.813C385.654 271.33 384.828 267.95 384.979 265.375C385.129 262.961 385.504 261.915 386.33 261.915C386.931 261.915 387.382 262.559 387.382 263.363C387.306 264.329 387.682 264.731 388.508 264.57C389.259 264.409 390.01 263.042 390.385 260.869C390.911 258.535 391.437 257.57 392.187 257.892C392.788 258.133 392.938 257.892 392.638 257.328C392.263 256.685 392.638 256.604 393.84 256.926C395.116 257.248 395.341 257.167 394.666 256.443C394.215 255.96 393.84 254.914 393.84 254.11C393.84 252.903 394.515 252.661 397.594 252.661C400.448 252.661 403.301 253.627 409.984 256.765ZM420.497 255.639C420.272 257.328 419.671 259.018 419.371 259.42C418.77 260.064 404.352 253.788 404.352 252.983C404.352 252.822 408.107 252.661 412.688 252.661H421.023L420.497 255.639ZM373.565 254.271C373.565 255.075 372.213 255.799 368.308 257.087L366.431 257.65L368.233 255.558C370.035 253.546 373.565 252.661 373.565 254.271ZM365.68 256.685C364.478 257.972 362.901 259.26 362.151 259.581C361.4 259.823 360.949 260.306 361.174 260.708C361.324 261.03 358.771 264.168 355.392 267.548L349.31 273.824L347.508 271.491C345.48 268.674 345.33 267.548 347.132 266.341C348.183 265.697 348.033 265.617 346.456 266.019C344.729 266.421 344.354 266.099 343.603 263.846C342.176 259.42 342.251 259.34 349.76 258.857C355.392 258.455 356.894 258.053 357.87 256.765C358.621 255.799 360.273 255.075 362 254.834C368.308 254.19 368.008 254.029 365.68 256.685ZM376.343 256.443C376.869 257.972 372.288 262.559 371.087 261.754C370.636 261.513 370.561 261.593 370.786 262.076C371.462 263.283 358.546 276.158 357.27 275.595C356.669 275.353 354.566 275.192 352.689 275.192H349.16L356.744 267.306C365.229 258.616 365.98 257.972 367.557 257.811C368.158 257.731 369.66 257.409 370.861 257.087C372.814 256.524 372.889 256.604 372.138 258.133C371.687 259.018 371.312 260.064 371.312 260.467C371.387 260.788 372.063 259.742 372.889 258.053C374.466 254.834 375.592 254.271 376.343 256.443ZM210.464 260.869C209.037 264.088 206.784 266.984 201.678 271.973C197.848 275.755 194.319 278.894 193.718 279.055C193.193 279.216 191.991 278.169 191.09 276.802L189.363 274.227L196.271 266.824C201.903 260.788 204.006 259.099 207.46 257.731C209.788 256.846 211.891 256.202 212.041 256.363C212.116 256.443 211.44 258.535 210.464 260.869ZM308.309 262.317C308.685 262.317 308.835 261.352 308.535 260.064L308.084 257.892L309.285 259.662C310.487 261.352 310.487 261.593 309.135 263.122L307.709 264.731L306.883 262.72C306.357 261.593 305.981 259.984 306.057 259.26C306.057 258.455 306.432 258.777 306.883 260.064C307.258 261.352 307.934 262.317 308.309 262.317ZM313.491 258.616C313.491 259.501 312.064 259.823 311.613 259.099C311.388 258.696 311.688 258.294 312.289 258.294C312.965 258.294 313.491 258.455 313.491 258.616ZM327.308 260.306C327.007 260.949 326.707 261.513 326.557 261.513C326.407 261.513 326.256 260.949 326.256 260.306C326.256 259.662 326.557 259.099 327.007 259.099C327.383 259.099 327.533 259.662 327.308 260.306ZM330.011 259.501C330.011 260.386 328.209 263.927 327.758 263.927C326.557 263.927 326.407 262.8 327.533 261.03C328.509 259.34 330.011 258.455 330.011 259.501ZM376.118 264.088C376.118 268.433 375.517 270.364 372.138 277.928C370.035 282.756 368.383 286.78 368.533 286.94C368.684 287.101 369.585 285.412 370.561 283.239C371.988 280.02 372.663 279.216 373.865 279.377C375.292 279.618 375.442 280.181 375.442 284.848C375.442 289.998 375.367 290.079 373.565 289.837C371.387 289.515 366.581 287.906 363.577 286.377C362.151 285.653 361.625 285.009 362 284.124C362.226 283.4 362.826 281.871 363.202 280.584C363.878 278.652 364.328 278.411 367.407 278.33L370.936 278.25L368.158 277.445C366.581 276.962 365.304 276.399 365.304 275.997C365.304 273.502 369.735 265.456 372.739 262.559C374.616 260.708 376.193 259.179 376.193 259.099C376.193 259.099 376.193 261.352 376.118 264.088ZM320.624 262.317C320.85 262.72 320.7 263.122 320.324 263.122C319.874 263.122 319.498 262.72 319.498 262.317C319.498 261.835 319.648 261.513 319.798 261.513C320.024 261.513 320.399 261.835 320.624 262.317ZM384.002 264.973C383.777 268.594 384.078 273.02 384.603 272.456C384.904 272.215 386.405 275.675 387.982 280.181C389.559 284.687 390.611 288.63 390.31 288.952C389.935 289.274 388.433 289.837 386.931 290.079L384.078 290.642V284.205C384.078 280.584 384.453 277.445 384.828 277.204C385.279 276.882 384.678 275.353 383.402 273.341C380.248 268.272 378.596 264.651 379.347 263.927C380.098 263.122 382.801 262.478 383.552 262.961C383.927 263.122 384.078 264.088 384.002 264.973ZM322.802 265.617C322.577 266.019 321.901 266.341 321.3 266.341C320.7 266.341 320.399 266.743 320.624 267.145C320.925 267.709 321.601 267.628 322.577 267.065C324.229 266.18 325.505 266.743 324.304 267.87C323.928 268.272 322.727 268.755 321.601 269.077C319.648 269.559 319.498 269.398 319.498 267.306C319.498 266.019 319.723 264.812 319.949 264.57C320.549 263.846 323.253 264.812 322.802 265.617ZM315.518 266.824C314.992 267.387 312.74 266.26 312.74 265.456C312.74 264.973 313.416 265.053 314.317 265.536C315.143 266.099 315.743 266.663 315.518 266.824ZM315.743 268.916C315.743 269.72 315.668 269.72 312.89 268.674C311.538 268.191 310.637 267.467 310.862 267.145C311.313 266.341 315.743 268.031 315.743 268.916ZM365.755 272.698C364.253 275.836 363.352 276.802 362 276.802C361.099 276.802 360.123 276.56 359.823 276.319C359.372 275.836 366.956 267.87 367.407 268.352C367.557 268.513 366.806 270.445 365.755 272.698ZM378.821 272.376C378.821 272.939 378.295 274.629 377.695 276.077L376.643 278.813L376.568 274.066C376.568 269.962 376.718 269.479 377.695 270.364C378.295 270.927 378.821 271.813 378.821 272.376ZM375.817 275.192C375.817 277.848 375.592 278.411 374.315 278.411C373.489 278.411 372.814 278.25 372.814 278.009C372.814 277.445 375.292 271.973 375.592 271.973C375.742 271.973 375.817 273.422 375.817 275.192ZM356.218 277.284C356.444 277.526 356.068 278.169 355.467 278.813C354.491 279.94 354.116 279.779 352.464 277.928L350.661 275.836L353.29 276.399C354.716 276.721 356.068 277.123 356.218 277.284ZM363.052 278.411C363.052 278.894 362.526 280.584 361.925 282.112L360.799 285.009L358.546 283.239C355.617 280.986 355.242 280.181 356.293 278.813C357.345 277.445 363.052 277.123 363.052 278.411ZM383.026 289.355C382.801 290.079 381.449 290.481 379.572 290.481H376.568V285.331V280.101L379.797 279.859L382.951 279.618L383.176 283.963C383.327 286.377 383.251 288.791 383.026 289.355Z" fill="#C69C6E"/>
</svg>
