<svg width="734" height="288" viewBox="0 0 734 288" fill="none" xmlns="http://www.w3.org/2000/svg">
<path d="M74.9249 21.6077C67.8092 21.6203 61.8746 26.0417 61.8746 28.8306C61.8746 32.7107 61.8713 35.3044 67.3408 35.3044C72.8103 35.3044 71.9485 33.2535 78.074 33.2535C84.1995 33.2535 87.0339 35.948 87.0339 38.2114C87.0339 38.3074 87.0409 38.4138 87.052 38.5145C86.0098 38.8744 84.8301 39.361 83.2147 40.0483C78.2204 42.1729 73.6855 46.2925 69.8569 50.9273C66.0284 55.562 67.0278 61.1682 67.7935 63.1079C68.5592 65.0476 72.2642 66.4623 74.7802 66.2468C74.8742 66.2387 74.9618 66.2254 75.0517 66.2111C74.9049 67.4768 74.7055 69.2183 74.563 70.9728C74.2646 74.6512 61.4495 89.2981 60.1368 92.9625C59.7128 94.1464 60.1901 95.3122 61.2047 96.4402C60.166 97.8925 59.2716 99.2623 58.5983 100.506C55.189 106.805 53.1594 118 50.9602 126.384L41.4211 126.063L37.0408 130.361L34.6878 145.645C31.8396 147.608 29.5345 149.261 29.1129 150.139C28.9274 150.526 28.8969 151.333 29.0405 152.422C15.6716 162.554 8.7429 171.01 7.73642 173.805C6.53314 177.146 9.59446 211.642 10.4695 212.719C11.3446 213.797 12.2245 211.748 12.3338 210.454C12.4432 209.161 10.9125 188.896 12.2252 188.465C13.5379 188.033 15.931 194.724 16.5874 199.789C17.2438 204.855 17.2398 205.498 14.6145 215.091C11.9891 224.683 5.20895 234.057 4.33342 237.829C3.45788 241.602 5.00473 260.794 4.78592 264.028C4.56711 267.261 2.81772 271.02 2.16139 275.762C1.50507 280.504 3.25373 283.316 2.3786 284.394C1.50346 285.472 0.840088 287.515 0.840088 287.515H18.2342C18.2342 287.515 18.2374 286.327 17.7998 285.357C17.3623 284.387 13.8619 283.102 12.768 281.701C11.6741 280.3 10.7974 273.717 10.4692 270.483C10.141 267.25 12.4366 248.608 13.2023 247.637C13.968 246.667 15.1729 241.375 15.5011 239.22C15.8293 237.065 24.3555 221.438 26.4336 219.067C27.4409 217.918 29.8721 216.186 32.8592 214.252C33.3805 217.774 33.8101 221.248 33.7642 222.741C33.6548 226.298 33.5462 233.199 31.1396 237.294C28.7331 241.39 27.7533 248.39 27.9721 250.439C28.1908 252.487 33.7657 258.85 36.063 262.298C38.3602 265.747 41.7606 275.234 42.3076 276.851C42.8545 278.468 43.0678 283.735 43.0678 283.735C41.6457 285.352 40.9862 287.516 40.9862 287.516H57.2762C57.2762 287.516 56.9567 286.116 56.0816 284.93C55.2065 283.745 52.9085 282.232 51.1583 280.507C49.4081 278.783 45.5882 270.275 44.9318 267.149C44.2755 264.024 42.7425 250.756 42.6331 248.816C42.5237 246.876 42.0877 239.45 42.4159 237.402C42.7441 235.355 47.9821 220.904 49.1857 216.162C49.8972 213.357 51.1085 207.925 52.0455 202.964C57.6159 200.03 63.2483 197.418 65.0593 197.418C67.9035 197.418 76.3162 202.258 86.5986 206.246C96.8809 210.234 110.994 210.889 114.057 214.985C117.12 219.081 109.136 240.849 108.808 242.682C108.48 244.514 106.298 247.642 105.423 249.797C104.548 251.953 105.41 263.058 104.753 266.615C104.097 270.171 101.485 281.691 100.391 283.201C99.2973 284.71 99.0698 287.516 99.0698 287.516H116.247C116.247 287.516 115.924 286.974 115.595 285.572C115.267 284.171 112.636 283.639 111.432 282.237C110.229 280.836 112.203 273.938 113.297 267.471C114.391 261.004 118.757 255.287 119.632 253.239C120.507 251.192 120.067 249.793 119.958 245.482C119.863 241.742 126.102 231.599 132.899 221.869C137.222 227.778 144.292 240.922 144.682 241.594C145.12 242.348 147.102 248.714 147.868 250.654C148.634 252.594 152.786 257.45 153.552 259.714C154.317 261.978 156.503 271.564 156.393 272.858C156.284 274.152 157.592 282.339 157.045 283.309C156.498 284.279 155.524 287.518 155.524 287.518H172.467C172.467 287.518 172.578 286.756 172.141 286.002C171.703 285.247 168.868 284.062 168.43 283.523C167.993 282.984 165.805 275.87 163.398 271.128C160.992 266.385 160.215 257.444 159.887 255.612C159.559 253.779 160.544 247.96 159.778 245.696C159.013 243.433 156.168 239.123 154.746 238.045C153.324 236.968 153.653 234.052 149.606 226.399C147.184 221.821 145.285 212.513 144.14 205.729C148.039 199.85 150.829 195.366 151.579 194.493C152.782 193.092 159.675 191.259 166.566 189.75C173.458 188.241 184.726 179.418 186.585 177.693C188.444 175.969 188.657 176.065 195.002 162.053C199.711 151.652 200.933 140.553 201.246 135.516C205.033 135.461 209.302 134.965 212.613 133.394C221.474 129.19 221.349 124.35 223.346 124.548C225.534 124.764 231.542 125.203 232.089 123.371C232.289 122.699 230.817 121.595 228.867 120.482C230.488 118.849 232.241 116.902 232.414 115.934C232.743 114.102 224.101 109.57 222.242 109.246C220.383 108.923 211.518 112.048 207.798 111.832C204.079 111.617 195.664 109.035 194.133 108.711C192.601 108.388 188.441 111.617 187.019 111.832C185.598 112.048 185.054 110.964 183.96 110.21C182.867 109.455 179.908 109.469 179.58 110.762C179.58 110.762 179.796 115.382 180.015 117.754C180.233 120.125 176.952 122.717 174.983 124.441C173.433 125.798 175.743 129.1 177.119 132.752L145.027 126.76C144.897 125.387 144.601 123.393 143.922 122.39C143.3 121.47 140.498 121.058 138.185 120.857C138.442 119.78 138.38 119.133 137.696 118.627C137.162 118.233 127.438 117.396 119.704 116.773C119.681 116.669 119.662 116.557 119.632 116.469C118.866 114.206 109.355 106.759 106.292 103.094C103.229 99.4286 100.601 86.7133 96.6622 80.4622C95.8894 79.2354 95.0155 78.2183 94.092 77.359C94.1276 76.1861 94.1589 75.121 94.2006 74.9157C94.2716 74.5659 93.8594 72.983 93.6576 71.8304C94.0255 71.8568 94.3014 71.8694 94.5264 71.7948C94.8537 71.6861 95.8422 71.7405 96.5536 71.8482C97.2651 71.956 97.9804 71.7971 98.4722 71.5272C98.9641 71.2573 99.6249 71.3242 100.065 70.9387C100.557 70.5076 100.66 69.9609 100.988 69.4763C101.316 68.9917 100.61 68.3396 100.337 67.6929C100.063 67.0462 100.246 65.8559 100.246 65.856L100.409 65.2496C100.409 65.2496 99.9046 64.9645 99.3953 64.8929C99.4075 64.8901 99.4577 64.8701 99.5582 64.8394C99.971 64.7348 100.3 64.5541 100.3 64.5541C100.3 64.5541 100.948 64.1276 100.934 63.9655C100.901 63.5861 100.748 62.7114 100.174 62.2534C100.174 62.2534 100.876 62.0945 101.368 61.8789C101.861 61.6634 102.166 61.2059 102.002 60.5592C101.837 59.9125 99.8148 58.2081 99.3772 57.777C98.9396 57.3459 99.0695 56.5999 99.0695 56.5999L98.8523 56.0471L99.0695 55.6726L98.6351 54.6561L99.0695 54.014C99.0695 54.014 99.0168 52.7726 98.798 51.8026C98.6532 51.1603 98.1954 50.1173 97.8387 49.3415C98.8846 48.4698 99.638 45.2785 99.9383 44.6867C100.266 44.0401 99.7219 42.9607 99.6125 42.4218C99.5031 41.8829 99.6156 41.7713 99.1781 40.4778C98.7615 39.2466 96.2661 37.5218 93.8566 37.4638C90.6575 33.011 90.589 28.1831 83.5397 23.9815C80.676 22.2747 77.7084 21.6046 74.9237 21.6095L74.9249 21.6077ZM137.171 126.399C139.147 126.878 141.359 127.522 141.298 128.004C141.189 128.866 140.639 129.82 141.733 130.144C142.7 130.43 144.527 128.783 144.955 128.378L177.77 134.763C177.848 135.094 177.905 135.43 177.951 135.761C178.608 140.504 174.984 157.089 164.81 159.891C154.637 162.694 149.069 153.218 145.787 148.691C142.505 144.164 139.336 136.616 137.805 134.245C137.46 133.711 136.975 133.236 136.393 132.783C136.588 131.045 136.876 128.629 137.171 126.398V126.399Z" fill="#C69C6E"/>
<path d="M322.036 18.1867C321.551 18.1845 321.038 18.1805 320.509 18.206C314.715 18.4857 311.024 22.5578 309.603 26.0772C308.603 26.412 307.615 26.987 306.725 27.9099C304.479 30.2343 304.877 34.5282 305.491 36.0513C305.889 37.0364 307.101 37.4686 308.154 37.7876C308.033 39.7264 307.971 41.8615 308.037 43.6908C308.164 47.2501 310.656 51.0036 309.564 53.7226C307.924 57.8033 297.259 65.608 293 81.464C292.415 83.6414 294.025 84.6803 296.465 85.6696C296.264 86.8604 296.122 88.0637 296.074 89.2771C296.002 91.0798 295.52 92.9382 294.742 94.8332L291.707 94.0615L282.701 96.8588L281.232 100.814H278.217L268.623 115.726L264.022 118.08L263.709 123.385L260.223 128.806L261.809 136.716C260.661 137.526 259.808 138.216 259.519 138.819C259.391 139.084 259.311 139.544 259.303 140.13C243.777 151.626 235.781 161.343 234.653 164.477C233.351 168.091 236.663 205.406 237.609 206.572C238.556 207.737 239.507 205.521 239.626 204.122C239.744 202.723 238.088 180.801 239.508 180.335C240.928 179.868 243.517 187.105 244.227 192.585C244.937 198.066 244.952 198.761 242.113 209.138C239.273 219.515 231.938 229.654 230.991 233.735C230.045 237.815 231.698 258.577 231.461 262.074C231.224 265.572 229.332 269.638 228.622 274.769C227.912 279.899 229.804 282.94 228.857 284.106C227.91 285.271 227.193 287.482 227.193 287.482H246.009C246.009 287.482 246.012 286.197 245.539 285.148C245.066 284.098 241.279 282.708 240.096 281.193C238.913 279.677 237.964 272.556 237.609 269.058C237.254 265.561 239.737 245.395 240.566 244.345C241.394 243.296 242.697 237.571 243.052 235.24C243.407 232.908 252.63 216.005 254.879 213.44C255.966 212.2 258.608 210.336 261.829 208.251C262.392 212.053 262.858 215.802 262.808 217.414C262.69 221.262 262.573 228.726 259.969 233.157C257.366 237.588 256.306 245.16 256.543 247.375C256.78 249.59 262.81 256.473 265.295 260.204C267.78 263.934 271.458 274.197 272.05 275.946C272.641 277.695 272.872 283.393 272.872 283.393C271.334 285.142 270.621 287.483 270.621 287.483H288.262C288.262 287.483 287.896 285.968 286.95 284.686C286.003 283.403 283.517 281.767 281.624 279.901C279.731 278.036 275.599 268.833 274.889 265.451C274.179 262.07 272.521 247.718 272.402 245.62C272.284 243.521 271.812 235.488 272.167 233.273C272.522 231.058 278.188 215.426 279.49 210.296C280.26 207.263 281.57 201.386 282.584 196.02C288.609 192.846 294.702 190.02 296.661 190.02C299.738 190.02 308.838 195.256 319.961 199.57C331.085 203.884 346.351 204.593 349.664 209.023C352.977 213.453 344.341 237.001 343.986 238.983C343.631 240.965 341.271 244.349 340.324 246.68C339.378 249.012 340.329 261.025 339.62 264.873C338.91 268.721 336.065 281.182 334.881 282.814C333.698 284.447 333.452 287.483 333.452 287.483H352.033C352.033 287.483 351.683 286.896 351.328 285.38C350.973 283.864 348.127 283.288 346.825 281.772C345.523 280.257 347.658 272.794 348.842 265.799C350.025 258.804 354.767 252.62 355.714 250.404C356.661 248.188 356.185 246.676 356.067 242.012C355.964 237.968 362.717 227.01 370.066 216.489C374.744 222.892 382.372 237.08 382.793 237.807C383.266 238.623 385.41 245.508 386.239 247.607C387.067 249.705 391.558 254.959 392.387 257.407C393.215 259.855 395.579 270.225 395.461 271.625C395.343 273.024 396.757 281.88 396.166 282.93C395.574 283.979 394.521 287.483 394.521 287.483H412.867C412.867 287.483 412.968 286.659 412.495 285.843C412.022 285.027 408.954 283.744 408.481 283.161C408.008 282.578 405.641 274.884 403.038 269.753C400.435 264.623 399.614 254.951 399.259 252.969C398.904 250.987 399.95 244.691 399.122 242.243C398.294 239.795 395.217 235.132 393.679 233.967C392.141 232.801 392.496 229.647 388.118 221.369C385.499 216.416 383.445 206.347 382.205 199.01C386.423 192.65 389.441 187.8 390.252 186.856C391.554 185.34 399.01 183.356 406.464 181.724C413.919 180.092 426.108 170.549 428.119 168.683C430.131 166.817 430.38 166.921 437.243 151.764C442.337 140.513 443.64 128.506 443.979 123.058C448.075 122.999 452.712 122.461 456.294 120.762C465.879 116.215 465.724 110.979 467.885 111.193C470.252 111.426 476.751 111.902 477.342 109.92C477.559 109.193 475.966 107.999 473.857 106.794C475.611 105.028 477.507 102.922 477.695 101.875C478.05 99.893 468.703 94.9904 466.691 94.6406C464.679 94.2908 455.109 97.6711 451.086 97.4379C447.063 97.2047 437.94 94.4116 436.284 94.0618C434.627 93.712 430.127 97.2047 428.589 97.4379C427.051 97.6711 426.463 96.4984 425.28 95.6823C424.097 94.8662 420.897 94.8813 420.542 96.2804C420.542 96.2804 420.795 101.278 421.031 103.843C421.268 106.408 417.718 109.212 415.588 111.077C413.912 112.546 416.411 116.115 417.899 120.067L383.184 113.585C383.043 112.1 382.704 109.943 381.97 108.859C381.296 107.863 378.266 107.417 375.763 107.199C376.041 106.035 375.974 105.334 375.234 104.788C374.657 104.361 364.138 103.456 355.772 102.782C355.747 102.669 355.726 102.548 355.694 102.454C354.865 100.005 344.577 91.9489 341.264 87.9847C338.658 84.8679 336.434 73.8393 333.53 65.9726C333.862 65.9852 334.134 65.9582 334.195 65.8376C334.372 65.4887 336.503 65.0264 336.917 65.0852C337.331 65.1439 338.327 64.3932 338.386 64.0434C338.444 63.6937 339.029 62.8096 339.325 62.7509C339.622 62.6922 340.049 62.1177 340.167 61.7092C340.286 61.3007 340.812 60.0727 340.872 59.6063C340.932 59.14 340.048 58.3163 340.285 58.0244C340.521 57.7325 339.582 54.4764 339.404 54.1853C339.226 53.8943 338.466 53.8993 338.288 53.433C338.166 53.114 337.677 52.0816 336.741 51.2916C336.662 50.6209 336.663 50.0183 336.663 50.0183L336.623 49.3817L336.525 49.3431L335.997 49.1116L336.486 48.938C336.486 48.938 336.913 48.6117 336.897 48.4364C336.862 48.026 336.696 46.1343 336.075 45.639C336.102 45.6299 336.671 45.4231 337.191 45.1954C337.724 44.9622 338.593 44.7392 338.346 43.98C337.683 41.9392 335.902 40.2986 335.429 39.8323C334.956 39.3659 334.94 38.694 334.94 38.694L334.665 38.3082L334.822 37.8645L334.548 37.0542C334.548 37.0542 335.362 36.3671 335.312 35.9353C335.193 34.9205 335.075 35.1141 334.94 33.8904C334.913 33.6516 334.806 33.3443 334.685 33.0029C335.195 32.9691 335.645 32.9545 335.938 33.0029C336.999 33.1783 338.114 31.2368 338.17 30.4757C338.226 29.7146 337.491 25.2064 335.312 23.8587C334.873 23.5874 333.701 23.4223 332.433 23.3957C330.61 20.1709 327.817 18.213 322.036 18.1869L322.036 18.1867ZM374.666 113.202C376.803 113.721 379.196 114.418 379.13 114.938C379.012 115.871 378.417 116.903 379.6 117.253C380.643 117.561 382.612 115.791 383.085 115.343L418.563 122.25C418.648 122.61 418.729 122.97 418.779 123.33C419.489 128.46 415.569 146.401 404.564 149.432C393.559 152.464 387.536 142.214 383.985 137.317C380.435 132.42 377.007 124.256 375.35 121.691C374.977 121.113 374.453 120.599 373.823 120.109C374.034 118.229 374.346 115.615 374.665 113.202L374.666 113.202Z" fill="#C69C6E"/>
<path d="M567.871 0.676366C566.934 0.679947 566.069 0.827238 564.826 0.980355C562.837 1.22533 559.423 3.73139 558.614 4.46633C557.806 5.20127 556.127 7.59011 553.019 10.0399C552.717 10.2778 552.504 10.5159 552.361 10.7492L548.247 9.61431L555.652 19.9708H555.837C555.395 22.0163 554.872 24.6512 554.727 26.7605C554.468 30.5056 555.345 33.3255 555.097 36.3872C554.758 40.5674 537.685 49.9768 536.193 54.1412C535.557 55.9162 536.29 58.3699 537.777 60.8699C535.676 64.4413 534.145 68.2687 533.828 72.1385C533.186 79.9751 531.145 90.5902 527.492 99.4384L523.769 99.337L515.439 102.276L511.654 119.665C507.405 124.415 503.487 129.732 502.706 131.359C502.477 131.837 502.339 132.818 502.356 134.136C487.322 145.569 479.531 155.095 478.393 158.254C477.025 162.051 480.504 201.253 481.499 202.477C482.493 203.702 483.493 201.373 483.617 199.904C483.742 198.434 482.002 175.404 483.494 174.914C484.986 174.424 487.726 182.027 488.472 187.784C489.218 193.541 489.213 194.272 486.23 205.173C483.246 216.075 475.541 226.727 474.546 231.014C473.551 235.301 475.288 257.112 475.04 260.787C474.791 264.462 472.803 268.733 472.057 274.123C471.311 279.513 473.298 282.708 472.304 283.933C471.309 285.158 470.555 287.48 470.555 287.48H490.323C490.323 287.48 490.326 286.13 489.829 285.027C489.332 283.925 485.354 282.465 484.111 280.872C482.868 279.28 481.871 271.799 481.498 268.124C481.125 264.45 483.734 243.264 484.604 242.162C485.475 241.06 486.844 235.046 487.217 232.596C487.59 230.146 497.279 212.389 499.641 209.694C500.783 208.391 503.559 206.433 506.943 204.242C507.534 208.237 508.024 212.176 507.972 213.869C507.847 217.911 507.724 225.752 504.989 230.407C502.254 235.062 501.141 243.017 501.389 245.344C501.638 247.671 507.973 254.902 510.584 258.822C513.194 262.742 517.059 273.523 517.68 275.36C518.302 277.198 518.544 283.183 518.544 283.183C516.928 285.021 516.179 287.48 516.179 287.48H534.712C534.712 287.48 534.329 285.889 533.334 284.541C532.34 283.194 529.728 281.475 527.739 279.515C525.75 277.555 521.409 267.887 520.663 264.335C519.917 260.783 518.175 245.705 518.051 243.5C517.927 241.295 517.431 232.856 517.804 230.529C518.177 228.202 524.15 211.78 525.518 206.39C526.326 203.203 527.682 197.03 528.747 191.392C535.078 188.057 541.478 185.089 543.537 185.089C546.769 185.089 556.329 190.59 568.015 195.122C579.7 199.654 595.738 200.398 599.219 205.053C602.7 209.707 593.627 234.446 593.254 236.528C592.881 238.61 590.402 242.165 589.407 244.615C588.413 247.065 589.413 259.684 588.667 263.727C587.921 267.769 584.932 280.861 583.689 282.575C582.446 284.29 582.187 287.48 582.187 287.48H601.708C601.708 287.48 601.34 286.863 600.967 285.271C600.594 283.678 597.604 283.073 596.236 281.481C594.869 279.889 597.112 272.049 598.355 264.699C599.598 257.35 604.58 250.853 605.575 248.526C606.569 246.199 606.069 244.609 605.945 239.71C605.837 235.462 612.931 223.95 620.653 212.896C625.567 219.623 633.601 234.528 634.044 235.292C634.541 236.149 636.773 243.383 637.643 245.587C638.514 247.791 643.232 253.311 644.102 255.883C644.973 258.455 647.456 269.35 647.332 270.819C647.207 272.289 648.694 281.594 648.072 282.696C647.451 283.798 646.344 287.479 646.344 287.479H665.618C665.618 287.479 665.724 286.614 665.227 285.756C664.73 284.899 661.508 283.552 661.01 282.939C660.513 282.327 658.027 274.243 655.292 268.853C652.557 263.464 651.695 253.303 651.322 251.221C650.949 249.138 652.069 242.524 651.199 239.952C650.329 237.38 647.096 232.482 645.48 231.257C643.864 230.033 644.238 226.719 639.638 218.023C636.884 212.815 634.728 202.223 633.426 194.512C637.85 187.843 641.009 182.755 641.86 181.764C643.227 180.172 651.06 178.088 658.892 176.373C666.724 174.658 679.529 164.632 681.642 162.673C683.756 160.713 684.017 160.821 691.228 144.898C696.58 133.079 697.948 120.465 698.303 114.74C702.607 114.678 707.478 114.114 711.242 112.328C721.311 107.551 721.148 102.051 723.419 102.275C725.905 102.52 732.733 103.02 733.354 100.938C733.582 100.174 731.909 98.9193 729.693 97.6542C731.536 95.7983 733.528 93.5855 733.725 92.4861C734.098 90.4038 724.277 85.2535 722.164 84.8857C720.051 84.5179 709.997 88.0694 705.77 87.8245C701.543 87.5796 691.959 84.6451 690.219 84.2777C688.479 83.9103 683.752 87.5796 682.136 87.8245C680.52 88.0694 679.903 86.8376 678.659 85.9802C677.416 85.1228 674.055 85.1386 673.682 86.6085C673.682 86.6085 673.947 91.8585 674.196 94.5535C674.444 97.2484 670.715 100.194 668.477 102.154C666.716 103.696 669.342 107.446 670.905 111.598L634.434 104.789C634.287 103.229 633.93 100.962 633.159 99.8232C632.452 98.7789 629.287 98.3089 626.659 98.0802C626.951 96.8573 626.86 96.1208 626.083 95.5468C625.477 95.0987 614.443 94.147 605.657 93.439C605.631 93.3198 605.609 93.1946 605.575 93.0944C604.705 90.5222 593.999 83.7809 590.518 79.6165C587.037 75.4521 586.046 59.9073 581.571 52.8025C581.553 52.7746 581.527 52.7493 581.509 52.7214C581.971 52.9582 582.337 53.1497 582.496 53.2281C583.118 53.5339 584.73 54.3442 585.232 54.4441C586.165 54.6284 587.96 55.1932 588.893 55.3764C589.826 55.5597 591.194 55.0549 591.629 54.7482C592.064 54.4415 592.942 53.7789 593.501 53.4105C594.06 53.0421 593.489 52.4263 592.246 51.2622C591.003 50.0981 586.966 45.5749 586.096 44.4116C585.226 43.2482 584.163 39.3756 584.101 37.9666C584.038 36.5576 583.916 34.2982 583.916 34.2982L583.319 33.224L583.628 33.0416L583.689 31.8256C583.689 31.8256 583.588 30.8835 583.175 30.6298C583.296 30.4113 583.578 30.0096 584.121 29.9204C584.726 29.8205 585.5 29.4798 585.314 28.7449C585.128 28.01 582.911 25.5462 582.414 25.0562C581.917 24.5663 581.427 24.1239 581.427 24.1239L580.995 23.0498L581.262 22.8065L581.015 22.0161L581.077 21.246C581.077 21.246 580.77 20.7665 580.522 19.6651C580.289 18.6363 579.717 17.2252 579.637 17.0304C579.856 16.9813 580.213 16.9088 580.213 16.9088L584.409 5.09266L580.851 7.05858C580.162 6.10964 578.306 4.254 577.025 3.43074C575.596 2.51255 574.769 2.27539 573.713 2.15388C572.657 2.03238 571.286 1.15173 569.743 0.856793C569.02 0.71899 568.433 0.672231 567.871 0.674387L567.871 0.676366ZM625.486 104.383C627.731 104.928 630.245 105.66 630.176 106.207C630.052 107.187 629.427 108.271 630.67 108.639C631.765 108.963 633.834 107.102 634.331 106.632L671.603 113.888C671.692 114.266 671.777 114.645 671.83 115.023C672.575 120.412 668.478 139.26 656.917 142.445C645.356 145.63 639.007 134.861 635.277 129.717C631.548 124.572 627.947 115.995 626.206 113.3C625.814 112.693 625.263 112.153 624.601 111.638C624.823 109.664 625.15 106.918 625.486 104.383L625.486 104.383Z" fill="#C69C6E"/>
</svg>
