<svg width="266" height="277" viewBox="0 0 266 277" fill="none" xmlns="http://www.w3.org/2000/svg">
<rect x="0.475586" y="0.853638" width="265.049" height="273.171" fill="#C69C6E"/>
<g clip-path="url(#clip0_638_13)">
<path d="M117.441 10.6256C62.0909 17.6829 17.8341 58.1446 5.56022 112.721C2.84581 124.718 2.84581 154.712 5.56022 166.474C8.39266 179.059 14.8836 195.291 21.2566 205.759C40.0215 236.693 68.3458 257.16 105.049 265.981C119.802 269.627 145.176 269.627 160.872 266.099C211.856 254.572 251.156 214.11 260.833 163.18C263.076 151.183 263.076 127.659 260.833 115.661C251.156 64.9666 211.384 23.7992 161.344 12.9781C149.07 10.2728 128.417 9.21418 117.441 10.6256ZM220.117 75.1996C220.117 76.8463 136.324 148.007 133.61 148.713C131.721 149.183 45.2143 75.9054 46.2764 74.8468C47.5746 73.6706 220.117 74.0234 220.117 75.1996ZM72.3584 112.25C87.3467 125.071 99.7386 135.892 99.7386 136.363C99.7386 136.833 90.2972 146.125 78.8494 157.064C67.2836 168.12 53.2395 181.529 47.5746 186.94L37.1891 196.82V139.421V82.1393L41.0836 85.4327C43.208 87.3146 57.2521 99.312 72.3584 112.25ZM229.322 167.532L228.968 196.232L198.284 166.944C181.407 150.83 167.599 137.068 167.599 136.363C167.599 135.539 181.407 123.189 198.284 108.839L228.968 82.7274L229.322 110.721C229.44 126.13 229.44 151.653 229.322 167.532ZM121.1 152.947C127.473 158.123 133.02 162.357 133.374 162.357C133.728 162.357 139.393 158.005 145.884 152.712L157.567 143.185L160.754 146.008C170.667 154.712 220.117 202.819 220.117 203.642C220.117 204.23 181.053 204.701 133.374 204.701C81.7999 204.701 46.6305 204.23 46.6305 203.642C46.6305 202.466 107.764 143.538 108.944 143.538C109.298 143.538 114.727 147.772 121.1 152.947Z" fill="#05213A"/>
</g>
<defs>
<clipPath id="clip0_638_13">
<rect width="262" height="267" fill="white" transform="translate(3.52441 10)"/>
</clipPath>
</defs>
</svg>
