<svg width="512" height="513" viewBox="0 0 512 513" fill="none" xmlns="http://www.w3.org/2000/svg">
<path d="M241.863 1.30419C162.663 6.30419 91.7631 45.9042 46.4631 110.604C-9.33694 190.404 -14.4369 298.004 33.6631 382.304C107.363 511.404 273.163 551.404 396.863 470.104C488.063 410.104 530.963 299.104 503.963 193.004C480.963 102.604 409.063 31.1042 318.363 8.60419C292.963 2.30419 266.263 -0.295815 241.863 1.30419ZM353.863 94.6042V127.104L328.863 127.604C304.563 128.104 303.663 128.204 298.963 130.604C290.363 135.004 289.963 136.704 289.563 166.304L289.263 191.604H321.363H353.363V194.004C353.363 195.304 351.763 209.604 349.863 225.804C347.963 241.904 346.363 255.404 346.363 255.804C346.363 256.304 333.563 256.604 317.863 256.604H289.363V354.104V451.604H246.863H204.363V354.104V256.604H181.363H158.363V224.104V191.604H181.363H204.363V165.304C204.363 137.304 205.263 126.604 208.463 114.604C213.763 94.9042 225.263 80.5042 242.363 72.3042C260.663 63.4042 272.563 61.8042 319.363 62.0042L353.863 62.1042V94.6042Z" fill="#05213A"/>
</svg>
