<svg width="637" height="121" viewBox="0 0 637 121" fill="none" xmlns="http://www.w3.org/2000/svg">
<path d="M332.146 35.1482C335.967 32.9882 341.831 31.8176 341.918 25.2237C342.015 17.9068 333.169 20.0341 334.879 26.1972C336.135 30.7236 334.322 32.1017 331.843 34.7634C331.76 34.8529 331.754 34.9897 331.829 35.0858C331.906 35.1828 332.041 35.2077 332.146 35.1482Z" fill="#9F621F"/>
<path d="M304.856 35.1482C304.964 35.2087 305.097 35.1814 305.173 35.0858C305.359 34.8486 305.065 34.6605 304.561 34.1282C298.595 27.8418 304.409 25.914 301.511 22.099C299.572 19.5488 295.015 20.0083 295.085 25.2237C295.171 31.8219 301.048 32.9956 304.856 35.1482V35.1482Z" fill="#9F621F"/>
<path d="M343.313 27.7426C347.952 25.125 354.566 23.9044 354.667 16.2314C354.778 7.77979 344.581 10.2437 346.554 17.3537C348.021 22.637 345.909 24.2488 343.011 27.3571C342.927 27.4466 342.922 27.5834 342.997 27.6795C343.071 27.7744 343.205 27.8024 343.313 27.7426V27.7426Z" fill="#9F621F"/>
<path d="M293.689 27.7426C293.797 27.8024 293.931 27.7744 294.005 27.6795C294.191 27.4423 293.909 27.2656 293.294 26.6182C286.305 19.2563 293.115 17.06 289.743 12.6219C287.51 9.68409 282.256 10.1931 282.335 16.2315C282.437 23.9032 289.048 25.1236 293.689 27.7426V27.7426Z" fill="#9F621F"/>
<path d="M595.582 65.9447C580.358 66.0075 561.014 65.0483 540.427 63.25L540.346 63.1936L540.314 63.24C538.835 63.1108 537.35 62.9775 535.86 62.8394C548.263 62.0362 582.895 60.8099 583.597 48.9863C584.01 41.9978 576.588 41.91 574.663 45.529C573.219 48.2432 575.189 52.0173 578.835 50.5047C581.923 49.2238 580.443 45.896 578.63 45.7568C577.433 45.668 575.907 46.7454 576.504 47.0557C576.622 47.1167 576.77 47.0654 576.837 46.9513C576.941 46.7732 577.835 46.1539 578.665 46.2587C579.888 46.4141 581.239 48.9697 578.645 50.0471C575.367 51.4087 573.915 47.9927 575.102 45.7629C576.788 42.596 583.484 42.5158 583.102 48.9579C582.423 60.3945 547.355 61.5995 535.365 62.3759C532.222 62.5797 533.449 62.6245 528.935 62.1717C531.013 57.6987 530.213 52.242 526.761 48.9813C517.654 40.3788 504.521 54.3621 498.428 58.5666C491.491 57.6066 485.286 56.6339 480.142 55.7031C477.172 46.43 486.214 41.7753 491.324 45.4121C494.946 47.9894 495.328 54.4183 489.22 54.8826C484.298 55.2564 484.172 50.0241 486.238 48.7769C487.507 48.0105 489.373 48.325 489.618 48.5228C489.725 48.6092 489.881 48.5916 489.966 48.4851C490.47 47.8632 487.624 47.361 485.982 48.3523C483.503 49.85 483.756 55.7913 489.258 55.3774C495.762 54.8835 495.657 47.8881 491.612 45.0086C486.199 41.1571 476.733 45.9665 479.591 55.6027C466.862 53.2724 469.26 53.1991 453.676 48.1767C455.58 33.6007 435.055 16.1966 421.37 33.567L421.714 33.9183C438.869 20.9061 448.925 35.3999 450.184 47.0669C430.507 40.9042 412.308 36.7444 395.707 34.609C395.31 30.4017 393.294 26.7741 389.692 23.8005C381.832 17.3115 368.412 22.6398 368.464 32.9431C354.162 33.1576 339.261 35.3294 326.398 41.2942C325.115 37.1172 322.289 33.8917 318.502 31.671C314.786 33.8483 311.909 37.0501 310.604 41.294C297.739 35.3282 282.834 33.1576 268.539 32.9429C268.565 27.6914 264.642 22.54 258.33 21.2676C249.203 19.4285 242.033 26.8019 241.296 34.6088C224.697 36.7441 206.5 40.9038 186.823 47.0659C188.092 35.3187 198.183 20.94 215.294 33.918L215.638 33.5667C202.053 16.3228 181.394 33.33 183.331 48.1756C167.702 53.2133 170.156 53.2698 157.415 55.6025C161.462 41.9541 142.102 39.5261 142.588 51.0735C142.784 55.7429 151.438 57.2117 152.353 52.5423C153.405 47.1715 147.919 47.4575 147.076 48.1357C146.822 48.3409 147.132 48.7278 147.388 48.5221C147.769 48.2142 152.848 47.435 151.866 52.4467C151.074 56.4887 143.256 55.1781 143.083 51.0522C142.627 40.1476 161.042 42.6574 156.863 55.7026C151.719 56.6334 145.514 57.6062 138.577 58.5659C135.31 56.3113 132.305 53.6818 130.348 52.1113C113.239 38.3882 103.468 52.2631 108.071 62.171C102.208 62.759 54.6626 61.7611 53.9015 48.9574C53.3911 40.3551 65.0263 43.5159 61.7724 49.3201C60.6339 51.352 56.3064 50.0436 56.9333 47.8238C57.7076 45.0798 60.0184 46.6959 60.167 46.9509C60.3318 47.2334 60.7396 47.0121 60.6161 46.7407C60.3448 46.1463 57.379 44.422 56.4574 47.6883C55.6613 50.5094 60.797 52.0745 62.2056 49.5616C65.9059 42.9658 52.8472 39.5375 53.4079 48.9856C54.1109 60.8481 88.8821 62.0448 101.145 62.8387C99.6568 62.9763 98.1755 63.1093 96.6993 63.2384L96.6678 63.1933L96.5895 63.2481C75.9962 65.0471 56.6485 66.0068 41.4223 65.944C41.2857 65.9435 41.1741 66.054 41.1736 66.1909C41.171 66.903 67.906 66.2265 95.7765 63.8179L89.5009 68.2086C88.7872 67.3575 85.9582 67.3755 85.7211 67.4846C77.0046 71.5439 67.153 74.5911 58.2466 71.241C57.4063 70.9236 57.9213 78.68 70.6535 76.2617C67.9331 78.0113 64.0623 79.0422 60.838 80.6595C59.2594 81.4513 53.8304 87.6322 54.0583 88.0426C54.1557 88.22 54.0248 88.1417 56.5361 88.1303C62.9406 88.0997 62.9458 88.2032 68.3764 84.1505C70.1471 82.8292 71.9684 81.4701 73.8785 80.5919C65.8611 88.8721 68.963 91.6109 70.2597 93.8736C70.3754 94.0697 70.6734 94.0221 70.718 93.7977C72.1707 86.4967 78.2585 81.2862 84.1451 76.247C84.3799 76.0461 89.3819 71.7747 89.4618 71.4754C89.8048 70.17 89.9592 69.2717 89.7446 68.6429L96.7638 63.7318C100.575 63.398 104.427 63.0363 108.304 62.6466C112.876 71.4507 130.529 71.7875 140.466 71.1086C129.626 73.7193 120.18 76.6401 115.429 81.4053C110.846 80.7255 107.449 83.1061 107.802 88.0618C107.417 88.1372 106.922 88.1666 106.517 88.1393C107.45 85.7042 105.469 83.1186 103.058 83.1186C99.8494 83.1186 99.6149 87.0351 94.4728 87.0351C92.7972 87.0351 91.6672 86.644 89.5666 86.5678C92.0409 92.0561 95.7561 91.0195 99.9902 90.8433C101.95 91.5451 100.722 93.7317 99.3341 93.7452C97.2446 93.1553 95.4271 93.7106 94.065 95.2057C90.5109 99.107 93.0986 101.859 91.649 106.3C91.4097 107.029 91.3988 107.116 91.2376 107.83C93.6825 106.623 95.1297 106.598 98.6997 106.502C107.778 105.803 103.328 96.8356 106.444 96.8356C107.943 96.8356 107.463 98.8952 107.319 99.7826C106.724 103.408 106.945 105.634 111.955 108.68C112.198 105.191 111.535 100.146 113.052 99.3241C116.058 97.4279 116.949 91.0987 110.394 91.3338C110.417 90.9645 110.455 90.5038 110.609 90.1319C115.015 90.5897 117.054 85.9108 115.804 81.7307C125.569 71.9818 156.023 69.9433 175.573 62.4682C179.453 60.9847 183.206 59.583 186.839 58.258C189.048 61.8927 192.048 64.7553 195.589 66.8783C191.996 69.8984 189.055 72.8737 186.717 75.8378C185.899 75.13 184.384 75.6547 182.816 76.2152C182.015 76.5041 171.366 89.2008 158.044 88.9169C157.155 88.8436 159.039 92.336 163.162 92.336C165.445 92.336 168.217 91.3981 171.413 89.5446C166.691 95.6087 163.042 93.9632 159.581 105.904C159.555 105.995 159.583 106.094 159.654 106.158C159.806 106.293 166.988 103.834 168.153 102.639C171.006 99.7122 172.977 95.377 175.889 92.5611C171.066 103.027 174.895 104.586 176.87 106.292C177.042 106.441 177.31 106.297 177.278 106.07C175.423 92.9992 189.742 80.8787 187.039 76.2295C189.396 73.2255 192.379 70.2087 196.04 67.1437C205.122 72.3571 220.679 74.2661 242.117 63.7425C235.445 72.2494 232.246 83.066 232.881 83.2323C233.01 83.2669 233.148 83.1903 233.183 83.0551C235.221 75.251 238.654 68.6882 243.041 63.283C243.074 63.2661 243.214 63.1969 243.413 63.0965C243.564 62.8551 243.72 62.6328 244.012 62.3047L244.304 62.1266C244.334 62.036 244.345 62.0002 244.372 61.9231C245.843 60.4443 248.729 58.4233 252.712 56.303C262.115 61.5239 276.471 60.001 279.228 59.0605C285.412 56.9742 293.249 54.0576 303.049 54.0101V54.0106C303.387 54.0244 303.723 54.0431 304.058 54.0654C299.896 54.3873 289.962 57.706 286.698 65.2803C283.678 69.0082 279.364 72.1996 276.228 73.0483C273.483 69.5917 269.448 68.8516 266.242 72.6711C265.906 72.4517 265.538 72.1346 265.266 71.8314C268.652 70.2592 267.964 64.232 262.775 64.8168C257.722 64.6647 256.541 61.35 254.191 58.898C252.21 64.3839 255.171 66.0801 258.7 69.2278C259.62 71.0975 257.212 71.8075 256.21 70.8537C253.473 66.1378 247.663 68.8082 246.036 70.8309C243.467 74.1556 242.646 73.9886 240.597 75.3262C247.66 77.5979 248.301 86.0576 257.143 78.2175C258.189 77.4385 259.089 77.6933 259.372 78.3207C259.834 79.3435 258.645 80.0762 257.741 80.7487C254.776 82.95 253.407 84.7041 254.879 90.366C257.364 88.1415 260.181 84.3791 261.914 84.3791C261.95 84.3791 262.581 84.5037 263.051 84.5037C266.512 84.5037 270.242 80.8237 265.827 76.8253C266.101 76.5765 266.449 76.2722 266.818 76.1125C269.69 79.5432 274.487 77.5519 276.503 73.4862C279.453 72.6384 283.221 69.9656 286.194 66.6387C283.623 74.828 288.433 84.6422 296.984 84.6422C301.564 84.6422 306.019 81.8176 307.329 77.2846C309.178 70.8843 303.492 63.3473 296.224 68.2235C290.073 72.3511 294.805 78.8413 298.616 78.3572C301.142 78.036 303.57 75.2427 302.712 75.0472C302.579 75.0169 302.446 75.1008 302.416 75.2346C302.317 75.6751 300.617 77.6026 298.553 77.865C295.211 78.2908 290.826 72.4422 296.501 68.6351C303.44 63.9794 308.552 71.2692 306.853 77.1465C305.137 83.0852 297.803 85.7874 292.569 83.1205C286.66 80.1092 284.45 71.8409 287.124 65.5431C287.198 65.4508 287.255 65.3998 287.239 65.2772C290.056 59.0258 296.567 56.5603 301.548 54.9383C304.458 54.2616 307.75 54.2846 311.473 55.3176C313.355 60.358 315.367 62.2666 318.497 66.3543C321.634 62.2578 323.636 60.3651 325.521 55.3178C336.898 52.1613 347.018 59.2002 349.757 65.2758C349.739 65.3996 349.797 65.4518 349.873 65.5459C354.176 75.6836 345.92 87.686 335.671 83.2396C324.681 78.4711 330.86 62.171 340.495 68.6353C346.177 72.4477 341.749 78.2863 338.442 77.8652C336.378 77.6029 334.678 75.6753 334.579 75.2349C334.549 75.1011 334.416 75.0169 334.283 75.0475C333.421 75.2439 335.857 78.0367 338.379 78.3574C342.196 78.8423 346.919 72.3483 340.771 68.2238C333.503 63.3468 327.817 70.8854 329.666 77.2848C330.977 81.8178 335.432 84.6425 340.011 84.6425C348.57 84.6425 353.368 74.8136 350.803 66.6411C353.776 69.9672 357.542 72.6391 360.492 73.4866C362.491 77.517 367.291 79.5605 370.177 76.113C370.546 76.2726 370.894 76.5767 371.168 76.8258C366.313 81.2219 371.315 85.1555 374.819 84.4143C376.485 83.9529 379.521 88.044 382.117 90.3667C384.053 82.9158 380.726 82.1629 377.933 79.7114C377.133 78.791 377.62 77.7343 378.597 77.7343C380.868 77.7343 383.86 84.7722 390.117 79.5707C392.765 77.1363 393.825 76.1545 396.398 75.3269C394.339 73.9829 393.526 74.1537 390.958 70.8316C389.365 68.8497 383.54 66.1074 380.785 70.8544C379.787 71.8049 377.373 71.1034 378.295 69.2286C381.773 66.1261 384.797 64.4199 382.804 58.8987C379.871 61.9587 379.334 64.7788 373.546 64.7788C368.957 64.7788 368.51 70.3377 371.729 71.8324C371.456 72.1355 371.089 72.4527 370.752 72.6721C367.535 68.8386 363.495 69.614 360.767 73.0492C357.631 72.2007 353.319 69.0108 350.299 65.2841C347.604 59.0251 339.351 54.5621 332.937 54.0663C333.272 54.044 333.608 54.0253 333.945 54.0115V54.0111C350.409 54.091 352.787 60.0169 367.136 60.0169C372.888 60.0169 379.277 59.084 384.285 56.3032C388.269 58.4243 391.155 60.4455 392.626 61.9243C392.649 61.9885 392.673 62.063 392.694 62.1278L392.986 62.3059C393.28 62.6359 393.433 62.8553 393.586 63.0977C393.781 63.1962 393.937 63.274 393.954 63.2825C398.342 68.6882 401.775 75.2515 403.813 83.0563C403.847 83.191 403.986 83.2681 404.115 83.2334C404.688 83.0833 401.774 72.5335 394.877 63.742C416.308 74.2621 431.866 72.3632 440.957 67.1459C444.617 70.2104 447.6 73.2267 449.957 76.2302C449.615 76.8177 449.505 77.7193 449.418 78.7975C449.394 79.1056 452.719 84.826 452.856 85.0633C456.743 91.7681 460.763 98.7007 459.717 106.07C459.685 106.294 459.949 106.444 460.125 106.293C462.099 104.587 465.929 103.028 461.106 92.5613C462.617 94.0225 463.886 95.9081 465.119 97.741C468.908 103.375 468.978 103.282 474.975 105.419C476.528 105.973 477.594 106.529 477.414 105.904C473.955 93.9708 470.291 95.5912 465.582 89.5446C476.908 96.1126 479.834 88.8443 478.951 88.9171C465.656 89.2006 454.945 76.4918 454.179 76.2155C452.165 75.4958 450.994 75.2194 450.278 75.8378C447.941 72.8744 445.001 69.8991 441.408 66.8797C444.935 64.766 447.94 61.9086 450.159 58.2594C466.064 64.0605 464.895 64.4448 487.333 69.4994C501.682 72.7314 515.239 75.7887 521.192 81.7317C519.944 85.9049 521.977 90.5909 526.387 90.1323C526.541 90.5043 526.58 90.9649 526.603 91.3343C520.022 91.0983 520.956 97.4392 523.944 99.3246C525.461 100.146 524.796 105.166 525.042 108.681L525.389 108.47C531.619 104.664 529.715 101.398 529.451 98.1179C529.541 96.4532 531.529 96.2779 531.868 98.3829C532.749 110.143 539.407 104.694 545.293 107.6L545.758 107.83C545.598 107.12 545.589 107.041 545.347 106.3C543.857 101.736 546.54 99.1671 542.931 95.206C541.57 93.712 539.754 93.1546 537.662 93.7455C536.274 93.7319 535.046 91.5454 537.006 90.8435C541.247 91.0202 544.955 92.0575 547.43 86.5681C545.33 86.6442 544.199 87.0354 542.524 87.0354C537.386 87.0354 537.14 83.1189 533.938 83.1189C531.536 83.1189 529.543 85.6956 530.48 88.1396C530.074 88.1669 529.579 88.1374 529.194 88.062C529.556 82.9969 526.006 80.747 521.567 81.4055C516.817 76.6401 507.371 73.7196 496.53 71.1089C506.427 71.7852 524.114 71.4642 528.692 62.6468C532.574 63.037 536.43 63.3992 540.245 63.7332L547.254 68.637C545.498 73.7023 563.675 80.7176 566.278 93.7974C566.322 94.0223 566.621 94.0695 566.736 93.8733C568.032 91.612 571.135 88.8723 563.117 80.5917C565.027 81.4696 566.849 82.829 568.619 84.1502C574.061 88.2112 574.092 88.0997 580.46 88.1301C582.971 88.1415 582.84 88.2198 582.938 88.0423C583.169 87.6265 577.731 81.448 576.158 80.6593C572.933 79.042 569.063 78.0116 566.342 76.2615C578.992 78.6641 579.654 70.8994 578.749 71.2408C569.85 74.5885 560.005 71.5499 551.275 67.4844C551.038 67.3753 548.215 67.3584 547.499 68.2034L541.232 63.8186C569.47 66.2587 595.826 66.8802 595.823 66.1907C595.824 66.0562 595.716 65.943 595.575 65.943L595.582 65.9447ZM526.419 49.3424C529.758 52.4958 530.494 57.8066 528.409 62.1195C518.811 61.1512 508.746 59.983 499.149 58.666C504.715 54.7464 517.705 41.1106 526.419 49.3424H526.419ZM497.816 58.9815C494.064 61.4878 490.036 63.3921 486.866 62.5908C483.775 61.8102 481.455 59.2619 480.326 56.2382C485.29 57.1318 491.217 58.0623 497.816 58.9815V58.9815ZM439.908 65.6403C431.097 58.5559 418.69 51.2033 402.06 43.1615C414.881 46.3576 430.019 50.9748 448.225 57.5549C446.433 60.868 443.591 63.6025 439.907 65.6403H439.908ZM439.436 65.8958C428.505 71.6564 409.334 71.5245 393.463 62.0092C393.302 61.8223 393.139 61.638 392.975 61.4532C392.13 59.4559 389.869 57.1154 386.634 54.7799C390.469 51.8689 393.767 46.0082 395.022 41.4951C405.381 43.8124 429.102 57.6256 439.435 65.8965L439.436 65.8958ZM318.503 50.4466C315.94 48.6801 313.212 47.1992 310.331 46.0027C310.377 44.6497 310.565 43.3024 310.92 41.9878C313.618 43.2671 316.149 44.6836 318.503 46.2364C320.857 44.6839 323.388 43.2673 326.086 41.9883C326.441 43.3029 326.628 44.65 326.674 46.003C323.794 47.1992 321.066 48.6799 318.503 50.4466V50.4466ZM244.034 61.4491C243.869 61.6358 243.703 61.8223 243.541 62.0113C227.675 71.5219 208.508 71.6594 197.573 65.8951C207.086 58.2805 231.091 43.9315 241.983 41.4961C243.237 46.0042 246.535 51.8693 250.373 54.782C247.141 57.1154 244.881 59.454 244.035 61.4501L244.034 61.4491ZM197.099 65.6399C193.415 63.6018 190.573 60.867 188.781 57.5542C206.988 50.9741 222.124 46.3571 234.946 43.161C218.318 51.2028 205.911 58.5552 197.099 65.6399ZM318.503 52.6946C321.118 51.0401 323.833 49.7525 326.58 48.7641C326.371 50.878 325.861 52.9602 325.152 54.9075C322.813 55.574 320.586 56.4647 318.501 57.5699C316.417 56.4647 314.19 55.574 311.851 54.9075C311.142 52.96 310.631 50.8773 310.423 48.7629C313.171 49.7518 315.887 51.0396 318.503 52.6946V52.6946ZM450.235 47.6015C450.515 50.9108 450.069 53.9095 448.453 57.109C428.162 49.7663 410.548 44.4403 395.152 40.9922C395.693 38.8576 395.863 36.9263 395.749 35.1136C412.348 37.256 430.552 41.4261 450.236 47.6015H450.235ZM369.67 36.7633C369.306 35.7576 369.041 34.6358 368.978 33.4315C374.213 33.3696 379.661 33.566 385.314 34.0189C385.815 35.7986 385.395 37.4111 384.221 38.7922C379.033 37.8742 374.243 37.215 369.67 36.7633ZM383.799 39.2457C380.55 42.4475 372.626 43.9718 369.878 37.3006C374.137 37.7302 378.75 38.3593 383.799 39.2457ZM385.838 34.0616C388.915 34.3158 392.052 34.6456 395.249 35.0512C395.393 36.9185 395.211 38.8738 394.697 40.8905C391.288 40.1331 387.988 39.4684 384.791 38.8946C385.879 37.4787 386.276 35.7908 385.838 34.0616ZM389.378 24.1833C392.829 27.0322 394.771 30.5796 395.207 34.5466C391.975 34.1382 388.804 33.807 385.695 33.5527C382.794 24.1433 373.612 30.9992 374.856 31.5597C374.981 31.616 375.128 31.5607 375.184 31.4357C375.421 30.9093 378.03 28.9343 380.662 29.1338C382.76 29.2935 384.271 30.7646 385.161 33.5091C379.558 33.0658 374.157 32.8741 368.963 32.9358C368.919 23.0262 381.842 17.9621 389.378 24.1833V24.1833ZM368.48 33.4391C368.539 34.6145 368.784 35.7144 369.125 36.7095C358.242 35.6703 349.694 35.9343 342.056 36.4896C350.712 34.4363 359.584 33.5724 368.481 33.4391H368.48ZM341.076 36.7287L341.101 37.0582C349.007 36.4531 357.879 36.1293 369.323 37.2456C372.25 44.738 381.118 42.9435 384.407 39.3532C387.611 39.9248 390.989 40.5997 394.563 41.3926C393.331 45.7942 390.027 51.634 386.21 54.4793C369.98 43.0574 345.283 38.5201 327.157 45.8035C327.099 44.4467 326.902 43.0958 326.54 41.7769C330.955 39.7234 335.813 38.0362 341.077 36.7287H341.076ZM318.503 32.2398C322.054 34.3989 324.728 37.4835 325.948 41.5063C323.305 42.7552 320.82 44.1343 318.503 45.6434C316.186 44.1343 313.7 42.7552 311.058 41.5063C312.276 37.4899 314.948 34.4003 318.503 32.2398ZM309.848 45.803C291.253 38.331 266.405 43.4948 250.795 54.4803C246.972 51.6312 243.67 45.7821 242.441 41.3924C246.015 40.5994 249.393 39.9246 252.597 39.3529C255.845 42.8991 264.723 44.8155 267.681 37.2453C279.125 36.129 287.997 36.4528 295.902 37.0579L295.928 36.7282C301.191 38.0357 306.049 39.7227 310.464 41.776C310.102 43.0953 309.905 44.446 309.847 45.803H309.848ZM241.754 35.0514C244.952 34.6458 248.089 34.3161 251.165 34.0618C250.728 35.791 251.124 37.479 252.213 38.8949C249.016 39.4687 245.716 40.1333 242.307 40.8907C241.793 38.8738 241.611 36.9185 241.754 35.0514V35.0514ZM252.782 38.7922C251.593 37.3929 251.194 35.7739 251.689 34.0189C257.342 33.5663 262.79 33.3696 268.026 33.4315C267.963 34.6358 267.697 35.7578 267.333 36.7633C262.48 37.2427 257.669 37.9278 252.782 38.7922ZM267.126 37.3006C264.416 43.8788 256.525 42.517 253.205 39.2457C258.253 38.3593 262.867 37.7302 267.126 37.3006ZM294.949 36.4898C287.311 35.9343 278.762 35.6703 267.877 36.7095C268.219 35.7144 268.463 34.6145 268.523 33.4391C277.419 33.5722 286.291 34.4361 294.949 36.4898H294.949ZM268.041 32.9355C262.847 32.8741 257.445 33.0655 251.842 33.5089C254.372 25.7067 261.399 30.5004 261.819 31.4357C261.953 31.7338 262.406 31.5315 262.271 31.2317C261.666 29.8879 253.943 25.0086 251.309 33.5525C248.199 33.8068 245.029 34.1379 241.797 34.5466C243.727 16.9559 268.107 18.1384 268.041 32.9355H268.041ZM241.256 35.1136C241.142 36.9275 241.312 38.8586 241.853 40.992C226.456 44.4398 208.845 49.7656 188.554 57.1078C186.944 53.9193 186.492 50.9238 186.773 47.6006C206.456 41.4261 224.658 37.2562 241.257 35.1136H241.256ZM156.68 56.2384C155.547 59.2704 153.223 61.8121 150.14 62.5908C146.97 63.3921 142.942 61.4878 139.19 58.9817C145.789 58.0623 151.716 57.132 156.68 56.2384V56.2384ZM131.661 53.8279C133.395 55.2609 135.548 57.0397 137.858 58.6662C128.264 59.9827 118.199 61.151 108.598 62.1197C104.175 52.9707 112.688 38.1334 131.662 53.8279H131.661ZM143.654 70.3577C143.289 70.3204 114.899 73.7786 108.842 62.5932C118.448 61.6216 128.648 60.4386 138.46 59.0832C141.7 61.2983 146.462 64.0311 150.263 63.0721C153.613 62.226 156.106 59.4239 157.246 56.1362C170.253 53.7672 167.963 53.6543 183.404 48.6737C183.895 51.9557 184.974 55.0477 186.585 57.8234C166.89 65.0155 174.152 63.2953 143.654 70.3577H143.654ZM309.772 54.3821C309.712 54.0796 304.002 53.5139 303.16 53.5139C293.326 53.5139 285.239 56.5119 279.076 58.5913C276.918 59.3266 262.858 61.1718 253.246 56.0259C269.34 47.6271 292.227 42.467 309.917 48.5852C310.105 50.7009 310.59 52.7873 311.274 54.7462C310.778 54.614 310.277 54.494 309.772 54.3821H309.772ZM318.505 65.5414C315.796 62.0272 313.897 60.1794 312.071 55.4855C314.335 56.1564 316.488 57.043 318.505 58.1332C320.521 57.043 322.675 56.1564 324.938 55.4855C323.12 60.1597 321.254 61.9743 318.505 65.5414ZM357.931 58.5913C357.694 58.5111 340.31 52.2847 333.802 53.5229C333.234 53.548 327.311 54.0101 327.236 54.3818C326.73 54.4938 326.228 54.614 325.732 54.7464C326.416 52.7878 326.901 50.7018 327.089 48.5864C344.994 42.3918 367.986 47.792 383.762 56.0249C374.538 60.9641 360.635 59.5135 357.93 58.5913H357.931ZM493.353 70.3577C463.441 63.4308 470.604 65.1934 450.424 57.8244C452.035 55.0486 453.115 51.9566 453.605 48.6744C469.059 53.6588 466.765 53.7691 479.762 56.1362C481.35 60.7171 485.059 63.2706 488.412 63.2706C491.552 63.2704 495.189 61.3792 498.548 59.0835C508.362 60.4391 518.561 61.6218 528.166 62.5934C522.105 73.7836 493.901 70.3012 493.351 70.3577H493.353Z" fill="#9F621F"/>
<path d="M403.298 84.8097C391.684 87.8412 392.49 94.2381 392.904 94.4877C395.158 95.8462 401.946 94.4063 403.604 85.0931C403.636 84.9181 403.476 84.7639 403.298 84.8097V84.8097Z" fill="#9F621F"/>
<path d="M233.391 85.092C235.369 96.1944 244.158 95.474 244.212 94.2868C244.591 87.0249 233.244 84.242 233.391 85.092V85.092Z" fill="#9F621F"/>
<path d="M404.602 91.5748C398.422 102.901 400.176 110.543 404.905 110.079C411.872 109.627 408.698 98.6079 404.602 91.5748Z" fill="#9F621F"/>
<path d="M232.395 91.5748C226.761 101.246 226.284 110.095 232.49 110.098C237.168 110.097 238.098 102.011 232.395 91.5748Z" fill="#9F621F"/>
<path d="M405.811 85.2271C407.774 96.2584 416.565 95.6815 416.63 94.4231C417.013 87.1248 405.667 84.4218 405.811 85.2271Z" fill="#9F621F"/>
<path d="M230.892 84.9449C223.686 86.8271 220.149 90.0169 220.38 94.4249C220.401 94.8476 221.727 95.0632 222.365 95.0629C229.221 95.0637 232.141 84.6233 230.892 84.9449V84.9449Z" fill="#9F621F"/>
<path d="M596.744 67.4509C596.507 67.6687 597.997 78.7137 605.294 78.9016C605.71 78.9016 606.651 76.8747 605.664 74.153C603.787 68.9795 597.032 67.1843 596.744 67.4509Z" fill="#9F621F"/>
<path d="M31.3272 74.152C30.3444 76.8619 31.2805 78.9018 31.6904 78.9009C38.8239 78.884 40.485 67.6699 40.2472 67.45C40.0068 67.2275 33.2453 68.8678 31.3272 74.152Z" fill="#9F621F"/>
<path d="M603.525 66.9054C613.972 73.7203 622.084 72.9819 621.988 68.0452C622.082 60.8343 610.47 63.5522 603.525 66.9054Z" fill="#9F621F"/>
<path d="M33.4822 66.9054C23.1569 61.9169 14.944 62.4698 15.0191 68.0447C14.9248 72.9489 22.9765 73.7528 33.4822 66.9054Z" fill="#9F621F"/>
<path d="M597.289 65.2164C606.631 64.2961 608.682 57.669 607.486 55.2772C607.333 54.9703 601.036 53.3163 597.031 64.8886C596.97 65.0637 597.118 65.2385 597.289 65.2164V65.2164Z" fill="#9F621F"/>
<path d="M39.9717 64.8891C36.052 53.5649 29.7354 54.8415 29.5163 55.2782C29.0468 56.2163 29.0395 58.0068 30.0794 59.8921C32.6644 64.5771 40.3304 65.9325 39.9717 64.8891Z" fill="#9F621F"/>
</svg>
