<svg width="289" height="467" viewBox="0 0 289 467" fill="none" xmlns="http://www.w3.org/2000/svg">
<path d="M286.916 52.5979C285.323 49.3211 287.364 44.119 285.163 42.5879C275.916 36.1563 277.576 37.7726 270.543 41.4355C269.007 42.2355 263.778 45.4767 260.72 44.705C257.245 43.8284 256.567 48.9997 254.756 47.651C253.573 46.7708 252.931 46.9156 250.67 46.3899C248.478 45.8802 249.077 46.9879 244.033 47.0424C243.181 47.0516 242.167 47.568 240.243 46.8747C238.675 46.3102 237.46 45.9661 236.402 47.2882C235.407 48.5316 234.852 47.6368 233.477 49.2589C231.336 51.7861 227.025 54.5336 225.189 55.0794C224.323 55.3372 223.781 56.5096 223.267 54.6226C222.665 52.4183 222.66 49.1272 223.745 45.8196C227.741 33.6347 229.317 37.5554 230.111 26.0488C231.028 12.7744 228.047 17.4791 228.011 14.481C227.968 10.7937 224.257 8.47465 223.13 7.4242C220.335 4.8201 216.307 2.0515 212.966 1.5663C210.76 1.24597 206.535 -0.295373 198.911 0.782764C198.227 0.879506 197.546 1.04922 196.992 1.43526C196.359 1.87637 195.576 1.99082 194.983 2.4873C194.691 2.73214 192.626 2.42253 192.389 2.35346C190.994 1.94767 191.274 2.65879 190.373 2.97921C188.58 3.61716 187.852 1.63508 186.089 3.47718C184.029 5.62982 183.356 4.67153 182.352 5.83877C181.048 7.35616 181.118 5.26662 179.885 6.21651C170.117 13.7427 175.227 12.7186 174.387 17.4952C173.912 20.1899 176.235 19.5106 175.624 21.3089C174.855 23.5747 174.671 25.1713 174.781 26.9977C175.002 30.6812 174.04 30.9524 174.093 33.5735C174.117 34.752 173.478 35.4949 174.47 36.1278C175.877 37.0257 175.293 39.1259 174.581 40.645C172.565 44.9461 174.222 43.4684 171.703 48.2885C170.8 50.0165 170.092 46.501 166.963 43.5045C166.666 43.2202 166.498 42.8386 166.518 42.4151C166.618 40.3061 166.48 38.4353 167.335 37.7932C168.283 37.0814 167.2 36.3051 167.012 35.4165C165.474 28.1762 165.554 28.0976 165.099 26.824C164.15 24.1693 163.321 23.327 164.318 22.4997C164.583 22.2795 164.306 21.7152 164.858 20.799C165.443 19.8291 164.992 19.3343 162.498 16.1274C159.6 12.4009 155.811 11.6817 155.406 11.4043C150.828 8.26896 144.981 11.9445 143.059 11.4396C140.483 10.763 133.491 11.7449 131.18 12.3701C129.85 12.7304 125.334 13.1253 120.482 19.1957C115.037 26.0088 112.873 41.4679 111.826 44.9368C111.556 45.8302 110.916 45.4009 110.339 45.6721C109.231 46.1929 107.608 44.8764 107.311 43.9119C107.019 42.9638 106.425 43.4823 105.36 41.2381C104.445 39.3096 104.154 39.2831 102.926 38.1855C100.955 36.4224 101.093 31.8968 99.6942 31.0601C100.639 36.6226 103.305 37.9465 93.8254 29.592C92.7203 28.6181 92.6647 29.2578 93.4373 29.9384C102.518 37.9389 101.066 37.1269 101.356 39.3958C101.592 41.2328 99.7446 38.4922 99.6305 37.4297C99.5497 36.6776 98.7532 36.4129 98.5409 35.7591C97.8763 36.1472 97.901 35.5255 96.7039 33.9978C95.4025 32.3369 93.4394 31.5202 93.0621 30.9219C92.4174 29.8993 89.6848 27.4915 89.2714 27.9155C89.4161 28.6123 90.8089 28.7861 90.1638 29.7456C88.5201 28.2451 86.7424 26.9546 84.6839 25.8762C84.7234 27.538 85.7527 26.5853 90.2668 30.6917C91.2613 31.5963 91.5511 32.0778 91.5733 33.4485C91.2113 33.4149 91.1915 32.8355 90.591 32.9122C91.5028 34.5335 92.4235 34.4574 92.5966 36.3108C91.8688 36.2396 91.3351 35.8659 90.7437 35.6689C80.1295 32.1339 77.1793 23.0297 69.7288 23.0583C69.7183 23.5875 71.3054 24.0081 71.7489 24.1503C72.9154 24.5244 72.1934 24.2924 74.5241 27.1798C75.5856 28.4947 75.5934 28.521 75.4056 28.5929C74.8563 28.8033 75.1571 28.9058 76.0496 29.6111C70.7175 29.8672 70.7472 27.9077 69.8556 30.2756C70.1538 30.5607 71.6512 29.5707 72.9364 30.3674C73.0097 30.4128 73.2051 30.3829 73.259 30.3176C73.7777 29.688 74.4484 29.9881 75.0234 30.089C78.6685 30.7285 77.7806 30.7828 80.716 32.791C81.5331 33.3501 81.7153 32.8588 81.9705 32.9338C87.4235 35.7584 83.9032 34.1266 83.2337 34.3072C84.2863 35.3028 85.2049 35.0834 86.2728 35.9769C85.3126 35.9788 84.7105 35.0522 84.3095 35.5822C84.2664 36.3804 85.3497 36.0557 85.5621 36.6422C84.2621 36.5554 86.1958 36.7961 81.1828 35.8073C79.6167 35.4984 77.9104 35.4998 76.5536 34.4293C76.0463 34.0291 76.6297 35.3204 73.9192 33.2646C73.2343 32.7451 72.5011 32.3917 71.6445 32.3085C71.5613 32.8513 71.2208 32.5052 73.8092 34.0128C71.3073 33.7724 69.2401 32.633 67.3717 31.0545C68.4948 31.3151 69.4761 32.0257 70.6554 32.0881C68.9558 29.9717 68.9927 30.8354 67.6924 30.4594C65.2412 29.7504 65.6471 28.4952 65.1159 28.9483C64.3953 29.5628 62.9268 27.3203 62.4211 26.5129C62.2902 26.3038 62.2031 25.9961 61.7397 26.0221C61.7913 26.8432 62.5376 27.3135 62.6991 28.045C61.8369 27.9982 61.9749 28.0758 62.3629 28.8288C64.6247 33.218 69.6456 37.1603 73.8115 39.7506C75.5158 40.8104 75.1578 39.972 74.9038 39.8369C73.7322 39.2136 67.5043 35.0324 64.4939 31.2098C62.4609 28.6282 63.2964 28.7422 64.0669 29.4783C69.6726 34.8336 76.603 40.0951 76.1426 40.465C75.3519 41.1003 77.2624 41.3129 77.9846 42.072C77.9259 42.4468 77.4425 41.7403 77.2541 42.3935C77.0886 42.9671 78.1435 42.516 78.4548 43.8701C78.4914 44.0293 78.5086 44.2003 78.3573 44.3036C78.1942 44.415 78.0658 44.2673 77.9208 44.2101C77.4701 44.0321 77.7031 43.3773 77.3125 43.2558C76.9666 43.1481 76.5439 43.3768 76.1902 43.1124C67.8853 36.9058 61.6343 37.1168 54.395 36.3952C53.9511 36.351 53.773 36.8248 54.3878 36.9394C58.1927 37.6489 58.4752 37.6394 62.425 38.7314C64.0794 39.1887 63.353 40.7017 64.4522 40.0115C64.5507 39.9496 65.3571 41.6966 64.6881 41.3498C64.4491 41.226 64.4186 41.4059 64.386 41.5671C64.2976 42.0035 64.4283 42.0546 65.5239 43.9285C63.0783 43.2113 63.7693 43.3837 63.0615 43.1695C62.6539 43.0462 62.3849 43.4322 62.8208 43.7681C63.6619 44.4162 64.7145 44.5788 65.832 45.1027C64.987 45.027 64.322 45.1812 63.6758 44.9897C59.8977 43.8698 58.0765 42.5893 58.7556 43.7097C59.1064 44.2883 59.7382 44.3245 60.278 44.569C64.1476 46.3208 66.6574 45.043 67.7349 46.5469C69.0317 48.3571 70.113 47.7997 69.8997 49.4131C69.6362 51.4064 70.3059 54.2081 71.5312 55.6352C73.4197 57.8349 75.0067 57.3691 74.8752 58.7268C74.7172 60.359 75.6265 60.2961 74.955 62.3912C74.1289 64.9692 72.0053 67.9097 74.9589 69.3874C76.0343 69.9253 76.6468 70.031 76.4516 70.8099C76.1197 72.1342 76.1637 73.5278 75.6977 74.8256C75.4771 75.4401 76.0658 75.7282 76.2718 74.6509C77.4346 68.5684 76.0889 70.8252 81.7028 70.8434C87.2229 70.8613 85.9019 71.5492 86.7552 71.3368C88.3785 70.9325 87.2684 72.7829 89.8211 75.2235C94.8451 80.0268 99.1366 76.5292 99.7709 77.3552C96.1017 80.0486 97.1619 79.1637 96.071 80.141C95.8474 80.3412 96.1614 80.6774 95.7683 80.9791C92.6208 83.3958 89.0324 83.9792 85.2139 83.7036C83.8433 83.6046 83.754 82.4886 83.0293 83.1978C82.9057 83.3188 82.8644 82.7512 82.6062 82.716C81.8219 82.6089 81.7253 82.0834 80.9486 80.304C80.6702 80.2647 80.7244 80.573 80.5753 80.5826C80.2809 80.6016 79.8826 79.2073 81.1364 77.693C82.6966 75.8085 84.186 75.2059 84.4263 74.7308C84.6417 74.3049 84.4574 74.0712 84.0622 74.3365C83.6693 74.6001 83.2402 75.1264 82.8931 75.0763C82.1331 74.9664 81.9215 75.4869 81.5627 75.8726C79.5098 78.0799 79.6396 79.096 79.128 78.7324C79.0888 78.7045 78.2567 77.8129 77.6327 78.6895C76.0003 80.983 78.8232 80.0418 78.7341 81.288C78.6713 82.1654 79.6559 82.9741 79.2815 83.6382C78.5604 82.9698 77.7359 82.5487 77.1518 81.8608C77.2673 81.6073 77.5889 81.7355 77.6427 81.4799C77.0099 80.5965 75.2108 81.2163 75.5954 78.9565C76.0191 76.4668 76.0753 76.2447 75.8125 76.1931C75.1488 76.063 75.5197 78.3997 74.7799 79.1489C74.7708 79.1582 74.5989 83.4858 80.3608 85.0587C81.9197 85.4841 81.3606 86.2477 82.9511 86.3836C84.7214 86.535 85.5099 86.3662 86.6663 87.1007C86.8165 87.1961 87.0136 87.31 87.1873 87.1142C87.2556 86.6784 85.8193 86.6722 88.6609 86.4383C88.9678 86.4131 88.9465 86.407 89.0039 86.1872C89.1627 85.5791 90.5125 86.2136 92.6789 84.9033C93.2969 84.5295 93.9216 84.172 94.6511 84.0491C94.7982 84.0243 94.9834 83.9508 95.0622 83.8375C95.895 82.6403 97.3408 82.2599 98.3687 81.3225C98.549 81.1581 98.8132 80.961 99.1968 81.1685C97.6901 83.669 96.3286 83.8195 96.063 84.3893C95.4835 85.6328 93.5681 86.8682 93.4328 87.4559C95.4096 86.7831 97.1583 84.241 99.1317 82.8896C102.487 80.5922 103.711 78.6091 104.91 78.3641C105.506 79.5896 104.461 79.6593 103.051 82.0081C103.555 82.0813 103.824 81.587 104.252 81.7625C104.434 81.837 104.653 80.5326 104.986 80.6671C105.451 80.8552 105.387 81.5467 105.046 81.7486C103.645 82.5782 104.874 82.8285 99.8709 86.1835C99.2694 86.5868 96.7499 88.3187 96.5002 87.5142C96.3972 87.1823 94.4458 88.3966 93.2439 88.3791C93.1714 88.1092 93.4724 87.8388 93.3312 87.5489C88.3582 90.4136 88.8544 90.2968 83.4518 91.1178C83.7527 91.5871 85.581 91.0619 82.4635 91.9121C83.2903 92.1467 83.5542 92.0674 86.0619 91.3927C92.0392 89.7839 92.0007 90.0403 91.9242 89.4425C91.875 89.0573 92.3872 88.6866 92.6638 88.879C93.637 89.5555 94.7628 88.4856 94.8918 88.8805C94.8099 89.2158 94.206 88.9566 94.2478 89.4384C94.9403 89.7046 99.7039 87.0169 99.8697 87.0843C100.654 87.4033 101.07 86.3209 102.231 85.9585C99.99 88.9089 95.3005 90.8516 94.8072 93.8642C106 84.7218 103.486 85.3771 102.827 88.0641C102.38 89.8837 100.628 90.0659 100.549 91.1117C100.977 91.1878 101.219 90.773 101.619 90.8366C97.9985 98.0342 91.443 103.547 84.2481 106.549C83.604 106.818 82.1751 107.472 82.8415 107.687C82.9693 107.728 83.1594 107.571 83.2394 107.853C82.625 108.574 78.9683 110.146 77.8578 111.314C78.8433 111.858 81.7406 109.233 82.3864 109.054C83.6547 108.701 88.194 105.853 89.3313 105.105C92.5947 102.958 91.2737 103.833 95.4772 100.484C95.6181 101.706 88.2018 109.494 83.1554 110.866C81.995 111.181 82.6384 112.062 81.0116 112.087C80.7859 112.09 80.2173 112.745 79.8551 112.9C75.3853 114.813 74.3952 115.108 73.0364 113.888C73.1833 113.46 75.4482 113.172 77.1075 112.139C78.2434 111.431 77.1957 111.422 76.9047 111.655C76.6385 111.868 72.6428 114.158 71.5107 112.792C71.0769 112.269 70.5554 111.819 70.0572 111.323C69.2522 112.819 72.0493 114.116 73.6336 115.067C72.1616 115.834 72.4094 114.793 71.5502 114.944C71.3927 115.28 71.865 115.428 71.7044 115.747C71.5928 115.969 71.1926 116.056 71.4046 116.496C72.0887 116.54 72.7557 116.814 73.4519 116.982C73.7456 117.053 74.1087 117.113 73.9403 117.583C74.9327 118.254 74.5776 119.598 76.0334 119.61C80.1067 119.641 78.9725 119.966 81.4066 120.218C79.1562 122.004 76.4513 119.913 74.7098 120.263C75.1671 121.021 76.0924 120.63 76.4962 121.219C76.164 121.687 76.0314 121.226 76.0867 122.067C76.1155 122.505 78.331 122.528 78.7696 122.52C80.0655 122.496 79.1402 122.988 80.4056 122.99C81.604 122.992 83.5771 122.739 82.8462 123.492C82.5423 123.806 82.56 123.879 82.9558 124.045C84.8885 124.854 75.8007 128.268 74.0377 128.884C75.7944 129.26 76.464 128.452 77.075 128.253C84.4973 125.83 84.7674 123.895 86.2987 124.438C86.6649 124.568 87.4424 123.962 87.7536 124.332C87.4607 124.986 86.7443 125.233 86.3686 125.793C85.5009 127.086 81.7301 127.663 78.6006 128.368C80.5167 128.699 82.2833 127.962 84.2155 127.722C83.323 128.954 79.9959 130.18 78.8073 129.932C78.7743 129.925 78.716 129.942 78.7002 129.967C78.2354 130.705 76.7811 130.105 76.6386 130.583C76.3534 131.539 75.2926 130.849 75.3333 131.492C75.4011 132.563 76.4211 131.555 77.2237 132.184C75.846 132.541 74.5705 132.746 74.2887 133.308C73.9293 133.259 73.5392 133.194 73.3122 133.554C72.8166 134.341 72.0081 134.279 71.013 134.685C70.4195 134.928 70.9187 135.61 71.247 135.573C72.4376 135.438 77.8145 133.413 79.1021 133.637C78.7461 134.142 77.4016 134.038 77.0344 134.651C77.1954 134.903 77.4927 134.743 77.8775 135.014C75.6874 134.437 74.568 135.999 74.8333 136.284L75.635 136.17C74.8035 136.826 74.2114 137.756 73.2099 138.203C71.9177 138.78 72.4128 139.229 72.5743 139.138C73.4794 138.629 74.5683 138.615 75.4489 138.002C77.8089 136.358 78.0322 137.229 79.2975 136.465C78.5442 137.841 78.3327 136.057 76.6252 138.663C75.769 139.969 76.2362 140.085 77.1514 139.452C80.0482 137.45 78.9188 137.937 80.021 137.87C80.2741 137.855 80.2298 137.215 80.6297 137.083C80.7045 137.058 80.7966 137.013 80.8593 137.037C81.819 137.392 82.3594 135.98 83.0992 135.935C83.5522 135.907 83.3428 135.913 86.7706 134.169C86.4262 135.259 85.286 135.773 85.0617 136.867C85.3859 136.968 85.5132 136.805 85.6436 136.659C91.6809 129.899 89.798 134.159 93.0204 130.619C94.6877 128.788 94.6468 129.59 95.8598 128.302C96.996 127.096 97.7138 125.591 98.7672 124.33C98.8889 124.185 98.8955 124.163 99.2938 124.38C99.4822 124.482 99.7523 123.98 99.8485 124.473C100.024 125.373 98.5392 126.758 98.2321 127.702C97.5186 129.894 96.5738 129.874 96.1705 130.568C94.8252 132.882 93.0255 133.44 93.4324 133.863C93.6552 134.002 93.8164 133.499 94.0509 133.802C93.919 134.492 92.4961 135.302 94.2394 135.265C94.2198 135.343 94.2115 135.463 94.1737 135.473C93.0759 135.77 93.5067 137.058 91.9618 138.076C91.4534 138.411 89.5209 140.529 90.0148 140.887C90.2879 141.085 90.8774 140.271 90.9909 140.001C91.5724 138.613 91.81 141.019 90.7224 142.241C90.5507 142.434 90.8064 143.318 91.0303 143.49C91.3466 143.616 91.6068 143.168 91.9202 143.412C91.9811 143.704 91.1286 144.55 92.4164 144.16C94.002 143.68 93.822 145.688 94.6724 144.554C94.9064 144.242 94.9097 145.221 95.3611 144.729C96.1246 143.896 95.0277 144.418 96.8077 142.48C97.281 141.965 97.3932 141.352 97.7847 141.706C96.7562 143.19 97.0526 144.063 95.9743 144.589C95.9424 144.605 95.9 144.658 95.906 144.683C96.0699 145.391 95.4698 145.857 95.3492 146.472C95.1106 147.69 97.5367 143.993 98.0173 142.926C98.098 142.748 98.6961 141.912 98.892 142.077C99.0395 142.201 99.1139 142.513 99.0009 142.729C98.4066 143.868 99.5045 143.513 99.3837 144.105C99.2914 144.558 99.5949 145.093 99.0381 145.456C98.6817 145.688 98.6875 146.027 98.9527 146.391C99.8083 147.564 98.296 147.724 98.3988 148.276C98.4537 148.57 99.0441 148.17 99.2333 148.48C99.2012 148.764 98.8385 149.138 99.1525 149.35C100.724 150.411 97.5456 151.74 98.2249 152.492C98.6272 152.113 98.9698 151.599 99.4446 151.395C100.828 150.803 100.962 149.555 100.688 150.822C100.639 151.045 100.447 151.294 100.679 151.487C100.923 151.689 101.161 151.603 101.43 151.42C103.76 149.835 101.697 151.558 102.301 153.82C103.128 153.789 102.678 152.772 103.871 152.186C103.763 153.059 103.148 153.859 103.435 154.833C103.892 154.707 103.882 154.333 103.961 154.049C104.087 153.596 104.789 152.069 105.203 152.288C106.26 152.848 105.786 151.539 106.81 151.239C106.512 152.244 106.051 153.06 106.192 153.976C106.727 154.051 106.641 153.365 107.074 153.421C107.576 154.062 105.006 155.285 106.227 156.763C108.512 155.977 107.193 157.405 107.6 157.86C107.965 157.626 108.378 157.809 108.758 157.787C109.153 157.764 109.539 157.332 110.02 157.266C110.134 158.105 110.136 158.118 110.833 158.034C111.529 157.951 111.716 158.693 112.601 158.06C112.761 157.946 112.955 157.869 113.144 157.808C114.453 157.384 113.89 159.025 114.668 158.937C115.186 158.877 115.783 159.087 116.193 158.521C117.292 157.003 117.24 159.532 118.324 157.901C118.991 156.897 118.745 158.434 118.673 158.628C118.528 159.021 118.813 159.109 119.078 159.222C119.258 159.298 119.464 159.077 119.574 159.204C119.787 159.739 119.005 159.906 119.302 160.467C119.801 161.41 120.42 162.357 121.085 161.526C121.281 161.281 121.674 161.196 121.985 161.035C122.05 161.173 122.078 161.305 122.156 161.385C123.003 162.249 123.067 162.565 123.889 161.339C124.268 160.775 125.08 159.495 125.45 160.084C125.599 160.32 125.993 160.4 125.776 160.845C125.152 162.123 126.287 161.522 126.798 162.781C126.884 162.992 127.19 162.401 127.347 162.608C127.978 163.441 128.176 161.856 128.786 162.756C128.972 163.031 129.629 165.808 130.865 164.304C131.177 163.925 131.481 163.94 131.738 164.349C131.849 164.525 131.69 164.854 132.068 164.9C132.112 164.794 132.199 164.686 132.193 164.584C132.102 163.209 132.655 161.898 132.583 160.526C132.541 159.734 133.295 160.391 132.942 159.189C132.682 158.304 132.966 157.353 132.589 156.482C132.535 156.356 132.669 156.181 132.862 156.15C133.793 156 133.216 157.858 133.543 158.267C133.888 157.876 133.444 156.638 134.163 156.728C134.582 156.78 134.366 157.343 134.301 157.658C133.577 161.164 137.024 162.131 137.337 162.291C139.869 163.585 136.72 164.639 138.557 167.184C139.674 168.731 137.194 170.365 139.156 172.193C139.799 172.791 138.715 173.576 138.253 173.587C136.104 173.637 136.247 175.018 131.244 180.375C128.841 182.948 127.872 186.015 126.285 189.009C123.333 194.577 124.348 197.531 121.969 201.596C120.359 204.347 117.465 211.207 117.278 214.943C117.061 219.28 115.734 223.564 115.541 229.309C115.421 232.883 113.53 233.335 110.581 240.838C104.883 255.333 107.102 253.641 105.86 254.815C104.319 256.272 103.194 258.146 101.366 259.314C98.1448 261.372 100.72 265.457 99.8745 266.667C97.7648 269.685 97.1023 268.952 94.9331 269.999C91.1753 271.811 92.783 274.131 91.3551 275.596C79.637 287.625 88.826 287.814 73.8688 296.541C68.6659 299.577 67.588 298.616 61.6487 302.901C55.2726 307.501 56.0091 308.994 50.6516 310.666C46.5714 311.94 42.7239 311.499 30.0233 320.54C26.9972 322.694 28.0152 324.138 27.1745 325.483C2.13244 365.563 12.2213 352.964 4.26727 368.207C1.57695 373.362 -1.92226 382.819 3.421 385.127C5.42613 385.993 9.93017 389.016 14.6484 390.589C23.8956 393.671 22.3757 392.78 25.7002 395.074C30.1191 398.123 32.7585 398.274 36.4364 400.618C39.5685 402.615 41.424 402.597 43.2924 404.72C44.4313 406.014 48.7834 408.31 50.4513 408.76C50.7964 409.27 51.2646 408.713 51.6288 408.893C53.8657 409.998 54.1822 408.663 55.6835 408.557C66.1891 407.814 64.6667 406.332 74.7739 404.636C79.8298 403.788 75.3987 404.857 85.6277 402.047C88.3006 401.312 88.8606 403.073 86.2054 404.923C85.119 405.679 84.1179 406.618 82.8956 407.101C80.93 407.877 79.0452 408.877 76.9288 409.277C75.1787 409.607 72.1675 411.639 71.8815 413.493C71.3267 417.091 72.1306 420.9 73.5225 423.694C78.5026 433.689 76.7439 430.082 77.4634 435.612C78.9106 446.735 75.7202 457.077 78.9296 461.282C80.5143 463.359 79.9376 463.163 84.1948 464.75C86.4489 465.59 93.1638 466.848 95.5071 466.249C98.1734 465.568 97.7761 462.769 96.093 461.825C94.5745 460.974 92.4136 458.697 92.5983 456.825C92.7131 455.663 91.5772 455.676 92.2059 451.851C92.3719 450.841 92.5884 449.818 93.65 449.208C94.3098 448.829 94.5345 447.784 94.2225 447.072C93.7989 446.106 97.0863 438.992 97.395 437.691C98.3577 433.634 98.762 434.117 99.3513 431.234C100.761 424.34 100.701 427.617 104.963 413.801C107.782 404.662 107.778 401.775 110.77 395.425C112.241 392.306 112.104 394.356 117.468 392.215C120.708 390.921 126.541 386.598 128.285 383.991C129.317 382.447 129.448 382.448 136.501 375.573C137.256 374.836 137.779 374.56 137.805 375.609C138.214 392.411 138.307 413.343 133.494 429.957C132.341 433.941 129.909 435.006 129.499 435.848C128.52 437.86 126.062 438.899 127.769 442.053C128.929 444.198 132.637 447.206 134.917 448.565C136.479 449.496 135.23 449.473 138.07 451.788C139.624 453.055 141.28 453.65 147.142 457.688C157.261 464.657 161.984 466.349 171.184 466.255C173.562 466.231 175.286 462.545 172.322 461.186C162.479 456.678 163.349 459.755 160.578 452.387C161.571 451.552 166.018 452.051 168.202 453.124C173.417 455.685 178.282 455.258 182.913 454.893C185.579 454.682 185.638 452.343 186.146 451.616C187.093 450.258 185.739 449.724 185.515 448.03C185.279 446.251 184.318 445.481 184.204 444.826C181.005 426.414 183.567 415.365 183.803 408.928C184.63 386.385 190.933 382.261 188.802 361.496C186.348 337.595 183.317 343.789 191.945 342.998C202.477 342.033 201.824 341.344 202.984 343.714C207.041 351.997 209.598 346.673 210.326 376.52C211.207 412.597 210.307 389.06 211.103 406.911C211.569 417.373 208.595 430.203 205.055 435.716C203.976 437.396 203.566 445.502 200.686 446.727C198.366 447.714 199.336 449.838 195.572 452.136C191.792 454.444 190.343 455.759 188.421 456.57C187.43 456.987 185.98 458.481 186.191 459.731C186.492 461.51 187.263 461.835 190.449 463.629C191.681 464.323 192.894 464.824 199.895 464.805C209.376 464.78 212.85 464.655 217.23 462.992C220.728 461.665 223.821 461.539 226.545 460.708C230.872 459.389 230.247 452.209 228.938 448.446C228.333 446.71 229.013 446.293 228.194 445.213C227.601 444.431 226.888 440.094 226.73 436.823C226.454 431.119 227.428 430.562 227.769 428.749C229.538 419.336 230.002 418.95 231.437 414.011C234.586 403.171 234.913 397.33 237.325 386.907C244.041 357.886 232.431 342.142 233.291 336.259C233.353 335.83 233.359 335.345 233.22 334.945C232.791 333.718 232.738 332.42 232.418 331.177C231.879 329.09 235.264 329.09 231.379 323.012C231.048 322.494 230.986 322.207 231.698 317.43C232.16 314.334 231.178 313.289 232.722 308.375C233.992 304.335 232.919 304.248 233.9 302.14C238.56 292.134 238.128 292.607 236.005 283.333C235.671 281.874 236.113 282.029 237.747 281.08C239.619 279.992 239.893 276.587 239.725 275.434C239.341 272.801 240.034 271.063 240.3 269.366C240.809 266.132 240.641 266.234 241.663 266.206C242.947 266.17 242.733 265.178 244.089 263.914C248.853 259.475 245.509 256.366 245.754 254.035C245.888 252.752 247.977 242.872 248.214 242.13C249.164 239.161 247.994 235.325 247.624 231.745C247.362 229.218 247.102 225.309 245.306 219.44C244.839 217.914 245.296 216.467 243.442 212.495C241.154 207.591 243.329 205.499 241.335 200.614C239.641 196.466 238.712 196.33 238.461 193.194C237.975 187.116 236.871 185.206 237.444 183.543C238.801 179.602 237.686 178.992 240.083 178.812C240.483 178.782 241.635 178.819 243.19 178.559C250.446 177.347 260.23 177.275 261.235 177.169C273.843 175.834 264.626 147.372 264.403 143.598C264.388 143.348 264.271 143.134 264.106 142.952C263.41 142.185 264.547 141.561 262.897 137.731C261.414 134.287 263.09 135.805 260.876 130.707C260.51 129.863 259.457 127.097 259.498 125.999C259.58 123.799 258.96 122.809 259.015 121.819C259.155 119.277 257.795 118.496 257.078 115.537C255.754 110.071 257.135 110.897 256.084 108.18C254.801 104.864 254.533 98.5207 254.207 96.5395C253.355 91.3643 249.362 88.8471 248.296 86.8116C245.716 81.8848 243.006 80.0445 237.077 74.706C235.382 73.1794 245.026 70.1982 256.713 59.4419C257.918 58.3323 260.828 57.2335 262.735 56.5103C263.463 56.2339 263.945 56.533 264.705 57.0724C267.722 59.2141 269.814 58.4189 271.498 59.2321C272.921 59.9196 273.448 58.5925 275.917 58.6915C278.296 58.7868 278.971 57.2376 282.016 57.1384C282.585 57.1198 282.647 57.805 283.004 58.1064C283.711 58.7029 283.868 59.0149 284.525 58.1347C286.69 55.2337 291.047 61.0959 286.916 52.5979ZM79.7902 30.7621C78.2734 29.7209 75.1222 27.0736 75.1906 25.9705C77.4493 27.2947 77.3836 27.2337 77.4147 27.3383C77.6228 28.0378 77.8766 28.1181 80.5622 30.6254C80.8409 30.8855 80.4139 31.1902 79.7902 30.7621ZM68.6539 32.7564C76.354 36.457 76.0442 33.5754 76.8652 38.1001C76.9249 38.4288 76.1717 38.5154 76.6169 38.9687C80.56 42.9829 72.309 36.2111 68.6539 32.7564ZM62.5066 37.9753C63.603 38.0268 63.603 38.0268 64.0485 38.4282C63.8175 38.6074 63.8046 38.5181 62.5066 37.9753ZM76.5325 82.1421C76.1157 81.8924 76.2283 81.804 76.4503 81.7399C76.528 81.8614 76.8289 82.3196 76.5325 82.1421ZM78.3228 83.6435C78.0998 83.5159 77.8126 83.3994 77.9761 83.2317C77.9852 83.2224 78.3506 83.4161 78.3228 83.6435ZM74.3491 133.701C73.9613 133.757 74.3285 133.467 74.3018 133.326C75.1112 133.51 75.4614 132.827 76.7417 132.928C75.9907 133.397 75.1677 133.582 74.3491 133.701ZM78.2374 133.253C78.7652 132.706 79.4027 132.726 79.9885 132.609C79.4579 132.88 78.9556 133.237 78.2374 133.253ZM80.067 132.574C80.3014 132.025 80.7584 132.229 81.3515 132.198C80.8819 132.664 80.4272 132.455 80.067 132.574ZM93.3461 105.29C92.9832 106.239 92.1539 106.497 91.6098 106.985C93.0609 105.201 92.58 105.681 93.3461 105.29ZM86.1065 112.885C86.0086 113.292 86.0293 113.625 85.6492 113.728C85.5191 113.763 85.4137 113.464 86.1065 112.885ZM84.5853 112.719C84.8858 112.468 85.1907 112.223 85.4946 111.976C85.2323 113.16 84.298 112.959 84.5853 112.719ZM84.6177 113.634C84.5279 114.365 81.4261 116.622 81.2533 116.281C80.7616 115.313 80.4864 116.236 80.3193 116.447C79.9768 116.88 79.6575 116.947 79.1098 116.929C78.3014 116.903 77.4845 117.146 76.5614 116.87C79.7756 114.526 81.0154 115.758 82.6883 114.522C83.2189 114.13 83.9053 113.95 84.6177 113.634ZM82.9607 112.936C82.3217 114.013 81.1637 114.548 79.3985 114.569C80.7413 113.989 81.8524 113.486 82.9607 112.936ZM77.3969 115.694C77.3412 115.893 77.0001 116.033 76.7487 115.999C76.9388 115.671 77.2562 115.623 77.3969 115.694ZM76.4873 114.679C76.6196 114.496 76.934 114.502 77.0889 114.618C76.9224 115.014 76.3042 114.931 76.4873 114.679ZM73.8013 115.745C74.2833 115.235 74.8099 115.241 75.3761 115.579C74.534 116.553 74.534 116.553 73.8013 115.745ZM75.5135 118.311C76.0136 118.219 76.5579 117.874 76.921 118.566C76.4612 118.424 75.9445 118.626 75.5135 118.311ZM83.1892 122.111C80.6074 122.358 82.8658 122.221 79.6025 122.676C81.2068 121.331 82.4675 122.593 85.2432 120.47C86.6079 119.425 85.5412 121.885 83.1892 122.111ZM84.8241 117.95C84.0712 118.411 82.6575 119.816 81.7873 119.713C80.5943 119.572 78.1897 119.266 76.9727 118.588C77.3595 118.611 78.3086 118.101 78.4113 118.21C78.9643 118.8 79.4344 118.216 79.9034 118.095C86.5975 116.377 92.664 107.905 93.2355 108.822C93.3602 109.022 93.5094 109.283 93.2033 109.438C92.6901 109.697 88.4261 115.743 84.8241 117.95ZM90.3974 116.174C90.2411 116.285 90.0927 116.411 89.9252 116.5C89.7359 116.602 89.7097 116.965 89.3928 116.842C89.1727 116.756 89.3283 115.708 90.3974 116.174ZM86.7616 123.557C87.2644 123.351 87.8572 123.403 88.224 122.941C88.3703 122.971 88.5909 122.957 88.641 123.044C88.8604 123.421 87.1637 123.63 86.7616 123.557ZM88.2249 122.923L87.835 122.851C88.0488 122.391 88.4644 122.257 88.881 122.077C88.9031 122.566 88.3305 122.567 88.2249 122.923ZM96.2956 109.841C93.8605 114.17 92.881 114.026 92.8281 115.067C92.8094 115.434 91.316 115.249 91.358 116.762C91.3812 117.602 90.4394 117.643 90.0213 118.565C89.8343 118.977 89.8161 118.415 88.0088 119.621C87.9523 119.659 87.5642 119.468 87.7417 119.264C88.6179 118.258 91.9358 116.371 90.4252 116.17C90.4855 116.025 90.5428 115.882 90.4208 115.734C89.7281 114.894 91.7309 116.195 92.5018 114.123C92.687 113.625 93.3341 113.466 93.3117 112.863C94.5322 111.82 95.0894 110.201 96.4508 109.254C96.6472 109.505 96.39 109.673 96.2956 109.841ZM95.1448 133.944C95.1003 134.649 94.6317 134.912 94.2603 135.236C94.2975 134.698 94.5671 134.304 95.1448 133.944ZM94.3956 143.11C93.8997 143.152 94.1085 143.695 93.5596 143.782C92.9411 143.403 94.4736 142.45 94.3956 143.11ZM98.9185 134.09C99.0402 135.089 98.205 135.657 97.8783 136.451C97.849 136.522 97.7929 136.645 97.7602 136.642C96.7891 136.538 96.7577 137.524 96.2368 137.859C96.3161 138.548 96.993 137.61 97.201 138.203C97.3972 138.763 93.832 140.828 92.9847 141.104C93.059 140.482 92.9736 139.846 93.437 139.357C93.6694 139.112 93.8825 138.597 94.3779 139.082C94.5021 139.204 94.679 139.07 94.774 138.926C94.9873 138.605 95.3903 138.579 95.6753 138.343C95.6823 137.673 94.7603 138.655 95.2427 137.064C95.5171 136.16 95.5044 135.366 96.4502 134.8C97.263 134.314 97.7012 133.452 98.4279 132.88C98.542 132.79 99.0002 131.504 99.8466 131.206C100.066 133.122 98.8787 133.763 98.9185 134.09ZM100.659 143.453C99.2249 142.912 100.417 141.671 99.4418 141.316C99.1543 141.212 99.7521 140.392 100.021 139.959C100.405 140.26 99.8683 140.603 100.147 140.9C100.645 141.003 100.452 140.111 101.087 140.258C101.572 140.371 101.601 139.658 101.965 139.436C101.824 140.796 101.216 142.663 100.659 143.453ZM103.876 152.153C103.322 151.284 103.386 150.986 104.288 150.142C104.331 150.196 104.374 150.249 104.417 150.303C103.794 150.789 103.997 151.519 103.876 152.153ZM102.676 61.2118C103.177 61.5126 103.869 61.3523 104.375 61.9426C103.306 62.4822 102.359 63.2484 101.042 62.7678C100.852 62.6988 100.349 62.414 100.446 63.1058C100.461 63.2155 99.8364 63.0612 99.8974 62.8429C100.1 62.1184 99.1126 62.3768 99.3599 61.7451C99.4824 61.4321 99.643 61.124 99.9991 61.0923C100.893 61.0128 101.797 60.6841 102.676 61.2118ZM106.12 60.7323C105.128 61.6604 104.719 61.6584 103.084 60.752C104.127 60.6758 105.079 60.6317 106.12 60.7323ZM105.711 60.0686C106.003 59.8791 107.549 59.3505 107.543 59.7161C107.535 60.2144 106.208 60.0948 105.711 60.0686ZM94.8083 65.2823C92.4912 59.4824 94.6975 61.2014 98.2861 63.256C97.6949 65.0079 96.1289 64.8862 94.8083 65.2823ZM96.5431 67.7488C96.4072 67.8899 95.0983 68.8116 95.0303 67.6241C94.9923 66.9606 95.2702 66.9962 96.012 66.7883C96.9462 66.5265 97.0554 67.2168 96.5431 67.7488ZM93.5051 54.0933C94.0267 54.0839 94.4248 54.3253 94.8335 54.7378C94.1404 54.9028 93.9008 54.3397 93.5051 54.0933ZM95.1862 57.5543C94.936 57.6734 94.6675 57.6753 94.3225 57.5543H95.1862ZM95.7001 58.4446C96.5217 58.5314 97.3981 58.3898 98.109 59.2074C97.6722 59.3892 97.3006 59.3724 96.9669 59.2935C94.6848 58.7548 94.466 59.8856 93.7795 58.9772C92.7873 57.6643 92.7322 58.1309 95.7001 58.4446ZM98.5059 61.692C98.2954 61.5745 98.0118 61.8247 97.8484 61.5369C97.9988 61.2858 98.2617 61.3816 98.4758 61.337C98.8713 61.2547 98.7416 61.8234 98.5059 61.692ZM99.0371 63.4292C99.2305 63.5201 99.5129 63.4922 99.5931 63.777C99.4655 64.0209 99.2143 64.0216 99.003 64.0507C98.4805 64.1223 98.5914 63.2199 99.0371 63.4292ZM101.62 64.8388C101.01 65.7576 98.8577 67.0612 97.4813 67.4144C97.3548 66.1297 98.1754 66.2699 101.62 64.8388ZM100.123 47.7958C100.718 48.0976 100.374 48.2342 100.274 48.158C99.7126 47.731 100.044 47.7558 100.123 47.7958ZM99.6875 47.2085C98.5499 47.0691 98.2168 46.2729 97.7908 45.5773C98.6161 45.909 98.7015 45.981 99.6875 47.2085ZM97.8877 43.6558C97.838 43.4438 98.1239 43.7391 98.1728 43.7833C98.0598 43.9741 97.9148 43.7713 97.8877 43.6558ZM98.7146 41.843C98.9571 42.2361 98.6491 42.6672 98.2532 42.33C96.2753 40.6451 96.1016 40.1712 95.2997 39.9158C95.2226 39.8913 95.1773 39.7214 95.1499 39.6107C94.98 38.9232 98.5172 41.5229 98.7146 41.843ZM96.6728 45.3353C96.0166 44.7905 95.385 44.2241 94.874 43.2679C95.7791 43.8781 96.1536 44.6702 96.6728 45.3353ZM92.2261 30.766C92.8229 31.7158 95.8746 33.8335 95.6284 34.6927C90.0038 30.0656 92.0327 30.4581 92.2261 30.766ZM92.4452 32.8984C94.9215 34.6346 98.1901 38.3184 98.5741 39.818C97.7105 39.1556 96.768 38.7049 96.0763 37.9048C95.44 37.1688 95.0115 38.033 93.5215 36.6062C92.9642 36.0726 94.0129 36.2115 93.0841 35.0535C92.6026 34.4534 92.5079 33.7187 92.4452 32.8984ZM92.1596 37.8758C93.8804 39.1425 91.5968 38.7736 91.2005 38.4838C89.5969 37.3108 87.0781 35.7247 86.8921 35.1667C88.8172 35.756 90.5515 36.6921 92.1596 37.8758ZM81.4069 36.3483C85.8091 37.4824 89.0308 37.7434 89.0686 38.8707C89.0717 38.9643 89.3726 39.3434 89.7498 39.4122C90.0714 39.4709 90.3442 39.787 90.6444 39.9802C92.0418 40.8795 93.0565 42.1478 94.0798 43.4327C95.3974 45.087 97.0462 46.235 96.9981 46.7469C95.7328 46.6725 93.8244 43.6044 93.5187 43.9426C93.5886 44.7142 95.0088 45.5901 95.1066 46.1101C93.5801 45.4409 92.4098 44.2814 90.8812 43.6709C89.4006 43.0795 88.1401 42.0336 86.8461 41.0986C81.9356 37.5493 73.6583 34.3518 81.4069 36.3483ZM78.029 36.7531C78.1694 36.6725 78.4815 36.2664 92.1938 45.394C91.6935 45.3754 91.3305 45.2962 91.0081 45.0777C89.4346 44.012 82.9535 42.5843 87.2985 44.1865C88.7043 44.7048 91.0344 46.1683 92.4282 46.3218C94.5228 46.5525 95.6695 47.8747 97.1219 49.5691C97.7304 50.2791 100.907 51.9581 100.963 52.6682C100.431 52.6309 99.8909 52.5474 99.381 52.768C99.2704 52.8158 96.678 52.162 95.1541 51.2189C94.2201 50.6409 94.1576 51.1015 92.8512 50.2512C79.1581 41.3385 83.0728 44.4742 85.6469 44.2097C84.586 43.5823 83.3596 43.4344 82.1875 42.9868C82.3482 42.6114 82.762 42.7157 82.9555 42.4922C82.4091 41.5527 81.2367 42.4225 80.3437 40.8127C80.1268 40.4217 80.0151 40.2531 78.7861 38.3035C78.6285 39.1536 79.3641 39.6313 79.0689 40.2752C78.2075 39.2444 78.3255 37.9373 78.029 36.7531ZM80.864 47.9575C80.9916 47.6449 81.2303 47.6287 81.3862 47.7036C91.6529 52.6303 92.548 55.3838 80.864 47.9575ZM87.7737 53.9294C87.4845 54.3777 86.2493 53.0183 86.1326 52.2845C86.5162 52.5255 87.9836 53.6041 87.7737 53.9294ZM79.7015 44.591C80.0866 45.3704 78.4279 45.1627 79.0248 43.9295C79.3666 44.1464 79.5749 44.3346 79.7015 44.591ZM79.0746 42.578C79.4441 42.9299 79.9995 43.1634 79.9706 43.9217C79.3827 43.6006 79.3687 42.9789 79.0746 42.578ZM79.2252 51.4742C78.9328 51.384 78.5105 51.5558 78.4307 51.0579C78.4078 50.9153 78.6883 50.7437 79.2252 51.4742ZM79.0846 47.2352C79.0726 47.1447 79.3066 46.5655 79.7354 46.8596C79.8374 46.9296 80.1583 47.1166 80.1529 47.2453C80.1439 47.4627 79.1358 47.6222 79.0846 47.2352ZM80.6005 48.8722C82.7541 49.5844 82.1189 49.7446 85.3637 52.4441C85.7116 52.7336 85.7258 52.7163 85.8 53.5059C85.6277 53.4487 80.9874 52.5474 80.16 49.3322C80.0688 48.9779 80.2568 48.7585 80.6005 48.8722ZM80.692 45.487C81.0893 45.6257 81.1503 46.0359 80.8963 46.0305C80.4596 46.0214 80.3363 45.3629 80.692 45.487ZM91.6217 55.2941C90.4036 55.0099 89.1462 54.7938 88.3551 53.4271C89.7063 53.8191 90.8525 54.2285 91.6217 55.2941ZM92.7361 58.9318C92.1398 58.7684 92.5614 59.0785 91.1348 57.7608C91.3592 57.1299 92.5731 58.2697 92.7361 58.9318ZM92.6359 53.9909C91.8482 54.292 92.1912 53.4523 89.0381 51.6191C90.4275 51.6475 90.1467 52.0373 92.1875 53.131C92.9002 53.5129 92.8237 53.9192 92.6359 53.9909ZM77.112 45.5842C77.4032 45.6712 78.8217 46.3017 78.6595 46.5796C78.6277 46.6339 78.4929 46.6967 78.4791 46.6824C78.0766 46.2622 77.0052 46.7307 77.112 45.5842ZM77.3136 49.7672C77.5556 49.408 77.6531 49.5576 77.8357 49.8948C77.7465 51.0261 76.4072 51.1123 77.3136 49.7672ZM77.2117 53.2266C77.3795 52.7877 77.5841 52.7393 78.0279 52.9058C80.1387 53.6981 78.6158 52.8956 83.3154 54.7497C85.0123 55.4191 86.5963 56.3724 88.3799 56.8212C89.8298 57.1861 90.9176 58.0661 91.9127 59.3083C90.1459 59.3054 88.5788 58.6051 86.9486 58.6341C86.8822 59.0138 87.2839 58.9392 87.2404 59.1893C85.2099 59.0352 82.8743 58.7277 78.4538 57.1094C77.4871 56.7555 78.3561 56.0346 79.1253 56.4732C80.5644 57.2936 82.1756 57.6588 83.7155 58.21C85.3801 58.8058 86.1463 58.3183 84.4144 57.8877C78.0545 56.3059 80.9125 55.4109 78.7508 55.532C78.0434 55.5716 77.6113 55.0048 77.0609 54.7018C76.742 54.5261 77.0811 53.5678 77.2117 53.2266ZM77.0957 55.6898C76.9421 56.4082 76.3579 56.1434 76.3938 55.8298C76.5011 54.894 77.0311 55.2045 77.0957 55.6898ZM76.7245 49.1083C76.7091 49.425 76.0863 50.2983 75.8611 50.3189C75.4846 50.3533 74.8446 49.9729 74.8133 49.696C74.7691 49.3032 75.3234 48.4163 75.654 48.3508C76.0139 48.2797 76.7398 48.7934 76.7245 49.1083ZM73.6793 42.2973C75.3247 43.2135 77.5483 45.2391 74.7873 43.3073C73.3715 42.3167 73.4166 42.6179 73.6793 42.2973ZM74.2038 45.5708C73.4631 45.2065 73.1921 45.6904 72.4556 45.52C71.9893 45.4121 72.4465 44.931 72.1331 44.7436C71.949 44.6336 71.7021 44.5514 71.779 44.211C72.3241 41.8011 76.5275 46.7134 74.2038 45.5708ZM74.6686 48.0412C74.461 48.6334 74.0166 49.2218 73.9232 49.1572C73.4382 48.8221 72.6536 49.0278 72.362 48.6715C71.9118 48.1213 71.2973 47.6233 71.1393 46.8458C71.0615 46.4628 71.4413 46.3928 71.6612 46.4792C74.4725 47.583 74.6305 47.5653 74.6686 48.0412ZM65.2601 39.1729C64.8547 38.9535 64.8897 38.3592 65.508 38.5057C70.7855 39.7557 72.9621 42.0583 71.7977 41.7337C70.96 41.5003 70.0998 41.3888 69.3019 40.9608C67.9603 40.2412 65.3631 39.2287 65.2601 39.1729ZM65.562 40.1846C69.0297 41.4411 68.8977 41.1194 66.5316 41.3566C65.5791 41.4521 65.4637 41.3174 65.562 40.1846ZM68.3675 44.4929C67.7052 44.8737 67.0219 44.2353 66.7065 43.5871C65.9237 41.9785 66.5767 41.9823 68.2005 42.0205C69.3243 42.047 71.8834 42.3713 71.4404 43.4014C71.2512 43.8412 71.1356 44.3086 70.8848 44.7274C70.3981 45.5404 69.4676 45.5841 68.9082 44.7673C68.7516 44.5384 68.629 44.3426 68.3675 44.4929ZM69.7351 46.7718C69.3628 46.5614 68.8967 46.5149 68.5372 46.0267C70.7572 45.2336 70.6709 47.3005 69.7351 46.7718ZM71.116 52.6854C70.1078 51.3541 70.549 48.8937 71.3136 49.2133C74.6421 50.6044 71.847 50.8385 71.116 52.6854ZM75.1604 54.5617C75.1434 55.9058 73.9281 54.807 73.4426 54.8751C73.5546 55.4689 74.0682 55.5029 74.4628 55.7702C73.7459 55.7799 73.1646 55.5833 72.6973 55.1005C72.154 54.5389 73.6266 54.828 72.8548 54.2049C72.1437 53.6308 71.8989 52.9378 72.4215 52.1954C73.4401 50.7488 73.9113 50.3871 74.8207 50.9748C76.2054 51.8695 75.1914 52.1153 75.1604 54.5617ZM87.4911 68.4578C87.4485 69.2867 87.2945 69.4675 86.5068 69.4763C85.9501 69.4825 85.3861 69.5467 84.8364 69.3823C83.6435 69.0255 82.9767 69.9616 77.7471 69.1666C76.2385 68.9372 74.0394 67.5475 74.6353 65.7987C74.979 64.7896 75.3373 63.7615 76.0901 62.7412C76.3249 64.3811 76.937 65.6672 78.2854 66.4823C78.6929 66.0879 77.1106 65.1942 76.713 63.0243C78.3455 64.0496 81.6174 66.3862 85.2907 67.1853C86.7974 67.5131 85.3756 67.7231 86.8361 67.7196C87.4224 67.7183 87.5221 67.8529 87.4911 68.4578ZM87.0918 65.8304C75.5565 63.7653 76.0398 58.3136 78.0925 58.9358C94.4197 63.8846 92.3185 58.0886 93.8028 64.4474C94.1506 65.9374 88.6178 66.2096 88.1948 65.4475C87.9631 65.0299 87.8763 65.9709 87.0918 65.8304ZM87.9316 69.0779C87.6583 68.117 87.8338 67.3747 88.558 67.6209C89.6159 67.9805 91.0557 67.5786 91.2685 67.6289C93.1827 68.0822 94.04 66.5477 94.5166 67.6788C94.6533 68.0035 94.7087 68.3209 94.2931 68.4731C93.8072 68.6512 93.3174 68.8944 92.8152 68.9352C91.5729 69.0358 89.926 69.7079 89.6984 69.0554C89.4897 68.4571 88.2816 70.3079 87.9316 69.0779ZM94.0565 76.876C94.0531 76.5564 91.7815 76.576 91.0083 75.2088C90.3109 73.976 90.4017 74.9577 89.8859 74.3983C89.3181 73.7825 87.4638 71.0246 88.7427 70.7629C94.0798 69.6712 91.6826 70.1203 93.4986 69.7059C95.2997 69.295 94.5759 70.623 95.2076 71.0025C95.1648 71.113 95.0783 71.2307 95.0948 71.3313C96.032 77.0503 96.1129 75.0721 96.8586 76.6434C94.517 77.2866 94.0635 77.5358 94.0565 76.876ZM100.607 80.9707C101.264 79.2418 102.724 78.3792 104.124 77.452C103.161 78.8437 101.839 79.8724 100.607 80.9707ZM107.097 66.8935C105.74 69.7469 105.487 70.5391 104.494 70.6971C103.739 70.8173 104.294 71.2386 103.105 72.7047C102 74.0677 103.077 73.7926 102.412 74.3411C101.194 75.3458 98.7947 76.8967 97.2768 75.7136C95.219 74.1098 96.7394 73.2847 95.2234 71.0116C95.4912 70.3137 94.7742 69.0499 95.9497 69.0842C96.4195 69.0979 96.7453 68.9698 97.127 68.6989C98.6767 67.5992 107.361 66.3378 107.097 66.8935ZM107.112 65.5177C106.383 66.1666 106.527 65.992 101.065 67.0284C102.114 66.2332 103.209 65.5983 104.311 64.9918C105.298 64.4493 107.874 64.8396 107.112 65.5177ZM107.184 63.1869C106.888 63.1736 107.188 62.9391 107.475 62.7872C107.686 62.6757 107.692 63.2095 107.184 63.1869ZM109.246 48.7604C108.776 49.4109 105.388 46.7259 104.259 44.7657C103.238 42.995 103.789 42.4621 102.915 41.0024C102.501 40.3101 102.327 39.5366 102.399 38.6629C102.975 39.4254 103.652 40.1321 104.104 40.9627C107.59 47.375 109.774 48.0292 109.246 48.7604ZM110.47 47.2285C110.478 47.2772 109.953 47.4374 110.248 46.6439C110.292 46.5239 110.45 46.4735 110.535 46.571C110.727 46.7924 110.434 46.9996 110.47 47.2285ZM119.452 158.278C119.47 157.169 119.47 157.169 120.195 155.967C120.201 156.888 120.303 157.671 119.452 158.278ZM131.331 149.067C130.842 149.156 131 148.152 131 147.522C131.957 147.767 131.949 148.954 131.331 149.067ZM157.787 13.2651C158.516 13.9294 161.455 15.4136 161.075 16.1481C160.874 16.5347 160.526 16.1728 160.245 16.1158C159.266 15.917 158.676 15.7617 158.36 14.8944C157.765 13.2552 156.309 13.7372 156.123 12.4187C156.767 12.734 157.375 12.8905 157.787 13.2651ZM149.415 10.9505C149.613 10.9545 149.561 11.1683 149.55 11.3174L147.998 11.4386C148.532 11.0058 148.974 10.9416 149.415 10.9505ZM150.176 12.4166C149.319 12.4791 149.208 12.2408 149.561 11.3281C150.662 10.9397 151.675 11.2393 152.653 11.7506C153.987 12.4485 154.276 11.4584 154.731 12.0748C155.322 12.8765 154.934 13.3594 154.33 13.3687C153.511 13.3813 152.185 12.2703 150.176 12.4166ZM160.113 424.546C159.906 427.068 157.874 438.186 156.475 438.066C153.412 437.804 159.458 394.554 159.807 400.437C160.138 406.021 160.757 416.679 160.113 424.546ZM185.975 105.187C185.477 106.115 183.082 113.783 182.692 114.467C182.442 114.903 182.177 115.018 181.819 114.726C180.854 113.942 179.721 113.416 178.752 112.65C176.364 110.764 176.206 111.693 175.626 110.564C173.139 105.72 172.292 104.697 173.345 104.159C174.304 103.668 175.235 103.091 176.243 102.736C184.918 99.6806 184.434 98.7752 186.311 98.7436C186.671 98.7376 186.851 98.4237 187.298 98.3268C187.182 100.738 187.117 103.06 185.975 105.187ZM189.673 76.9258C188.956 77.5371 188.945 77.3962 183.374 78.9662C182.17 79.3053 181.152 78.8165 178.991 79.2067C177.337 79.5055 176.836 79.2303 176.024 79.4974C175.839 79.5581 175.618 79.6237 175.442 79.5769C174.252 79.2595 173.06 79.5531 171.875 79.5141C168.244 79.3947 168.468 79.2466 168.066 79.4224C166.69 80.0255 165.943 79.2741 164.169 79.3441C153.519 79.7641 152.571 81.3352 152.364 79.8857C151.793 75.8944 151.883 75.7196 152.2 75.262C153.163 73.8707 153.755 72.5231 155.665 72.7912C159.243 73.2933 161.164 74.0975 164.705 72.4254C167.064 71.3113 167.461 68.9122 166.648 66.8995C166.056 65.4364 166.869 64.5155 167.931 62.8526C169.118 60.9946 167.351 60.5967 168.097 59.4489C169.397 57.4486 166.444 54.5976 169.749 54.143C171.966 53.8379 171.508 52.0291 173.246 52.4718C175.029 52.9259 177.094 51.9964 176.513 53.8727C175.91 55.8233 176.015 56.2525 177.131 57.3365C179.33 59.4705 176.445 59.2463 178.355 61.8346C180.892 65.2747 180.992 65.053 180.825 66.2981C180.642 67.6669 180.683 70.5049 182.063 71.2736C185.502 73.1884 182.587 72.3429 189.832 70.9663C194.716 70.0381 194.66 68.9644 195.57 70.1657C197.889 73.2287 195.033 72.3526 189.673 76.9258ZM246.304 53.3027C245.883 53.5684 245.15 53.136 245.552 52.7618C245.919 52.1379 246.853 52.9567 246.304 53.3027ZM280.839 52.8556C278.004 52.8951 277.004 53.8022 276.041 54.1072C274.246 54.6759 274.913 53.336 273.509 51.7648C273.123 51.333 273.121 50.3878 273.618 50.3367C276.903 49.9983 273.329 49.9266 279.306 51.0927C279.994 51.2271 282.471 52.8329 280.839 52.8556Z" fill="#C69C6E"/>
</svg>
