<svg width="270" height="270" viewBox="0 0 270 270" fill="none" xmlns="http://www.w3.org/2000/svg">
<path d="M118.5 0.600002C59.4 9.6 14.9 50.7 2.40001 108C-0.199987 119.9 -0.299987 149.9 2.30001 161.8C8.30001 189 20.4 211.5 39.5 230.5C59.5 250.6 84.6 263.7 111.9 268.4C124.1 270.5 146.6 270.5 158.5 268.4C214 258.8 258.8 214 268.4 158.5C270.5 146.6 270.5 124.1 268.4 111.9C260 63.2 224.4 22 177.5 6.6C163.3 2 156.3 0.900002 138.5 0.500002C129.2 0.300002 120.2 0.400002 118.5 0.600002ZM182.3 55.3C199.6 60.3 209.9 70.7 214.8 88.3C216.3 93.7 216.5 99.7 216.5 135C216.5 170.3 216.3 176.3 214.8 181.7C209.9 199.5 199.5 209.9 181.7 214.8C176.3 216.3 170.3 216.5 135 216.5C99.7 216.5 93.7 216.3 88.3 214.8C70.5 209.9 60.1 199.5 55.2 181.7C53.7 176.3 53.5 170.3 53.5 135C53.5 99.4 53.7 93.7 55.3 88.1C60.9 67.8 74.1 56.7 95.8 54C99.5 53.5 119.2 53.3 139.5 53.4C170.2 53.7 177.5 54 182.3 55.3Z" fill="#05213A"/>
<path d="M92.2 69.5C84.7 71.2 80.2 73.8 75.6 79.2C68.7 87.2 68.5 88.6 68.5 134.5C68.5 182.9 68.6 183.8 77.3 192.4C86.3 201.3 87.3 201.5 135 201.5C182.6 201.5 183.8 201.3 192.5 192.5C201.3 183.8 201.5 182.6 201.5 135C201.5 87.3 201.3 86.3 192.4 77.3C183.9 68.8 183.2 68.6 137.5 68.3C107 68.2 97.1 68.4 92.2 69.5ZM185.5 84.5C191.3 90.2 186.7 101 178.5 101C175.8 101 174.1 100.2 171.9 98.1C168.1 94.2 168 89.4 171.6 85.1C173.8 82.5 174.9 82 178.6 82C182 82 183.7 82.6 185.5 84.5ZM147.3 95C174.4 103.4 185.5 135.7 169.3 159C146.8 191.2 96.3 177.1 93.3 137.9C91 108.6 119.2 86.3 147.3 95Z" fill="#05213A"/>
<path d="M124 110.1C113.9 114.6 108 123.9 108 135C108.1 150.6 119.5 162 135 162C150.5 162 161.9 150.6 162 135C162 119.5 150.6 108 135 108C130.6 108 127 108.7 124 110.1Z" fill="#05213A"/>
</svg>
