<svg width="167" height="476" viewBox="0 0 167 476" fill="none" xmlns="http://www.w3.org/2000/svg">
<path fill-rule="evenodd" clip-rule="evenodd" d="M21.5179 475.479L35.6842 327.626L52.2861 329.048L66.8621 472.641" fill="white"/>
<path fill-rule="evenodd" clip-rule="evenodd" d="M117.065 474.057L131.231 326.204L147.834 327.626L162.408 471.219" fill="white"/>
<path d="M151.81 101.358C151.81 101.358 143.106 106.702 135.044 103.163C126.982 99.6249 117.838 90.0598 127.075 77.3129C136.313 64.5672 151.474 74.5522 151.474 74.5522M101.607 122.767C101.607 122.767 98.7036 121.076 98.9701 117.374C99.2366 113.673 100.903 111.558 104.611 112.561C108.32 113.563 109.718 115.148 109.718 115.148C109.718 115.148 106.277 110.445 107.403 105.316C108.529 100.188 113.204 98.283 117.557 100.818C121.911 103.353 122.504 105.627 122.504 105.627L101.607 122.767Z" stroke="#C69C6E" stroke-width="1.125" stroke-miterlimit="14.3"/>
<path fill-rule="evenodd" clip-rule="evenodd" d="M31.9652 315.625C31.9652 315.625 29.4397 318.517 28.6826 325.106C27.9255 331.695 30.8851 336.81 30.5692 343.007C30.2534 349.204 34.6231 340.722 34.6231 340.722C34.6231 340.722 32.9182 345.186 36.1338 352.391C40.6677 362.553 39.3441 372.014 39.3441 372.014L41.3824 365.074C41.3824 365.074 44.2379 366.871 44.1515 376.806C44.065 386.741 44.5451 410.369 44.5451 410.369C44.5451 410.369 49.7796 382.053 51.3768 375.505C52.9739 368.958 54.8429 365.324 54.8429 365.324C54.8429 365.324 55.5453 367.055 56.7737 368.733C58.3497 370.88 56.2231 365.929 59.2956 360.574C61.1451 357.353 60.1798 351.507 60.1798 351.507L62.6153 353.283C62.6153 353.283 65.0314 347.191 64.4225 342.606C63.8137 338.02 64.6749 337.649 64.6749 337.649L65.9138 338.124C65.9138 338.124 68.2469 333.683 67.6593 328.686C67.0716 323.687 65.2238 318.626 65.2238 318.626" fill="white"/>
<path d="M31.9652 315.625C31.9652 315.625 29.4397 318.517 28.6826 325.106C27.9255 331.695 30.8851 336.81 30.5692 343.007C30.2532 349.204 34.623 340.722 34.623 340.722C34.623 340.722 32.9182 345.186 36.1337 352.391C40.6676 362.553 39.344 372.014 39.344 372.014L41.3824 365.074C41.3824 365.074 44.2379 366.871 44.1514 376.806C44.0649 386.741 44.545 410.369 44.545 410.369C44.545 410.369 49.7795 382.053 51.3767 375.505C52.9739 368.958 54.8429 365.324 54.8429 365.324C54.8429 365.324 55.5453 367.055 56.7736 368.733C58.3496 370.88 56.223 365.929 59.2955 360.574C61.1451 357.353 60.1798 351.507 60.1798 351.507L62.6152 353.283C62.6152 353.283 65.0313 347.191 64.4225 342.606C63.8136 338.02 64.6748 337.649 64.6748 337.649L65.9137 338.124C65.9137 338.124 68.2469 333.683 67.6591 328.686C67.0714 323.687 65.2236 318.626 65.2236 318.626" stroke="#C69C6E" stroke-width="2.25" stroke-miterlimit="14.3"/>
<path fill-rule="evenodd" clip-rule="evenodd" d="M59.4687 318.709C59.4687 318.709 60.8188 320.226 60.9088 323.417C60.9988 326.607 58.9498 328.897 58.798 331.876C58.6463 334.856 56.5002 330.567 56.5002 330.567C56.5002 330.567 57.5908 333.441 55.2736 336.715C52.0051 341.334 52.9387 345.272 52.9387 345.272L50.625 340.959C50.625 340.959 49.3172 342.56 48.8231 347.313C48.3289 352.067 47.3053 356.403 47.3053 356.403C47.3053 356.403 45.1716 349.524 44.5769 346.308C43.9822 343.093 43.8745 340.9 43.8745 340.9C43.8745 340.9 42.5509 342.046 41.7231 342.782C40.6642 343.727 42.2067 341.471 40.666 338.747C39.7376 337.108 40.636 334.365 40.636 334.365L39.0829 335.085C39.0829 335.085 37.9746 332.043 38.5905 329.884C39.2064 327.724 38.7105 327.5 38.7105 327.5L37.9446 327.661C37.9446 327.661 36.7957 325.414 37.4204 323.055C38.0452 320.695 39.4288 318.376 39.4288 318.376" fill="white"/>
<path d="M59.4687 318.709C59.4687 318.709 60.8188 320.226 60.9088 323.417C60.9988 326.607 58.9498 328.897 58.798 331.876C58.6463 334.856 56.5002 330.567 56.5002 330.567C56.5002 330.567 57.5908 333.441 55.2736 336.715C52.0051 341.334 52.9387 345.272 52.9387 345.272L50.625 340.959C50.625 340.959 49.3172 342.56 48.8231 347.313C48.3289 352.067 47.3053 356.403 47.3053 356.403C47.3053 356.403 45.1716 349.524 44.5769 346.308C43.9822 343.093 43.8745 340.9 43.8745 340.9C43.8745 340.9 42.5509 342.046 41.7231 342.782C40.6642 343.727 42.2067 341.471 40.666 338.747C39.7376 337.108 40.636 334.365 40.636 334.365L39.0829 335.085C39.0829 335.085 37.9746 332.043 38.5905 329.884C39.2064 327.724 38.7105 327.5 38.7105 327.5L37.9446 327.661C37.9446 327.661 36.7957 325.414 37.4204 323.055C38.0452 320.695 39.4288 318.376 39.4288 318.376" stroke="#C69C6E" stroke-width="2.25" stroke-miterlimit="14.3" stroke-linecap="round" stroke-linejoin="round"/>
<path fill-rule="evenodd" clip-rule="evenodd" d="M153.627 301.472C153.627 301.472 156.112 304.4 156.774 310.999C157.437 317.597 154.405 322.671 154.633 328.871C154.86 335.071 150.611 326.531 150.611 326.531C150.611 326.531 152.252 331.017 148.934 338.18C144.256 348.279 145.445 357.756 145.445 357.756L143.506 350.788C143.506 350.788 140.625 352.547 140.569 362.482C140.512 372.417 139.695 396.037 139.695 396.037C139.695 396.037 134.867 367.651 133.363 361.083C131.859 354.515 130.042 350.853 130.042 350.853C130.042 350.853 129.316 352.575 128.063 354.235C126.457 356.362 128.653 351.44 125.658 346.044C123.856 342.797 124.904 336.965 124.904 336.965L122.442 338.708C122.442 338.708 120.114 332.583 120.787 328.006C121.461 323.43 120.605 323.046 120.605 323.046L119.359 323.504C119.359 323.504 117.091 319.032 117.75 314.042C118.408 309.052 120.328 304.017 120.328 304.017" fill="white"/>
<path d="M153.627 301.472C153.627 301.472 156.112 304.4 156.774 310.999C157.437 317.597 154.405 322.671 154.633 328.871C154.86 335.071 150.611 326.531 150.611 326.531C150.611 326.531 152.252 331.017 148.934 338.18C144.256 348.279 145.445 357.756 145.445 357.756L143.506 350.788C143.506 350.788 140.625 352.547 140.569 362.482C140.512 372.417 139.695 396.037 139.695 396.037C139.695 396.037 134.867 367.651 133.363 361.083C131.859 354.515 130.042 350.853 130.042 350.853C130.042 350.853 129.316 352.575 128.063 354.235C126.457 356.362 128.653 351.44 125.658 346.044C123.856 342.797 124.904 336.965 124.904 336.965L122.442 338.708C122.442 338.708 120.114 332.583 120.787 328.006C121.461 323.43 120.605 323.046 120.605 323.046L119.359 323.504C119.359 323.504 117.091 319.032 117.75 314.042C118.408 309.052 120.328 304.017 120.328 304.017" stroke="#C69C6E" stroke-width="2.25" stroke-miterlimit="14.3"/>
<path fill-rule="evenodd" clip-rule="evenodd" d="M126.144 304.111C126.144 304.111 124.773 305.609 124.637 308.798C124.501 311.988 126.519 314.304 126.628 317.285C126.737 320.267 128.943 316.009 128.943 316.009C128.943 316.009 127.812 318.867 130.083 322.173C133.285 326.835 132.297 330.76 132.297 330.76L134.67 326.479C134.67 326.479 135.955 328.099 136.382 332.859C136.809 337.62 137.769 341.967 137.769 341.967C137.769 341.967 140.002 335.118 140.643 331.911C141.283 328.705 141.421 326.513 141.421 326.513C141.421 326.513 142.729 327.676 143.546 328.425C144.592 329.383 143.081 327.107 144.661 324.405C145.612 322.779 144.753 320.023 144.753 320.023L146.295 320.765C146.295 320.765 147.448 317.738 146.864 315.571C146.278 313.403 146.775 313.186 146.775 313.186L147.539 313.358C147.539 313.358 148.72 311.127 148.129 308.76C147.536 306.392 146.188 304.052 146.188 304.052" fill="white"/>
<path d="M126.144 304.111C126.144 304.111 124.773 305.609 124.637 308.798C124.501 311.988 126.519 314.304 126.628 317.285C126.737 320.267 128.943 316.009 128.943 316.009C128.943 316.009 127.812 318.867 130.083 322.173C133.285 326.835 132.296 330.76 132.296 330.76L134.67 326.479C134.67 326.479 135.955 328.099 136.382 332.859C136.809 337.62 137.769 341.967 137.769 341.967C137.769 341.967 140.002 335.118 140.642 331.911C141.283 328.705 141.421 326.513 141.421 326.513C141.421 326.513 142.728 327.676 143.546 328.425C144.592 329.383 143.081 327.107 144.661 324.405C145.612 322.779 144.753 320.023 144.753 320.023L146.295 320.765C146.295 320.765 147.448 317.738 146.863 315.571C146.278 313.403 146.775 313.186 146.775 313.186L147.539 313.358C147.539 313.358 148.72 311.127 148.129 308.76C147.536 306.392 146.188 304.052 146.188 304.052" stroke="#C69C6E" stroke-width="2.25" stroke-miterlimit="14.3" stroke-linecap="round" stroke-linejoin="round"/>
<path fill-rule="evenodd" clip-rule="evenodd" d="M124.769 260.927L134.877 72.5073C134.877 72.5073 135.078 54.4053 131.663 46.3806C128.248 38.3559 118.098 12.4717 107.362 11.9146L105.828 11.8347C95.0889 11.2774 82.2269 35.9651 77.9733 43.592C73.7183 51.2195 71.9817 69.2412 71.9817 69.2412L61.8743 257.66C61.8743 257.66 58.7929 274.434 92.1728 276.167C125.553 277.9 124.769 260.926 124.769 260.926" fill="white"/>
<path d="M124.769 260.926L134.877 72.5073C134.877 72.5073 135.078 54.4052 131.663 46.3806C128.248 38.3559 118.098 12.4717 107.362 11.9146L105.828 11.8347C95.0889 11.2774 82.2269 35.965 77.9733 43.5919C73.7183 51.2195 71.9817 69.2412 71.9817 69.2412L61.8743 257.66C61.8743 257.66 58.7929 274.434 92.1728 276.167C125.553 277.9 124.769 260.926 124.769 260.926V260.926Z" stroke="#C69C6E" stroke-width="2.25" stroke-miterlimit="14.3"/>
<path d="M69.8197 115.253C69.8197 115.253 83.1904 109.307 102.263 110.223C122.862 111.213 131.617 118.224 131.617 118.224M72.9867 56.4593C72.9867 56.4593 86.5193 46.5715 105.587 47.5608C126.181 48.6303 134.767 59.6661 134.767 59.6661L72.9867 56.4593ZM72.4716 69.1287C72.4716 69.1287 85.8647 61.8748 104.938 62.7932C125.537 63.7828 134.49 73.1151 134.49 73.1151L72.4716 69.1287Z" stroke="#C69C6E" stroke-width="1.125" stroke-miterlimit="11.5"/>
<path d="M73.8464 68.4102L70.052 114.266M131.357 69.993L128.539 116.486L131.357 69.993ZM129.639 69.1735L127.023 115.331L129.639 69.1735ZM127.732 68.5153L125.091 115.021L127.732 68.5153ZM125.673 67.4979L123.056 113.654L125.673 67.4979ZM123.601 66.6543L120.933 113.507L123.601 66.6543ZM121.377 65.4493L118.848 112.836L121.377 65.4493ZM116.639 64.5933L113.796 111.435L116.639 64.5933ZM118.914 65.1024L116.247 111.957L118.914 65.1024ZM114.351 63.3334L111.711 110.766L114.351 63.3334ZM112.355 63.5223L109.399 110.779L112.355 63.5223ZM110.07 63.4131L107.278 110.63L110.07 63.4131ZM107.786 63.3039L104.814 110.285L107.786 63.3039ZM105.213 62.8718L102.179 109.757L105.213 62.8718ZM133.038 71.334L130.217 117.245L133.038 71.334ZM75.7066 67.2712L71.8257 113.705L75.7066 67.2712ZM77.5279 66.6529L73.4953 112.731L77.5279 66.6529ZM79.5152 66.2174L75.456 112.642L79.5152 66.2174ZM81.7035 65.439L77.6709 111.517L81.7035 65.439ZM83.8796 64.8365L79.7957 111.611L83.8796 64.8365ZM86.2585 63.8933L81.9593 111.181L86.2585 63.8933ZM91.08 63.5787L87.1726 110.362L91.08 63.5787ZM88.7504 63.8267L84.6683 110.601L88.7504 63.8267ZM93.5293 62.5867L89.3378 109.932L93.5293 62.5867ZM95.483 63.0016L91.6286 110.206L95.483 63.0016ZM97.765 63.1507L93.7535 110.298L97.765 63.1507ZM100.047 63.3004L96.2472 110.235L100.047 63.3004ZM102.643 63.2015L98.9192 110.048L102.643 63.2015Z" stroke="#C69C6E" stroke-width="0.5625" stroke-miterlimit="14.3"/>
<path d="M66.7755 167.744C66.7755 167.744 79.8866 165.721 98.9541 166.711C119.548 167.78 128.555 170.953 128.555 170.953" stroke="#C69C6E" stroke-width="1.125" stroke-miterlimit="11.5"/>
<path d="M107.12 6.69421L107.413 1.24072" stroke="#C69C6E" stroke-width="2.25" stroke-miterlimit="11.5" stroke-linecap="round" stroke-linejoin="round"/>
<path fill-rule="evenodd" clip-rule="evenodd" d="M104.726 6.5498L109.361 6.7894L109.126 11.1543L104.492 10.913" fill="white"/>
<path d="M104.726 6.54983L109.361 6.78943L109.126 11.1543L104.492 10.913L104.726 6.5498V6.54983Z" stroke="#C69C6E" stroke-width="2.25" stroke-miterlimit="11.5" stroke-linecap="round" stroke-linejoin="round"/>
<path d="M108.738 13.3665C108.738 13.3665 111.403 38.0835 111.094 51.3017C110.784 64.52 110.48 70.1766 110.48 70.1766L100.165 262.484M123.632 260.886C123.632 260.886 110.47 263.844 91.401 262.854C70.8072 261.785 61.8485 257.679 61.8485 257.679L123.632 260.886Z" stroke="#C69C6E" stroke-width="1.125" stroke-miterlimit="11.5"/>
<path fill-rule="evenodd" clip-rule="evenodd" d="M125.691 249.481L126.557 252.805L126.326 263.66L125.031 266.304L126.1 269.438L126.137 273.945L124.792 277.485L125.218 281.678L124.57 285.625L126.142 289.198L120.181 302.916C120.181 302.916 128.386 296.42 141.031 297.302C153.676 298.184 156.072 303.245 156.072 303.245L152.022 290.46L153.173 286.638L152.618 282.176L153.409 278.087L152.091 274.155L152.403 269.828L153.834 266.943L152.244 264.382L153.167 249.948C153.167 249.948 155.102 247.729 155.297 245.024C155.493 242.319 153.882 241.663 153.882 241.663L154.193 237.336L158.044 84.3035L148.764 59.7376C148.764 59.7376 147.975 55.3345 145.776 55.18C143.577 55.0255 142.049 60.9009 142.049 60.9009L132.165 83.0431L125.69 249.479" fill="white"/>
<path d="M125.691 249.481L126.557 252.805L126.326 263.66L125.031 266.304L126.1 269.438L126.137 273.945L124.792 277.485L125.218 281.678L124.57 285.625L126.142 289.198L120.181 302.915C120.181 302.915 128.386 296.42 141.031 297.302C153.676 298.184 156.072 303.245 156.072 303.245L152.022 290.46L153.173 286.638L152.618 282.176L153.409 278.087L152.091 274.155L152.403 269.828L153.834 266.943L152.244 264.382L153.167 249.948C153.167 249.948 155.102 247.729 155.297 245.024C155.493 242.319 153.882 241.663 153.882 241.663L154.193 237.336L158.044 84.3035L148.764 59.7376C148.764 59.7376 147.975 55.3345 145.776 55.18C143.577 55.0255 142.049 60.9009 142.049 60.9009L132.165 83.0431L125.69 249.479L125.691 249.481Z" stroke="#C69C6E" stroke-width="2.25" stroke-miterlimit="11.5" stroke-linecap="round" stroke-linejoin="round"/>
<path fill-rule="evenodd" clip-rule="evenodd" d="M37.0248 263.716L37.8031 267.014L37.3248 277.731L35.9836 280.312L36.9666 283.432L36.9013 287.884L35.4912 291.351L35.8124 295.501L35.0818 299.383L36.5537 302.948L30.3485 316.362C30.3485 316.362 38.601 310.132 51.0693 311.285C63.5363 312.44 65.7883 317.49 65.7883 317.49L62.0822 304.772L63.3069 301.024L62.864 296.605L63.7393 292.586L62.5286 288.672L62.9363 284.406L64.417 281.588L62.9046 279.022L64.1488 264.79C64.1488 264.79 66.1113 262.64 66.3672 259.973C66.6213 257.307 65.0471 256.624 65.0471 256.624L65.4548 252.357L72.7895 101.309L64.193 76.839C64.193 76.839 63.517 72.4724 61.3481 72.2726C59.1791 72.0729 57.5343 77.8373 57.5343 77.8373L47.2615 99.4828L37.0256 263.713" fill="white"/>
<path d="M37.0248 263.716L37.8031 267.015L37.3248 277.731L35.9836 280.313L36.9666 283.433L36.9013 287.884L35.4912 291.352L35.8124 295.501L35.0818 299.383L36.5537 302.948L30.3485 316.362C30.3485 316.362 38.601 310.132 51.0693 311.285C63.5363 312.44 65.7884 317.491 65.7884 317.491L62.0822 304.772L63.307 301.024L62.864 296.605L63.7393 292.586L62.5287 288.672L62.9363 284.406L64.417 281.588L62.9046 279.022L64.1488 264.79C64.1488 264.79 66.1113 262.641 66.3672 259.974C66.6213 257.307 65.0471 256.625 65.0471 256.625L65.4547 252.357L72.7895 101.31L64.193 76.8392C64.193 76.8392 63.5171 72.4726 61.3481 72.2729C59.1791 72.0732 57.5343 77.8375 57.5343 77.8375L47.2615 99.483L37.0256 263.713L37.0248 263.716Z" stroke="#C69C6E" stroke-width="2.25" stroke-miterlimit="11.5" stroke-linecap="round" stroke-linejoin="round"/>
<path d="M47.6954 96.1465C47.6954 96.1465 53.3446 91.7138 60.6314 92.3459C70.2621 93.1845 72.7843 96.9018 72.7843 96.9018" stroke="#C69C6E" stroke-width="1.125" stroke-miterlimit="14.3"/>
<path fill-rule="evenodd" clip-rule="evenodd" d="M59.4129 264.423L1.64642 260.937L4.58311 243.201C4.58311 243.201 6.62149 237.907 10.7424 234.39C14.8651 230.872 45.753 200.955 49.4029 196.318C53.0529 191.681 57.1278 173.481 57.1278 173.481L60.5127 111.202C60.5127 111.202 62.5476 98.2967 65.6485 93.6211C68.7493 88.9455 73.9309 86.0444 75.3022 82.3353C76.6752 78.625 81.8533 68.1141 86.841 67.9197C91.8284 67.7235 96.5848 78.3838 98.2772 85.5683C99.9696 92.7528 103.787 108.785 104.574 113.188C105.361 117.592 115.169 173.182 119.138 179.438C123.106 185.694 155.396 205.344 158.382 209.902C161.368 214.46 165.224 229.949 165.069 232.112C164.914 234.276 106.964 256.326 106.964 256.326L102.063 270.662L63.386 278.291C63.386 278.291 58.1214 274.662 58.9844 270.373C59.8457 266.085 59.4133 264.423 59.4133 264.423" fill="white"/>
<path d="M55.3802 213.041L60.8107 109.169M59.4129 264.423L1.64642 260.937L4.58311 243.201C4.58311 243.201 6.62149 237.907 10.7424 234.39C14.8651 230.872 45.753 200.955 49.4029 196.318C53.0529 191.681 57.1278 173.481 57.1278 173.481L60.5127 111.202C60.5127 111.202 62.5476 98.2967 65.6485 93.6211C68.7493 88.9455 73.9309 86.0444 75.3022 82.3353C76.6752 78.625 81.8533 68.1141 86.841 67.9197C91.8284 67.7235 96.5848 78.3838 98.2772 85.5683C99.9696 92.7528 103.787 108.785 104.574 113.188C105.361 117.592 115.169 173.182 119.138 179.438C123.106 185.694 155.396 205.344 158.382 209.902C161.368 214.46 165.224 229.949 165.069 232.112C164.914 234.276 106.964 256.326 106.964 256.326L102.063 270.662L63.386 278.291C63.386 278.291 58.1214 274.662 58.9844 270.373C59.8457 266.085 59.4133 264.423 59.4133 264.423L59.4129 264.423Z" stroke="#C69C6E" stroke-width="2.25" stroke-miterlimit="14.3" stroke-linecap="round" stroke-linejoin="round"/>
<path d="M45.9057 115.037C45.9057 115.037 51.555 110.604 58.8417 111.238C59.7611 111.318 60.6153 111.423 61.4095 111.55M36.5991 303.664C36.5991 303.664 42.146 299.947 49.3641 300.556C58.9027 301.363 61.4374 304.551 61.4374 304.551L36.5991 303.664ZM36.7792 295.226C36.7792 295.226 42.3243 291.51 49.5427 292.12C59.0814 292.925 61.6161 296.113 61.6161 296.113L36.7792 295.226ZM36.9278 287.21C36.9278 287.21 42.5559 283.498 49.8889 284.116C59.5776 284.932 62.1563 288.125 62.1563 288.125L36.9278 287.21ZM37.5029 279.222C37.5029 279.222 43.1521 274.789 50.4388 275.423C60.0696 276.26 62.5917 279.979 62.5917 279.979L37.5029 279.222ZM37.833 268.682C37.833 268.682 43.4822 264.25 50.7689 264.884C60.3997 265.72 62.9218 269.439 62.9218 269.439L37.833 268.682ZM36.7792 289.258C36.7792 289.258 42.4037 285.602 49.7367 286.218C59.4275 287.032 62.0076 290.185 62.0076 290.185L36.7792 289.258ZM37.6543 277.12C37.6543 277.12 43.3036 272.688 50.5903 273.32C60.221 274.158 62.7432 277.876 62.7432 277.876L37.6543 277.12ZM36.6005 297.696C36.6005 297.696 42.3151 293.611 49.7277 294.245C59.5224 295.082 62.1116 298.552 62.1116 298.552L36.6005 297.696ZM125.326 288.731C125.326 288.731 131.127 285.031 138.698 285.666C148.703 286.505 151.372 289.701 151.372 289.701L125.326 288.731ZM125.453 280.711C125.453 280.711 131.256 277.012 138.826 277.646C148.83 278.485 151.499 281.683 151.499 281.683L125.453 280.711ZM126.031 272.724C126.031 272.724 131.937 268.309 139.579 268.967C149.68 269.837 152.337 273.564 152.337 273.564L126.031 272.724ZM126.339 262.183C126.339 262.183 132.246 257.768 139.89 258.426C149.99 259.296 152.648 263.023 152.648 263.023L126.339 262.183ZM125.305 282.761C125.305 282.761 131.084 279.115 138.627 279.745C148.594 280.579 151.254 283.737 151.254 283.737L125.305 282.761ZM126.181 270.622C126.181 270.622 132.09 266.208 139.732 266.866C149.833 267.736 152.49 271.464 152.49 271.464L126.181 270.622ZM125.149 291.199C125.149 291.199 131.127 287.133 138.901 287.791C149.176 288.663 151.901 292.142 151.901 292.142L125.149 291.199ZM126.675 257.56C126.675 257.56 132.582 253.145 140.225 253.803C150.326 254.673 152.983 258.4 152.983 258.4L126.675 257.56ZM127.495 252.124C127.495 252.124 133.402 247.709 141.046 248.367C151.147 249.237 153.804 252.966 153.804 252.966L127.495 252.124ZM129.266 191.831C129.266 191.831 135.173 187.416 142.817 188.074C152.917 188.944 155.575 192.672 155.575 192.672L129.266 191.831ZM130.078 168.649C130.078 168.649 135.985 164.236 143.629 164.894C153.729 165.764 156.387 169.491 156.387 169.491L130.078 168.649ZM130.403 146.279C130.403 146.279 136.31 141.866 143.954 142.524C154.055 143.394 156.712 147.122 156.712 147.122L130.403 146.279ZM131.734 121.868C131.734 121.868 137.641 117.453 145.285 118.111C155.386 118.982 158.043 122.71 158.043 122.71L131.734 121.868ZM131.662 99.0491C131.662 99.0491 137.569 94.6338 145.213 95.2919C155.314 96.1617 157.971 99.8894 157.971 99.8894L131.662 99.0491ZM132.081 81.3326C132.081 81.3326 137.988 76.9191 145.632 77.5772C155.732 78.447 158.39 82.1747 158.39 82.1747L132.081 81.3326ZM42.737 182.839C42.737 182.839 48.3862 178.404 55.6729 179.038C56.5924 179.118 57.4466 179.224 58.2408 179.35L42.737 182.839ZM43.9454 160.108C43.9454 160.108 49.5946 155.675 56.8813 156.307C57.8008 156.387 58.655 156.495 59.4492 156.622L43.9454 160.108ZM44.7588 136.927C44.7588 136.927 50.4062 132.495 57.6933 133.127C58.6127 133.206 59.4687 133.314 60.2611 133.441L44.7588 136.927Z" stroke="#C69C6E" stroke-width="1.125" stroke-miterlimit="14.3"/>
<path d="M47.0813 227.024C47.0813 227.024 44.8258 234.472 44.5841 237.835L44.1887 243.301L43.7952 248.767L45.9042 255.252L56.2496 254.706L60.344 263.441" stroke="#C69C6E" stroke-width="2.25" stroke-miterlimit="14.3" stroke-linecap="round" stroke-linejoin="round"/>
<path fill-rule="evenodd" clip-rule="evenodd" d="M74.0893 211.374L70.6179 204.937L47.6325 219.455L48.0684 237.231C49.3497 237.321 65.3745 241.396 65.3745 241.396" fill="white"/>
<path d="M74.0893 211.374L70.6179 204.937L47.6325 219.455L48.0684 237.231C49.3497 237.321 65.3745 241.396 65.3745 241.396" stroke="#C69C6E" stroke-width="2.25" stroke-miterlimit="14.3" stroke-linecap="round" stroke-linejoin="round"/>
<path d="M102.449 108.365C102.449 108.365 104.254 119.053 103.829 124.939C103.403 130.825 100.474 189.347 100.477 195.259C100.481 201.171 99.8508 221.832 100.461 225.254C101.074 228.678 100.862 231.619 102.299 235.522C103.735 239.425 104.72 255.548 104.72 255.548M60.7877 108.416C60.7877 108.416 68.1999 100.903 73.3565 100.841C78.5132 100.778 85.901 99.6026 91.3333 101.672C96.7672 103.742 98.721 106.414 98.721 106.414L60.7877 108.416ZM74.806 101.337L71.1511 202.935L74.806 101.337ZM98.723 106.414L93.5855 207.456L98.723 106.414ZM58.8785 134.903C58.8785 134.903 63.2641 127.514 73.1879 127.028C87.4086 126.33 94.1857 127.647 96.8139 132.901L58.8785 134.903ZM58.2504 161.476C58.2504 161.476 62.6378 154.087 72.5612 153.601C86.7819 152.903 93.5576 154.221 96.1852 159.475L58.2504 161.476ZM56.2768 188.973C56.2768 188.973 60.6624 181.582 70.5876 181.087C84.8104 180.375 91.5875 181.688 94.2136 186.938L56.2768 188.973ZM55.4666 212.152C55.4666 212.152 59.8645 204.589 69.8199 203.651C84.0888 202.309 90.8882 203.314 93.5255 208.431L55.4666 212.152Z" stroke="#C69C6E" stroke-width="1.125" stroke-miterlimit="14.3" stroke-linecap="round" stroke-linejoin="round"/>
<path fill-rule="evenodd" clip-rule="evenodd" d="M93.4485 75.3102C93.4485 75.3102 90.7325 74.2754 86.6415 74.4126C82.5506 74.5497 79.7004 75.4074 79.7004 75.4074C79.7004 75.4074 84.259 68.7524 87.4483 69.1847C90.6376 69.6171 93.4188 75.7303 93.4488 75.3102" fill="#C69C6E"/>
<path d="M93.4485 75.3102C93.4485 75.3102 90.7325 74.2754 86.6415 74.4126C82.5506 74.5497 79.7004 75.4074 79.7004 75.4074C79.7004 75.4074 84.259 68.7524 87.4483 69.1847C90.6376 69.6171 93.4188 75.7303 93.4488 75.3102H93.4485Z" stroke="#C69C6E" stroke-width="1.125" stroke-miterlimit="14.3" stroke-linecap="round" stroke-linejoin="round"/>
<path fill-rule="evenodd" clip-rule="evenodd" d="M82.2615 72.6311C82.2615 72.6311 84.2152 72.3446 86.153 72.27C88.0908 72.1953 91.7069 72.6571 91.7069 72.6571C91.7069 72.6571 90.6833 68.9919 87.4642 68.9781C84.2433 68.9659 82.4609 72.8568 82.2614 72.6311" fill="white"/>
<path d="M77.2599 79.4649C77.2599 79.4649 82.5545 77.5082 88.2935 78.3312C94.0324 79.1542 96.3058 80.3713 96.3058 80.3713M82.2615 72.6311C82.2615 72.6311 84.2152 72.3446 86.153 72.27C88.0908 72.1953 91.7069 72.6571 91.7069 72.6571C91.7069 72.6571 90.6833 68.9919 87.4642 68.9781C84.2434 68.9659 82.4609 72.8568 82.2615 72.6311L82.2615 72.6311Z" stroke="#C69C6E" stroke-width="1.125" stroke-miterlimit="14.3" stroke-linecap="round" stroke-linejoin="round"/>
<path fill-rule="evenodd" clip-rule="evenodd" d="M72.9448 88.6654C72.9448 88.6654 77.0781 84.9395 82.5721 86.1687C88.0661 87.3979 89.8677 89.2123 89.8677 89.2123L91.3184 89.9485C91.3184 89.9485 92.1284 93.5963 91.0749 93.3115C90.0213 93.0268 85.8703 91.0475 85.9463 89.9953C86.0222 88.9431 83.9767 87.5333 80.3447 87.2799C76.7126 87.0264 73.1739 88.471 72.945 88.6654" fill="#C69C6E"/>
<path d="M72.9448 88.6654C72.9448 88.6654 77.0781 84.9395 82.5721 86.1687C88.0661 87.3979 89.8677 89.2123 89.8677 89.2123L91.3184 89.9485C91.3184 89.9485 92.1284 93.5963 91.0748 93.3115C90.0213 93.0268 85.8703 91.0475 85.9463 89.9953C86.0222 88.9431 83.9767 87.5333 80.3446 87.2798C76.7126 87.0263 73.1739 88.4709 72.945 88.6653L72.9448 88.6654Z" stroke="#C69C6E" stroke-width="1.125" stroke-miterlimit="14.3" stroke-linecap="round" stroke-linejoin="round"/>
<path fill-rule="evenodd" clip-rule="evenodd" d="M76.6645 96.2564L80.1254 95.9092L79.9277 98.642L76.4668 98.9892" fill="#C69C6E"/>
<path d="M76.6645 96.2564L80.1254 95.9092L79.9277 98.642L76.4668 98.9892L76.6645 96.2564L76.6645 96.2564Z" stroke="#C69C6E" stroke-width="1.125" stroke-miterlimit="14.3" stroke-linecap="round" stroke-linejoin="round"/>
<path fill-rule="evenodd" clip-rule="evenodd" d="M70.8372 96.6961L74.2981 96.3489L74.1004 99.0817L70.6413 99.4289" fill="#C69C6E"/>
<path d="M70.8372 96.6961L74.2981 96.3489L74.1004 99.0817L70.6413 99.4289L70.8372 96.6961H70.8372Z" stroke="#C69C6E" stroke-width="1.125" stroke-miterlimit="14.3" stroke-linecap="round" stroke-linejoin="round"/>
<path fill-rule="evenodd" clip-rule="evenodd" d="M79.6096 265.371C79.6096 265.371 80.0649 260.084 81.032 257.1C81.9691 254.204 85.5235 250.83 85.5235 250.83L88.3066 250.735C90.4474 250.662 91.7692 251.671 91.7692 251.671C91.7692 251.671 93.7318 254.016 94.9442 256.623C96.1036 259.112 96.3349 265.641 96.3349 265.641" fill="#C69C6E"/>
<path d="M79.6096 265.371C79.6096 265.371 80.0649 260.084 81.032 257.1C81.9691 254.204 85.5235 250.83 85.5235 250.83L88.3066 250.735C90.4474 250.662 91.7692 251.671 91.7692 251.671C91.7692 251.671 93.7318 254.016 94.9442 256.623C96.1036 259.112 96.3349 265.641 96.3349 265.641" stroke="#C69C6E" stroke-width="1.125" stroke-miterlimit="14.3" stroke-linecap="round" stroke-linejoin="round"/>
<path fill-rule="evenodd" clip-rule="evenodd" d="M60.697 268.758C60.697 268.758 61.1029 263.848 61.973 261.077C62.8166 258.388 66.0233 255.259 66.0233 255.259L68.5364 255.172C70.4689 255.106 71.6637 256.045 71.6637 256.045C71.6637 256.045 73.4374 258.224 74.5351 260.646C75.5852 262.961 75.8004 269.023 75.8004 269.023" fill="#C69C6E"/>
<path d="M60.697 268.758C60.697 268.758 61.1029 263.848 61.973 261.077C62.8166 258.388 66.0233 255.259 66.0233 255.259L68.5364 255.172C70.4689 255.106 71.6637 256.045 71.6637 256.045C71.6637 256.045 73.4374 258.224 74.5351 260.646C75.5852 262.961 75.8004 269.023 75.8004 269.023" stroke="#C69C6E" stroke-width="1.125" stroke-miterlimit="14.3" stroke-linecap="round" stroke-linejoin="round"/>
<path fill-rule="evenodd" clip-rule="evenodd" d="M76.2458 270.991C75.9987 274.415 72.1619 276.939 67.6807 276.627C63.1994 276.314 59.7618 273.283 60.0089 269.859C60.2559 266.435 64.0927 263.912 68.574 264.225C73.0552 264.537 76.4928 267.569 76.2458 270.991" fill="white"/>
<path d="M76.2458 270.991C75.9987 274.415 72.1619 276.939 67.6807 276.627C63.1994 276.314 59.7618 273.283 60.0089 269.859C60.2559 266.435 64.0927 263.912 68.574 264.225C73.0552 264.537 76.4928 267.569 76.2458 270.991V270.991Z" stroke="#C69C6E" stroke-width="1.125" stroke-miterlimit="14.3" stroke-linecap="round" stroke-linejoin="round"/>
<path fill-rule="evenodd" clip-rule="evenodd" d="M97.1473 266.958C96.9002 270.38 92.7758 272.886 87.9402 272.549C83.1046 272.212 79.3827 269.16 79.6277 265.736C79.8727 262.312 83.9992 259.809 88.8349 260.145C93.6705 260.482 97.3944 263.535 97.1473 266.958Z" fill="white"/>
<path d="M97.1473 266.958C96.9002 270.38 92.7758 272.886 87.9402 272.549C83.1046 272.212 79.3827 269.16 79.6277 265.736C79.8727 262.312 83.9992 259.809 88.8349 260.145C93.6705 260.482 97.3944 263.535 97.1473 266.958Z" stroke="#C69C6E" stroke-width="1.125" stroke-miterlimit="14.3" stroke-linecap="round" stroke-linejoin="round"/>
<path fill-rule="evenodd" clip-rule="evenodd" d="M62.2602 251.852C62.2602 251.852 63.2803 246.641 64.5616 243.773C65.8023 240.989 69.7008 238.005 69.7008 238.005L72.4769 238.198C74.6141 238.347 75.8194 239.488 75.8194 239.488C75.8194 239.488 77.5207 242.024 78.4473 244.741C79.3333 247.339 78.8638 253.855 78.8638 253.855" fill="#C69C6E"/>
<path d="M62.2602 251.852C62.2602 251.852 63.2803 246.641 64.5616 243.773C65.8023 240.989 69.7008 238.005 69.7008 238.005L72.4769 238.198C74.6141 238.347 75.8194 239.488 75.8194 239.488C75.8194 239.488 77.5207 242.024 78.4473 244.741C79.3333 247.339 78.8638 253.855 78.8638 253.855" stroke="#C69C6E" stroke-width="1.125" stroke-miterlimit="14.3" stroke-linecap="round" stroke-linejoin="round"/>
<path fill-rule="evenodd" clip-rule="evenodd" d="M78.9257 254.702C78.6874 258.01 74.713 260.43 70.0556 260.106C65.3964 259.781 61.8101 256.833 62.0488 253.525C62.2875 250.218 66.2597 247.797 70.9189 248.122C75.5762 248.447 79.1643 251.395 78.9257 254.703" fill="white"/>
<path d="M78.9257 254.703C78.6874 258.01 74.713 260.431 70.0556 260.106C65.3964 259.781 61.8101 256.833 62.0488 253.525C62.2875 250.218 66.2597 247.798 70.9189 248.122C75.5762 248.447 79.1643 251.395 78.9257 254.703V254.703Z" stroke="#C69C6E" stroke-width="1.125" stroke-miterlimit="14.3" stroke-linecap="round" stroke-linejoin="round"/>
<path fill-rule="evenodd" clip-rule="evenodd" d="M56.747 253.789L56.454 245.952L61.5173 241.234L47.7977 237.955L46.2834 232.143L44.425 237.085L44.2327 248.691L47.0582 254.169L56.7469 253.789" fill="#C69C6E"/>
<path d="M56.747 253.789L56.454 245.952L61.5173 241.234L47.7977 237.955L46.2834 232.143L44.425 237.085L44.2327 248.691L47.0582 254.169L56.7469 253.789L56.747 253.789Z" stroke="#C69C6E" stroke-width="1.125" stroke-miterlimit="14.3" stroke-linecap="round" stroke-linejoin="round"/>
<path fill-rule="evenodd" clip-rule="evenodd" d="M72.6726 235.467C72.6726 235.467 78.5495 237.356 79.0984 238.662C79.6472 239.967 80.9956 245.131 80.9956 245.131L81.6997 250.251C81.6997 250.251 85.1923 246.482 90.0157 248.086C94.8372 249.689 95.8008 254.194 95.8008 254.194L97.6486 255.378L102.654 254.46L94.6204 240.8L94.6768 234.043C94.6768 234.043 91.486 230.652 84.3754 231.001C77.2648 231.35 72.6726 235.467 72.6726 235.467" fill="#C69C6E"/>
<path d="M72.6726 235.467C72.6726 235.467 78.5495 237.356 79.0984 238.662C79.6472 239.967 80.9956 245.131 80.9956 245.131L81.6997 250.251C81.6997 250.251 85.1923 246.482 90.0157 248.086C94.8372 249.689 95.8008 254.194 95.8008 254.194L97.6486 255.378L102.654 254.46L94.6204 240.8L94.6768 234.043C94.6768 234.043 91.486 230.652 84.3754 231.001C77.2648 231.35 72.6726 235.467 72.6726 235.467V235.467Z" stroke="#C69C6E" stroke-width="1.125" stroke-miterlimit="14.3" stroke-linecap="round" stroke-linejoin="round"/>
<path fill-rule="evenodd" clip-rule="evenodd" d="M65.0308 240.214L52.0167 234.342L51.8561 229.366C52.4967 229.411 71.1456 229.866 71.1456 229.866L70.8244 228.366L52.156 227.784L52.4119 219.593L69.0138 208.804L67.2278 206.777L48.0968 218.962L49.2193 236.153L65.0305 240.214" fill="#C69C6E"/>
<path d="M72.2769 235.016C72.2769 235.016 72.5328 225.527 73.3076 220.721C74.0841 215.917 74.7989 211.953 74.7989 211.953C74.7989 211.953 75.4236 209.25 76.5514 208.484C81.3853 206.678 81.5211 207.176 87.7531 207.998C87.7531 207.998 91.9799 208.927 95.4005 212.123C98.8211 215.319 98.6107 224.178 98.8719 226.52C99.133 228.863 97.783 244.612 97.783 244.612M65.0308 240.214L52.0167 234.342L51.8561 229.366C52.4968 229.411 71.1456 229.866 71.1456 229.866L70.8244 228.366L52.156 227.784L52.4119 219.593L69.0138 208.804L67.2278 206.777L48.0968 218.962L49.2193 236.153L65.0305 240.214L65.0308 240.214Z" stroke="#C69C6E" stroke-width="1.125" stroke-miterlimit="14.3" stroke-linecap="round" stroke-linejoin="round"/>
<path fill-rule="evenodd" clip-rule="evenodd" d="M76.9506 274.419C76.9506 274.419 78.1543 272.603 78.0484 271.115C77.9407 269.629 76.6382 260.875 76.6382 260.875L77.9513 260.545C77.9513 260.545 77.3142 269.373 78.9167 270.966C80.5192 272.558 83.68 273.41 83.68 273.41C83.68 273.41 76.5533 273.97 76.9507 274.419" fill="#C69C6E"/>
<path d="M76.9506 274.419C76.9506 274.419 78.1543 272.603 78.0484 271.115C77.9407 269.629 76.6382 260.875 76.6382 260.875L77.9513 260.545C77.9513 260.545 77.3142 269.373 78.9167 270.966C80.5192 272.558 83.68 273.41 83.68 273.41C83.68 273.41 76.5533 273.97 76.9507 274.419L76.9506 274.419Z" stroke="#C69C6E" stroke-width="1.125" stroke-miterlimit="14.3" stroke-linecap="round" stroke-linejoin="round"/>
<path fill-rule="evenodd" clip-rule="evenodd" d="M43.3616 251.797L29.949 253.186L29.9525 262.059L27.3741 262.091L27.7359 254.086C27.0811 254.253 2.95551 255.316 2.95551 255.316L3.88202 248.409L43.5698 242.938L43.1463 248.824L43.3616 251.796" fill="#C69C6E"/>
<path d="M43.3616 251.797L29.949 253.186L29.9525 262.059L27.3741 262.091L27.736 254.086C27.0812 254.253 2.95557 255.316 2.95557 255.316L3.88208 248.409L43.5699 242.938L43.1463 248.824L43.3617 251.796L43.3616 251.797Z" stroke="#C69C6E" stroke-width="1.125" stroke-miterlimit="14.3" stroke-linecap="round" stroke-linejoin="round"/>
<path fill-rule="evenodd" clip-rule="evenodd" d="M101.774 233.901L162.153 221.424L164.521 227.295L137.133 234.891L138.222 243.628L136.879 244.379L134.708 235.778L104.069 243.78C104.069 243.78 103.67 240.372 103.349 238.87C103.028 237.37 101.775 233.901 101.775 233.901" fill="#C69C6E"/>
<path d="M101.774 233.901L162.153 221.424L164.521 227.295L137.133 234.891L138.222 243.628L136.879 244.379L134.708 235.778L104.069 243.78C104.069 243.78 103.67 240.372 103.349 238.87C103.028 237.37 101.775 233.901 101.775 233.901L101.774 233.901Z" stroke="#C69C6E" stroke-width="1.125" stroke-miterlimit="14.3" stroke-linecap="round" stroke-linejoin="round"/>
<path fill-rule="evenodd" clip-rule="evenodd" d="M164.535 230.046L157.844 215.636C157.844 215.636 157.355 213.49 156.148 212.349C154.941 211.208 151.05 208.612 151.05 208.612L117.908 185.809C117.908 185.809 114.076 182.373 113.037 178.92C111.997 175.468 103.563 125.657 103.563 125.657C103.563 125.657 104.356 120.641 104.202 119.787C104.049 118.931 104.46 116.212 104.46 116.212C104.46 116.212 116.286 175.555 119.263 178.932C122.24 182.308 156.466 207.935 158.451 210.185C160.437 212.435 164.535 230.046 164.535 230.046" fill="#C69C6E"/>
<path d="M164.535 230.046L157.844 215.636C157.844 215.636 157.355 213.49 156.148 212.349C154.941 211.208 151.05 208.612 151.05 208.612L117.908 185.809C117.908 185.809 114.076 182.373 113.037 178.92C111.997 175.468 103.563 125.657 103.563 125.657C103.563 125.657 104.356 120.641 104.202 119.787C104.049 118.931 104.46 116.212 104.46 116.212C104.46 116.212 116.286 175.555 119.263 178.932C122.24 182.308 156.466 207.935 158.451 210.185C160.437 212.435 164.535 230.046 164.535 230.046L164.535 230.046Z" stroke="#C69C6E" stroke-width="1.125" stroke-miterlimit="14.3" stroke-linecap="round" stroke-linejoin="round"/>
<path fill-rule="evenodd" clip-rule="evenodd" d="M25.2376 233.626L38.9803 230.834L38.382 239.119L24.6393 241.911" fill="#C69C6E"/>
<path d="M25.2376 233.626L38.9803 230.834L38.382 239.119L24.6393 241.911L25.2376 233.626Z" stroke="#C69C6E" stroke-width="1.125" stroke-miterlimit="14.3" stroke-linecap="round" stroke-linejoin="round"/>
</svg>
