<svg width="241" height="213" viewBox="0 0 241 213" fill="none" xmlns="http://www.w3.org/2000/svg">
<circle cx="121.556" cy="102.598" r="77.2899" fill="#05213A"/>
<path d="M83.4985 74.43C83.2065 74.0633 82.8539 73.7898 82.4406 73.6096C82.0293 73.4129 81.4739 73.3833 80.7745 73.5208C80.0769 73.6419 79.1611 73.9968 78.0269 74.5855C77.0632 75.0684 76.1518 75.4571 75.2928 75.7517C74.443 76.0391 73.6493 76.1993 72.9116 76.2325C72.1832 76.2583 71.5127 76.1406 70.9001 75.8794C70.2876 75.6182 69.7368 75.1805 69.2476 74.5663C68.7804 73.9797 68.467 73.3229 68.3076 72.5959C68.1573 71.8617 68.1598 71.1031 68.3153 70.3201C68.4799 69.5299 68.8101 68.75 69.3059 67.9806C69.8018 67.2112 70.4668 66.4943 71.3009 65.8299C72.4926 64.8809 73.678 64.2813 74.8572 64.0313C76.0364 63.7813 77.1316 63.8304 78.143 64.1785C79.147 64.5175 79.9885 65.1132 80.6674 65.9657L78.1236 67.9916C77.7951 67.5791 77.3538 67.2789 76.7997 67.091C76.2474 66.8867 75.6353 66.8423 74.9634 66.958C74.3006 67.0664 73.6347 67.387 72.9655 67.92C72.2596 68.4821 71.7743 69.0484 71.5095 69.6188C71.2466 70.1728 71.1457 70.6951 71.2069 71.1857C71.2772 71.669 71.4584 72.094 71.7504 72.4607C71.9694 72.7357 72.2124 72.9467 72.4793 73.0937C72.748 73.2242 73.0791 73.2826 73.4727 73.2688C73.8589 73.2459 74.3386 73.1334 74.9119 72.9315C75.4852 72.7296 76.1822 72.4292 77.003 72.0302C78.4412 71.3342 79.7078 70.8648 80.8028 70.6219C81.8977 70.3791 82.8604 70.3839 83.6907 70.6365C84.5211 70.889 85.2538 71.414 85.889 72.2115C86.4073 72.8624 86.7444 73.5677 86.9001 74.3276C87.065 75.0802 87.0477 75.8579 86.8483 76.6609C86.6508 77.4475 86.2867 78.2318 85.7561 79.014C85.2273 79.7797 84.5275 80.5093 83.6567 81.2029C82.3458 82.2468 81.0505 82.8965 79.7706 83.1517C78.4908 83.407 77.3214 83.3495 76.2626 82.9794C75.2037 82.6092 74.3458 82.0116 73.6887 81.1866L76.2462 79.1497C76.8378 79.8172 77.4811 80.2111 78.1763 80.3316C78.8642 80.4429 79.5434 80.374 80.2137 80.1247C80.8768 79.8663 81.4696 79.529 81.9921 79.1128C82.6888 78.558 83.1979 78.0027 83.5194 77.4471C83.85 76.8841 84.0114 76.3436 84.0033 75.8257C83.9953 75.3077 83.827 74.8425 83.4985 74.43Z" fill="#924C00"/>
<path d="M101.698 69.1243C102.439 68.9012 103.078 68.5436 103.615 68.0513C104.152 67.5591 104.543 66.9885 104.788 66.3394C105.03 65.6792 105.076 64.9983 104.926 64.297L107.888 63.4047C108.156 64.4988 108.094 65.6129 107.701 66.747C107.316 67.8665 106.672 68.8746 105.767 69.7714C104.859 70.6569 103.759 71.2939 102.469 71.6826C101.1 72.095 99.8323 72.2136 98.6658 72.0387C97.5106 71.8604 96.4697 71.4519 95.5429 70.8131C94.6274 70.1709 93.8374 69.3563 93.173 68.3693C92.5164 67.3677 92.0039 66.2553 91.6355 65.0323L91.4225 64.3254C91.0541 63.1023 90.8687 61.8975 90.8663 60.7111C90.8717 59.5101 91.0787 58.3891 91.4872 57.3481C91.907 56.3038 92.5491 55.3883 93.4137 54.6016C94.2894 53.8115 95.4118 53.2103 96.7807 52.798C98.2058 52.3688 99.5392 52.2854 100.781 52.5478C102.019 52.799 103.092 53.3326 103.998 54.1488C104.913 54.9503 105.588 55.971 106.022 57.2108L103.06 58.1031C102.777 57.3682 102.36 56.7535 101.807 56.2592C101.265 55.7614 100.626 55.4276 99.8898 55.2578C99.1612 55.0734 98.3817 55.1063 97.5513 55.3564C96.5976 55.6436 95.8527 56.076 95.3168 56.6536C94.7888 57.2165 94.4303 57.8752 94.2415 58.6297C94.0604 59.3696 94.0024 60.152 94.0673 60.977C94.14 61.7873 94.2963 62.5908 94.5363 63.3875L94.7492 64.0944C94.9892 64.8911 95.3043 65.6529 95.6946 66.3798C96.0849 67.1067 96.5598 67.7286 97.1194 68.2454C97.6902 68.7589 98.3528 69.11 99.1073 69.2989C99.8696 69.4731 100.733 69.4149 101.698 69.1243Z" fill="#924C00"/>
<path d="M119.433 53.3578L118.793 69.3763L115.544 69.2465L116.303 50.2421L119.465 50.3684L119.433 53.3578ZM125.493 50.5037L125.355 53.5241C125.088 53.4548 124.832 53.4093 124.587 53.3878C124.353 53.355 124.084 53.3326 123.78 53.3204C123.031 53.2905 122.364 53.3811 121.781 53.5924C121.198 53.8036 120.699 54.1121 120.284 54.5177C119.869 54.9234 119.533 55.4142 119.275 55.9903C119.03 56.5552 118.858 57.1817 118.76 57.8697L117.826 58.3602C117.872 57.2126 118.026 56.1398 118.289 55.1417C118.563 54.144 118.956 53.2684 119.467 52.5148C119.978 51.7494 120.612 51.1648 121.367 50.7611C122.134 50.3461 123.033 50.1591 124.063 50.2003C124.297 50.2097 124.565 50.2497 124.867 50.3204C125.17 50.3794 125.379 50.4405 125.493 50.5037Z" fill="#924C00"/>
<path d="M133.498 61.6567L133.651 61.2825C134.17 60.0135 134.836 58.912 135.648 57.9782C136.465 57.0336 137.384 56.3019 138.407 55.7832C139.434 55.2536 140.532 54.9684 141.701 54.9274C142.874 54.8756 144.074 55.1003 145.299 55.6016C146.536 56.1074 147.554 56.7899 148.355 57.6492C149.171 58.502 149.76 59.4772 150.121 60.5746C150.498 61.6656 150.647 62.8343 150.567 64.0806C150.492 65.3161 150.195 66.5684 149.676 67.8374L149.523 68.2116C149.004 69.4807 148.339 70.5821 147.526 71.5159C146.714 72.4497 145.789 73.1792 144.751 73.7043C143.728 74.223 142.63 74.5083 141.457 74.5601C140.299 74.6055 139.102 74.3754 137.865 73.8696C136.629 73.3638 135.608 72.6867 134.803 71.8383C134.002 70.979 133.413 70.0039 133.037 68.9129C132.675 67.8155 132.532 66.649 132.607 65.4135C132.682 64.178 132.979 62.9257 133.498 61.6567ZM136.661 62.5136L136.508 62.8878C136.148 63.7664 135.912 64.6383 135.798 65.5035C135.69 66.3579 135.719 67.1677 135.887 67.9329C136.066 68.7024 136.399 69.3894 136.887 69.9938C137.378 70.5874 138.041 71.055 138.877 71.3966C139.701 71.7338 140.491 71.8607 141.247 71.7773C142.018 71.6875 142.732 71.4287 143.388 71.0007C144.044 70.5727 144.633 70.0158 145.154 69.33C145.69 68.6378 146.138 67.8524 146.497 66.9739L146.65 66.5996C147.005 65.7319 147.232 64.8687 147.33 64.0098C147.443 63.1446 147.41 62.3272 147.231 61.5576C147.067 60.7816 146.742 60.0914 146.255 59.487C145.779 58.887 145.123 58.4162 144.288 58.0746C143.463 57.7375 142.666 57.6137 141.895 57.7035C141.134 57.7977 140.419 58.062 139.747 58.4964C139.091 58.9244 138.5 59.4867 137.975 60.1833C137.454 60.8691 137.016 61.6459 136.661 62.5136Z" fill="#924C00"/>
<path d="M171.19 62.9166L153.695 83.4814L151.204 81.3628L168.7 60.798L171.19 62.9166Z" fill="#924C00"/>
<path d="M183.266 76.3165L161.678 92.5317L159.714 89.9174L181.303 73.7022L183.266 76.3165Z" fill="#924C00"/>
<path d="M157.661 138.355C157.956 138.719 158.311 138.989 158.726 139.166C159.139 139.359 159.695 139.383 160.393 139.24C161.09 139.112 162.002 138.749 163.131 138.15C164.09 137.659 164.998 137.262 165.855 136.96C166.702 136.665 167.494 136.497 168.231 136.458C168.96 136.425 169.631 136.537 170.246 136.793C170.861 137.048 171.416 137.481 171.91 138.091C172.383 138.673 172.702 139.327 172.868 140.053C173.025 140.786 173.029 141.544 172.881 142.328C172.723 143.12 172.4 143.903 171.911 144.677C171.422 145.451 170.763 146.173 169.935 146.845C168.752 147.805 167.572 148.415 166.395 148.676C165.218 148.936 164.123 148.897 163.108 148.558C162.101 148.228 161.255 147.64 160.568 146.794L163.093 144.745C163.426 145.154 163.87 145.451 164.425 145.634C164.98 145.833 165.592 145.872 166.263 145.75C166.925 145.636 167.588 145.309 168.252 144.77C168.953 144.202 169.433 143.631 169.693 143.058C169.951 142.502 170.047 141.979 169.981 141.489C169.907 141.006 169.722 140.583 169.426 140.219C169.205 139.946 168.96 139.737 168.692 139.592C168.422 139.464 168.09 139.409 167.697 139.426C167.311 139.453 166.832 139.569 166.261 139.776C165.689 139.983 164.995 140.29 164.178 140.696C162.746 141.405 161.484 141.886 160.391 142.139C159.298 142.391 158.335 142.395 157.503 142.15C156.67 141.905 155.933 141.386 155.291 140.595C154.766 139.949 154.423 139.246 154.261 138.488C154.089 137.737 154.099 136.959 154.291 136.154C154.482 135.366 154.839 134.578 155.363 133.791C155.884 133.021 156.578 132.285 157.442 131.584C158.744 130.528 160.033 129.867 161.311 129.6C162.588 129.333 163.758 129.38 164.82 129.741C165.882 130.102 166.745 130.692 167.41 131.511L164.871 133.57C164.273 132.908 163.626 132.52 162.93 132.406C162.241 132.301 161.563 132.376 160.895 132.631C160.234 132.895 159.644 133.238 159.125 133.659C158.434 134.22 157.93 134.78 157.613 135.338C157.288 135.904 157.131 136.446 157.144 136.964C157.156 137.482 157.329 137.945 157.661 138.355Z" fill="#924C00"/>
<path d="M139.51 143.82C138.771 144.05 138.136 144.413 137.603 144.91C137.071 145.407 136.685 145.981 136.445 146.633C136.209 147.295 136.17 147.976 136.326 148.676L133.372 149.595C133.094 148.503 133.146 147.389 133.529 146.251C133.903 145.128 134.539 144.114 135.436 143.209C136.336 142.316 137.43 141.669 138.717 141.269C140.082 140.844 141.348 140.714 142.516 140.879C143.673 141.047 144.718 141.446 145.65 142.076C146.571 142.71 147.368 143.518 148.042 144.499C148.707 145.494 149.23 146.602 149.609 147.822L149.828 148.527C150.208 149.746 150.404 150.949 150.417 152.136C150.422 153.337 150.225 154.46 149.826 155.504C149.416 156.552 148.782 157.474 147.924 158.268C147.056 159.066 145.939 159.677 144.574 160.102C143.153 160.544 141.82 160.639 140.576 160.388C139.335 160.148 138.258 159.624 137.344 158.816C136.422 158.022 135.739 157.008 135.293 155.772L138.247 154.853C138.536 155.585 138.959 156.196 139.517 156.686C140.063 157.179 140.705 157.507 141.443 157.67C142.173 157.848 142.952 157.808 143.78 157.55C144.731 157.254 145.472 156.815 146.003 156.233C146.526 155.665 146.879 155.004 147.061 154.247C147.235 153.506 147.286 152.723 147.214 151.899C147.134 151.089 146.97 150.287 146.723 149.492L146.504 148.787C146.257 147.993 145.935 147.234 145.538 146.511C145.141 145.787 144.661 145.17 144.097 144.658C143.521 144.15 142.855 143.804 142.099 143.622C141.335 143.455 140.472 143.521 139.51 143.82Z" fill="#924C00"/>
<path d="M121.917 159.747L122.414 143.723L125.664 143.824L125.075 162.834L121.913 162.736L121.917 159.747ZM115.883 162.655L115.994 159.634C116.262 159.7 116.518 159.744 116.764 159.763C116.997 159.794 117.267 159.814 117.571 159.823C118.321 159.846 118.986 159.75 119.567 159.533C120.149 159.317 120.645 159.004 121.056 158.594C121.467 158.185 121.799 157.691 122.052 157.113C122.292 156.546 122.458 155.918 122.55 155.229L123.48 154.73C123.444 155.878 123.299 156.952 123.046 157.953C122.78 158.953 122.395 159.832 121.891 160.59C121.387 161.36 120.759 161.95 120.007 162.361C119.244 162.783 118.347 162.978 117.316 162.946C117.082 162.938 116.813 162.901 116.511 162.833C116.207 162.776 115.998 162.717 115.883 162.655Z" fill="#924C00"/>
<path d="M107.779 151.574L107.629 151.95C107.122 153.223 106.466 154.331 105.662 155.272C104.853 156.224 103.94 156.963 102.922 157.491C101.9 158.03 100.805 158.325 99.6365 158.377C98.4636 158.439 97.2622 158.225 96.0321 157.735C94.7911 157.24 93.7664 156.567 92.958 155.715C92.1344 154.869 91.537 153.899 91.1657 152.805C90.7793 151.718 90.6201 150.55 90.6882 149.303C90.752 148.067 91.0377 146.812 91.5454 145.539L91.6951 145.163C92.2028 143.889 92.8586 142.782 93.6627 141.841C94.4667 140.9 95.3852 140.162 96.4182 139.628C97.436 139.1 98.5313 138.805 99.7042 138.743C100.862 138.687 102.061 138.906 103.302 139.401C104.543 139.895 105.57 140.563 106.383 141.405C107.191 142.257 107.788 143.226 108.175 144.314C108.546 145.408 108.7 146.573 108.636 147.809C108.572 149.046 108.287 150.3 107.779 151.574ZM104.608 150.746L104.758 150.37C105.11 149.488 105.338 148.614 105.444 147.748C105.545 146.893 105.508 146.083 105.333 145.32C105.147 144.552 104.808 143.868 104.315 143.268C103.819 142.679 103.151 142.217 102.313 141.883C101.485 141.553 100.694 141.433 99.9393 141.523C99.1691 141.62 98.4578 141.885 97.8055 142.319C97.1532 142.753 96.5696 143.315 96.0546 144.006C95.5245 144.703 95.0837 145.492 94.7323 146.374L94.5826 146.749C94.2354 147.62 94.0167 148.485 93.9263 149.345C93.8207 150.211 93.8609 151.028 94.0468 151.796C94.2175 152.571 94.5491 153.258 95.0416 153.858C95.5232 154.454 96.1832 154.919 97.0214 155.253C97.8487 155.582 98.6475 155.699 99.4177 155.602C100.177 155.501 100.89 155.231 101.558 154.79C102.21 154.356 102.796 153.789 103.315 153.087C103.83 152.397 104.261 151.616 104.608 150.746Z" fill="#924C00"/>
<path d="M70.0764 150.65L87.3867 129.93L89.8959 132.026L72.5855 152.747L70.0764 150.65Z" fill="#924C00"/>
<path d="M57.8811 137.361L79.3235 120.953L81.3104 123.549L59.868 139.957L57.8811 137.361Z" fill="#924C00"/>
</svg>
