<svg width="1073" height="280" viewBox="0 0 1073 280" fill="none" xmlns="http://www.w3.org/2000/svg">
<path d="M1048 7.98234C1048.66 7.61196 1049.36 7.1727 1049.44 6.40347C1049.52 5.51581 1050.24 5.41545 1050.76 5.12439C1051.84 4.51695 1053.11 5.1718 1052.07 6.62671C1050.55 8.7639 1049.08 10.9377 1047.54 13.1671C1049.49 15.4867 1052.41 11.8476 1055.38 12.6092C1055.54 13.6185 1054.06 14.5506 1053.27 14.7764C1049.05 15.9934 1046.52 19.2923 1043.76 22.3165C1041.27 25.0514 1041.51 35.1384 1039.14 42.2008C1032.47 62.1193 1033.64 64.8537 1029.09 75.3357C1026.07 82.2892 1026.14 85.5692 1024.81 94.6051C1023.66 102.367 1025.3 105.267 1023.09 109.505C1020.94 113.64 1024.94 118.447 1025.18 122.182C1025.37 125.137 1026.57 127.938 1026.42 130.93C1026.34 132.562 1027.02 133.724 1028.54 134.43C1032.19 136.131 1028.79 137.832 1030.88 139.131C1033.05 140.479 1034.28 140.167 1038.51 146.156C1041.1 149.816 1037.85 150.177 1039.75 154.603C1049.29 176.79 1048.61 175.266 1049.16 175.811C1051.11 177.746 1047.87 178.87 1050.19 182.96C1056.11 193.359 1055.4 210.031 1055.46 212.197C1055.5 213.803 1055.84 215.304 1057.21 216.044C1060.22 217.674 1062.19 223.309 1064.55 224.441C1064.83 224.578 1065.07 224.863 1065.26 225.13C1068.68 229.99 1074.25 229.597 1072.18 234.227C1071.17 236.474 1070.14 234.932 1069.45 235.885C1068.16 237.662 1066.26 236.987 1064.6 236.979C1062.99 236.972 1061.64 236.165 1060.6 234.877C1057.79 231.402 1054.29 230.894 1048.46 229.488C1045.65 228.811 1044.74 226.322 1046.08 223.764C1047.74 220.596 1045.87 221.057 1046.54 219.349C1048.13 215.287 1046.36 211.593 1045.3 207.827C1045.17 207.373 1044.91 206.86 1044.54 206.582C1042.37 204.912 1041.47 202.354 1039.94 200.239C1037.19 196.431 1037.01 187.161 1036.58 185.38C1036.18 183.697 1034.82 183.113 1033.85 182.077C1032.55 180.694 1015.06 190.993 1007.56 180.266C1005.48 177.297 999.492 171.886 998.599 171.943C996.287 172.09 993.957 171.614 991.652 172.26C990.306 172.638 988.83 172.312 987.495 172.92C981.342 175.725 975.679 181.138 974.521 182.347C973.499 183.415 973.117 184.344 973.536 185.847C974.371 188.837 974.528 191.959 974.779 195.041C974.988 197.594 974.556 200.123 973.238 202.355C972.638 203.37 972.706 204.458 972.608 205.443C972.385 207.666 971.32 209.855 972.236 212.185C973.014 214.164 969.771 216.894 974.101 219.829C975.999 221.117 977.02 223.172 978.607 224.734C979.087 225.206 979.044 226.173 978.375 226.762C975.36 229.419 972.412 232.187 968.268 233.072C963.915 234.002 965.349 236.533 962.022 237.926C948.986 243.384 948.57 238.254 949.476 237.249C950.684 235.909 952.43 232.836 955.156 233.065C956 233.136 956.883 232.785 956.724 231.915C956.278 229.471 957.808 227.685 958.755 225.799C959.555 224.209 959.783 222.176 961.724 221.174C962.415 220.818 962.241 219.711 962.333 218.887C962.792 214.786 961.65 210.916 960.699 207.017C958.915 199.708 959.971 193.706 959.856 186.946C959.822 184.912 958.853 183.156 958.675 181.194C958.619 180.587 957.931 180.453 957.301 180.353C956.168 180.174 955.07 179.776 953.938 179.595C952.623 179.385 951.613 178.8 950.898 177.597C951.847 176.787 952.229 175.609 952.51 174.437C953.299 171.154 954.496 170.695 955.118 168.09C956.336 162.986 959.665 160.534 960.655 158.323C960.903 157.768 961.184 157.226 961.67 156.961C965.106 155.086 965.979 151.535 967.557 148.406C970.286 142.993 972.705 140.694 972.931 139.14C973.166 137.523 975.24 136.258 977.062 136.468C979.006 136.693 978.051 133.661 980.058 131.681C980.808 130.94 979.131 128.896 979.371 127.481C980.084 123.287 974.747 123.681 976.108 120.686C976.212 120.459 975.745 119.974 976.099 119.44C977.337 120.929 978.553 122.39 979.767 123.85C980.567 123.343 980.433 122.683 980.292 122.208C978.571 116.409 982.672 112.475 978.023 104.457C974.449 98.2929 978.969 93.5865 972.939 91.4021C967.753 89.5234 966.725 91.313 965.403 88.7091C964.279 86.4965 958.195 84.0656 954.225 82.181C950.752 80.5322 952.611 80.4257 944.544 79.015C930.726 76.5987 925.222 69.3509 921.638 73.8368C919.996 75.8913 917.77 77.1291 915.408 78.1688C908.546 81.1886 916.168 84.8478 915.675 105.565C915.587 109.283 894.763 113.452 892.269 113.352C890.591 113.285 889.267 118.217 889.23 119.88C889.18 122.194 888.481 124.42 888.596 126.737C888.739 129.633 887.261 131.864 889.217 135.36C889.89 136.563 890.23 137.757 890.128 139.109C889.968 141.254 889.456 137.113 895.638 156.909C898.496 166.062 896.641 172.07 895.499 178.663C891.022 204.516 894.856 192.964 900.996 210.391C901.33 211.338 900.88 212.362 901.343 213.306C902.408 215.473 903.277 217.737 905.416 219.21C908.2 221.126 906.538 222.345 907.808 227.342C908.516 230.126 908.239 232.946 908.051 235.708C907.936 237.415 906.873 239.047 905.569 240.385C904.794 241.18 903.89 240.928 903.008 241.013C902.169 241.094 901.393 241.969 900.473 241.077C899.515 240.147 899.089 239.077 899.165 237.766C899.282 235.722 898.942 233.677 899.594 231.625C900.34 229.271 898.818 227.716 898.714 227.15C898.344 225.141 897.702 223.322 896.404 221.627C895.62 220.604 895.528 219.049 895.168 217.722C894.34 214.667 892.911 212.498 892.235 212.247C890.504 211.604 889.569 210.188 888.466 208.844C883.591 202.908 878.706 198.937 878.607 191.408C878.566 188.253 877.612 174.537 877.612 174.537C877.651 171.583 871.506 167.528 870.942 191.63C870.875 194.518 870.015 197.38 869.785 200.275C869.449 204.504 871.249 207.804 871.522 209.314C872.524 214.852 876.677 213.565 874.066 217.596C870.726 222.754 871.824 224.71 871.573 227.349C870.803 235.448 863.08 237.64 862.126 232.416C860.882 225.6 864.688 227.116 865.085 219.593C865.663 208.676 860.06 213.572 855.743 196.181C855.594 195.577 856.266 194.209 856.042 193.309C855.085 189.467 855.936 185.483 855.067 181.642C854.107 177.399 854.585 173.094 854.636 168.825C854.68 165.175 857.055 155.774 857.092 153.658C857.12 152.106 858.343 150.78 858.071 149.157C857.256 144.283 862.95 140.603 859.579 137.949C859.06 137.542 858.907 136.942 859.201 136.39C861.956 131.207 853.383 125.997 856.16 119.101C856.734 117.675 856.652 116.53 855.872 115.166C852.906 109.975 853.494 97.0629 853.743 96.5484C854.878 94.2013 851.851 94.7433 853.783 93.224C854.542 92.6269 853.628 89.7037 854.436 87.7281C854.697 87.0882 853.949 86.404 853.719 85.727C853.463 84.9724 855.145 85.45 854.722 84.3167C854.474 83.6536 854.763 82.7891 854.503 82.136C854.088 81.0944 854.111 80.054 854.059 78.9886C853.599 69.4559 855.049 67.1214 852.917 65.5581C852.952 65.5706 852.707 65.7594 852.423 65.9501C849.334 68.0333 848.677 64.9121 848.207 64.6451C847.202 64.0747 847.245 63.6475 848.218 63.0633C848.849 62.6846 849.315 62.0427 849.933 61.6362C851.874 60.3611 850.256 57.0244 855.281 57.0327C855.899 57.0337 856.361 56.7403 856.561 56.0966C856.853 55.1574 857.164 54.2345 857.113 53.2231C857.092 52.7872 857.444 52.416 857.843 52.3873C858.041 52.3731 858.469 52.8306 858.458 53.0592C858.387 54.5655 859.231 55.1058 860.57 55.1783C861.716 55.2404 861.756 56.4629 862.624 56.9619C859.67 63.1013 857.716 59.695 860.104 76.8759C860.508 79.7828 861.01 80.2141 863.687 79.9539C865.39 79.7885 867.149 80.3574 868.808 79.5531C869.681 79.13 875.725 82.6116 876.535 83.1397C880.209 85.5342 878.204 91.8894 879.888 93.6588C880.05 93.8284 880.039 94.0759 879.906 94.3336C879.066 95.9633 879.6 98.0764 877.904 99.4574C877.165 100.06 877.599 101.197 877.619 102.074C877.632 102.668 876.381 103.361 877.714 103.892C880.695 105.079 879.94 105.004 882.112 103.648C882.89 103.163 883.696 102.826 884.664 102.866C886.806 102.953 888.95 102.099 891.093 102.875C893.814 101.907 896.718 102.791 899.475 102.047C900.337 101.814 901.308 101.808 902.205 101.911C903.825 102.097 905.292 101.295 906.879 101.346C907.917 101.379 908.14 98.9246 908.183 97.9021C908.289 95.4451 908.983 86.9185 907.535 82.4842C905.205 75.3536 907.867 69.1587 910.043 68.1209C910.789 67.765 911.912 67.9952 912.809 68.2111C913.373 68.3467 913.179 69.0334 913.011 69.501C912.727 70.291 913.406 70.0419 913.672 70.0427C914.725 70.0463 915.593 69.5452 916.24 68.7717C917.151 67.6833 920.435 65.1592 923.393 65.9822C925.335 66.5223 927.485 66.2707 929.552 66.4982C932.099 66.7787 934.592 67.3087 937.059 67.8424C938.601 68.176 940.148 68.0127 941.705 68.4156C949.013 70.3064 952.245 70.2428 955.798 70.554C958.44 70.7854 960.911 71.7187 963.49 72.2061C967.858 73.0316 969.125 72.0483 971.346 73.0446C972.478 73.5525 973.591 72.3421 974.88 73.2243C975.755 73.8232 977.02 72.7231 978.08 72.7255C980.084 72.7304 981.977 72.0417 983.963 72.0593C984.54 72.0645 985.159 72.0793 985.684 71.8878C988.478 70.8679 984.426 69.9413 985.454 62.3159C984.4 62.455 983.916 63.45 982.883 63.268C982.959 62.2122 983.871 61.5352 984.542 61.3651C985.812 61.043 985.261 60.5644 985.479 58.8308C984.9 58.4967 984.292 58.713 983.729 58.5979C983.289 58.5082 982.769 58.1038 982.942 57.8081C983.537 56.7939 982.541 56.3415 982.193 55.8688C980.309 53.3102 982.453 53.6951 982.256 52.4877C981.738 49.322 981.953 50.7172 987.957 45.5288C991.763 42.2403 995.762 43.9942 997.282 42.5728C997.446 42.4202 997.875 42.2586 997.923 42.3158C998.765 43.3098 1000.17 42.7808 1001.14 43.5972C1003.78 45.8341 1009.43 49.9533 1008.74 56.9806C1008.47 59.6955 1010.03 67.1091 1006.37 67.3391C1006.52 67.6663 1006.58 67.9234 1006.65 67.9247C1007.62 67.944 1008.45 69.3069 1008.99 68.9486C1010.27 68.0888 1011.68 67.3538 1012.85 66.3617C1016.55 63.2314 1019.62 59.594 1021.7 55.1757C1023.48 51.4063 1026.19 50.3511 1027.01 46.2498C1028.79 37.2875 1030.72 35.5394 1032.82 27.9125C1033.56 25.2098 1036.27 21.8554 1034.99 18.0411C1034.21 15.7361 1033.67 13.3953 1034.41 10.8985C1034.9 9.29437 1033.8 6.72941 1035.04 6.51807C1037.03 6.17831 1036.94 10.0047 1037.01 11.6102C1039.63 10.6968 1038.7 8.63272 1041.8 3.5519C1042.4 2.56154 1043.21 2.21711 1044.45 2.76331C1043.86 4.17677 1043.29 5.59001 1042.68 6.98008C1041.98 8.52875 1043.29 9.05072 1043.96 7.49141C1044.4 6.4698 1046.93 2.8373 1047 2.77969C1048.36 1.75425 1049.46 2.63745 1048.81 4.00009C1047.37 6.98922 1046.42 7.52288 1047.47 7.98361C1047.29 7.66023 1047.73 8.91592 1048.04 7.91791L1048 7.98234ZM865.955 81.4932C863.984 81.5596 860.851 80.3281 860.539 81.644C859.47 86.1437 863.909 84.0163 865.955 81.4932Z" fill="#C69C6E"/>
<path d="M654.101 68.5649C654.675 68.5717 655.211 68.63 655.751 68.2241C659.114 65.6917 661.478 62.6283 662.196 58.3193C663.882 48.2017 667.245 46.2314 668.244 38.8419C669.068 32.7456 676.609 20.5248 674.499 16.4673C672.779 13.1603 673.35 9.59292 673.146 5.88963C674.995 6.48197 675.345 7.73766 675.635 9.01908C675.725 9.41773 675.683 9.8438 676.258 9.91077C677.459 10.0507 677.699 8.61703 677.653 8.26919C677.344 5.94044 678.329 3.71736 678.196 1.40222C678.167 0.895139 677.941 0.132071 678.842 0.064248C679.907 -0.0156945 679.676 0.85368 679.781 1.45516C680.209 3.91934 680.089 4.76533 681.183 4.79807C681.613 4.81104 681.614 4.39453 681.716 4.09879C682.923 0.610451 682.806 0.106345 683.893 0.0400101C684.824 -0.0169701 684.552 0.77884 684.75 1.25424C684.874 1.5519 685.095 1.81001 685.272 2.08598C685.066 2.00795 684.832 1.8823 684.92 2.29413C685.018 2.20143 685.116 2.10852 685.214 2.01582C686.596 2.60476 686.222 3.77732 686.051 4.78298C685.833 6.06142 685.578 7.37005 685.067 8.55027C684.717 9.36011 685.292 9.73303 685.288 10.3675C687.231 9.44792 687.06 6.80025 688.154 7.19167C689.697 7.7434 687.146 11.5045 686.987 11.7186C684.9 14.5336 685.831 15.9354 682.47 19.2239C679.322 22.3057 680.482 23.8867 677.131 37.7635C677.063 38.0465 675.241 45.5224 674.968 46.0065C672.374 50.6032 673.906 54.5748 672.188 64.3084C671.862 66.1622 673.231 66.9501 669.677 76.9444C669.597 77.1677 664.479 89.6113 664.623 97.6884C664.659 99.7454 664.555 101.752 663.869 103.752C663.218 105.651 663.725 107.692 663.627 109.668C663.609 110.031 663.497 113.35 663.869 113.566C666.94 115.354 662.821 117.592 665.635 119.359C669.311 121.668 668.058 125.102 668.143 127.34C668.187 128.512 667.672 129.372 666.898 130.194C666.481 130.638 665.53 130.586 665.632 131.519C665.807 133.135 665.108 133.303 667.19 136.547C668.28 138.245 668.176 140.179 668.464 141.972C669.209 146.621 673.605 151.348 674.238 170.428C674.396 175.197 675.684 179.799 679.064 183.567C680.605 185.284 682.098 190.035 683.489 191.078C683.887 191.377 683.671 192.018 683.686 192.507C683.729 193.921 685.445 192.894 684.847 193.805C683.078 196.497 686.628 198.52 686.661 202.341C686.674 203.775 686.957 205.087 687.564 206.366C687.984 207.253 689.41 219.112 694.112 217.259C694.893 216.952 695.399 217.368 694.948 218.336C693.419 221.619 701.495 228.165 702.851 229.566C697.257 233.631 690.576 230.365 685.791 230.352C677.87 230.331 687.886 219.16 682.848 214.998C682.41 214.637 682.011 214.18 681.729 213.691C679.459 209.763 676.916 206.019 674.285 202.32C668.421 194.077 669.51 188.424 665.321 184.098C659.217 177.793 661.56 173.63 657.963 174.02C656.759 174.151 656.396 173.485 656.118 172.493C655.388 169.889 653.982 167.511 653.489 164.815C653.391 164.28 653.055 163.743 652.564 163.378C646.912 159.177 646.283 154.6 643.536 155.851C639.03 157.905 640.16 159.168 632.957 172.06C632.422 173.018 632.888 174.205 632.111 174.848C630.676 176.036 630.157 180.667 626.809 183.859C623.742 186.783 625.602 191.223 621.102 199.156C619.472 202.029 621.154 202.84 626.189 204.615C629.877 205.914 629.896 201.236 631.761 203.627C633.029 205.252 634.922 205.729 636.735 206.186C641.981 207.511 639.909 210.378 639.139 213.649C638.635 215.789 637.643 217.776 637.342 220C637.163 221.323 636.486 222.584 635.387 223.597C633.529 225.31 631.348 230.241 628.913 229.39C627.787 228.997 627.663 227.816 627.534 226.71C627.36 225.232 626.603 222.439 626.603 222.439C627.414 220.993 626.596 219.58 626.57 218.155C626.547 216.903 626.566 215.666 625.376 214.816C624.375 214.101 626.428 212.018 622.758 210.993C620.344 210.318 617.861 210.18 615.405 209.841C612.505 209.44 611.896 214.372 609.218 217.251C608.798 217.703 609.007 218.323 609.258 218.888C610.434 221.533 610.494 224.431 611.159 227.191C611.378 228.096 611.088 228.329 610.378 228.611C599.016 233.131 596.48 231.762 590.855 232.068C589.944 232.118 588.849 231.625 588.276 232.924C586.895 236.057 591.168 236.007 593.643 246.152C593.831 246.925 593.772 247.387 593.281 247.885C590.834 250.37 590.181 250.799 589.829 251.756C588.92 254.223 587.201 256.253 586.041 258.576C584.375 261.913 581.589 259.757 580.868 259.601C579.791 259.369 580.18 258.445 579.855 257.862C578.338 255.137 581.706 250.021 581.507 246.688C581.356 244.148 584.503 244.338 583.369 240.072C580.478 229.197 575.397 217.609 575.453 211.447C575.481 208.401 574.899 205.42 574.581 202.411C573.708 194.15 572.539 173.411 572.539 173.411C571.859 169.95 573.62 167.977 573.453 163.532C573.31 159.732 575.165 162.394 573.649 155.7C572.391 150.153 575.799 147.362 576.268 141.181C576.874 133.205 576.32 127.205 575.994 118.911C575.909 116.737 575.215 114.633 573.521 112.452C574.223 110.904 572.81 110.063 572.262 108.976C570.868 106.211 569.948 103.19 567.91 100.763C567.313 100.053 567.634 99.1525 567.361 98.4139C564.662 91.1208 563.747 89.911 563.747 89.911C563.532 87.9612 562.054 86.4952 561.738 84.6004C561.172 81.198 559.59 78.1295 558.532 74.8893C555.892 66.7968 553.879 59.7419 553.879 59.7419C552.671 56.6393 551.86 61.4839 549.821 58.7798C548.889 57.5431 548.131 56.1926 547.093 55.0115C546.371 54.1887 546.666 53.2468 547.65 52.5611C559.108 44.5711 559.423 43.9037 560.484 45.6223C563.268 50.1288 564.498 50.8689 563.18 51.6033C560.426 53.1379 563.365 54.9371 560.664 56.979C558.6 58.5387 558.43 59.1813 559.379 61.6061C560.993 65.7295 562.465 69.948 564.963 73.6385C567.007 76.6589 568.729 79.7588 569.417 83.3524C569.57 84.1522 571.109 84.1964 570.843 85.1351C570.05 87.9459 573.753 89.7811 574.227 92.6859C575.004 97.4422 578.123 98.8735 579.632 100.595C580.392 100.189 580.425 99.6334 580.184 99.0521C579.552 97.5322 579.424 95.8608 578.588 94.3834C577.215 91.9589 578.669 90.568 577.264 90.4228C575.098 90.1991 580.244 89.8428 578.462 85.4613C578.15 84.6963 578.275 83.8082 579.167 83.2954C579.812 82.924 580.949 83.0522 580.734 81.7839C580.726 81.7367 581.025 81.5511 581.106 81.5887C582.573 82.2744 583.546 81.2124 584.697 80.676C585.391 80.3518 587.528 80.6267 588.671 80.5044C592.222 80.1247 594.795 81.3459 596.202 84.7499C597.091 86.9011 602.156 89.6025 600.351 97.3657C600.103 98.4306 600.083 99.4882 599.974 100.551C599.866 101.608 600.117 102.492 601.013 103.164C602.66 104.398 601.435 106.005 606.175 108.846C607.799 109.818 612.811 113.392 613.536 116.223C615.888 125.405 613.558 130.694 612.674 139.542C612.402 142.26 611.41 144.808 611.316 147.567C611.188 151.332 606.399 152.428 609.677 158.39C609.931 158.853 610.205 159.418 609.978 159.79C608.316 162.513 608.853 165.652 608.195 168.557C607.441 171.889 606.391 175.114 605.094 178.298C603.652 181.839 600.508 194.036 600.485 194.248C600.113 197.73 600.209 197.835 603.668 197.795C608.069 197.744 608.295 198.164 608.967 195.44C611.102 186.785 614.662 184.905 615.086 180.273C615.258 178.4 617.482 175.635 616.219 171.689C615.761 170.256 616.904 167.694 617.001 163.923C617.101 160.023 618.876 150.742 621.217 144.616C622.342 141.673 618.921 140.571 621.871 136.041C624.447 132.085 627.492 133.053 627.535 124.012C627.543 122.501 625.183 123.776 624.341 122.978C623.879 122.54 624.425 121.84 624.286 121.369C623.307 118.045 624.281 114.701 624.129 111.369C624.021 109.014 625.236 106.799 625.753 104.494C626.323 101.952 626.273 99.3164 627.006 96.8048C627.028 96.7312 627.023 96.6302 626.989 96.5631C625.952 94.5294 626.546 92.3893 626.562 90.2861C626.658 77.4983 620.722 74.1186 618.533 60.7841C616.287 47.0934 616.219 47.7465 612.226 40.1443C607.085 30.3565 606.754 25.7196 606.497 24.6414C605.096 18.785 603.345 21.6887 601.97 16.3953C600.658 11.3429 598.359 9.08945 599.409 8.26877C600.456 7.45042 600.171 9.91885 601.767 9.86889C602.474 8.38081 601.232 7.05942 601.346 5.63088C601.357 5.4914 601.167 5.34725 601.13 5.19141C600.78 3.70992 601.002 3.5207 602.734 3.86492C602.701 2.93303 602.16 1.98946 602.818 1.0546C603.036 1.11285 603.286 1.13901 603.497 1.24404C604.032 1.51087 604.37 3.80007 605.163 1.33078C605.382 0.646169 606.053 1.2383 606.282 1.60867C607.872 4.17937 606.893 7.42873 608.392 8.68123C609.26 8.33361 609.046 6.90698 610.365 6.87998C610.955 9.6718 610.543 12.5567 610.39 15.3904C610.13 20.1985 611.112 21.9206 620.337 36.2746C624.404 42.6013 623.503 45.5173 625.263 48.6622C628.341 54.161 627.961 57.5333 631.525 61.6367C633.046 63.3876 636.171 67.6756 637.543 67.5988C638.529 67.5437 638.982 67.3998 638.009 64.9756C635.937 59.8129 638.159 59.1224 637.516 57.077C636.569 54.0609 637.083 51.0992 637.608 48.095C638.037 45.6336 639.577 44.2273 641.819 43.858C642.916 43.6773 643.35 42.5702 644.586 42.6906C649.76 43.1949 658.587 49.3796 657.733 54.5901C656.707 60.842 659.654 62.6511 655.206 65.2849C653.905 66.0555 653.565 67.117 654.14 68.6108C653.981 68.4941 653.834 68.4992 653.787 68.6523C653.766 68.7237 653.864 68.8313 653.909 68.9223C653.972 68.8033 654.036 68.6842 654.101 68.5649ZM591.482 219.551C593.503 219.234 595.763 220.951 597.283 220.239C597.871 219.964 598.231 219.334 597.244 218.828C596.596 218.497 595.758 218.903 595.073 218.208C596.093 217.304 600.212 218.221 601.776 215.728C602.931 213.889 603.454 211.782 604.026 209.715C604.266 208.848 603.883 208.297 602.896 208.22C597.821 207.826 587.807 207.743 588.032 197.813C588.119 193.956 587.179 190.106 587.953 186.235C588.052 185.74 588.147 185.138 587.682 184.515C586.967 185.826 586.665 187.201 586.49 188.537C584.367 204.784 584.578 207.893 585.844 211.088C587.034 214.089 587.577 222.821 587.551 224.129C587.505 226.45 588.611 226.953 590.831 226.126C593.074 225.291 594.539 223.634 595.875 221.908C594.869 220.218 592.577 221.322 591.482 219.551ZM581.202 84.6221C583.278 84.3368 583.278 84.3368 583.688 82.9478C582.723 83.221 582.276 83.9738 581.202 84.6221ZM579.837 84.4966C579.434 85.2967 579.502 85.8442 580.219 86.2439C580.431 85.6766 580.547 85.1445 579.837 84.4966ZM605.011 139.8C604.797 138.864 603.993 139.118 604.002 139.635C604.009 139.973 604.098 140.289 604.451 140.375C604.921 140.49 604.907 140.07 605.011 139.8Z" fill="#C69C6E"/>
<path d="M224.685 119.294C224.23 118.639 223.709 118.102 223.849 117.114C223.992 116.1 223.7 115.025 223.568 113.66C221.969 115.121 220.198 115.967 219.72 118.011C219.511 118.903 218.995 119.463 217.989 119.418C216.873 115.097 221.496 116.804 218.476 114.223C218.053 113.862 217.741 113.332 217.491 112.825C217.207 112.249 217.98 112.036 218.062 111.588C218.261 110.511 219.329 110.361 219.965 109.756C220.835 108.929 220.625 107.556 219.448 107.39C218.164 107.208 217.166 106.523 216.004 106.112C216.49 104.829 217.718 105.717 218.492 105.102C217.49 100.735 209.913 95.7679 206.581 87.9423C204.482 83.0122 202.79 81.7489 199.255 78.5788C198.936 78.2933 198.609 78.1425 198.642 77.6718C198.681 77.1154 199.083 77.0208 199.516 77.0474C201.549 77.1719 199.794 74.2936 201.551 75.2729C203.13 76.1529 202.574 73.9328 202.443 73.7193C202.138 73.2229 202.439 72.9722 202.783 72.7275C203.535 72.194 204.079 73.8312 204.735 73.852C206.044 73.0615 205.103 71.0009 206.912 70.3507C207.311 71.0513 206.858 72.1437 207.892 72.6958C208.665 71.897 207.868 70.4819 208.914 69.7522C209.555 69.8719 209.524 70.5907 209.876 71.004C210.51 71.7478 210.453 72.3429 209.876 73.1857C209.244 74.1097 208.966 75.2701 208.517 76.3202C207.81 77.9701 207.813 79.4741 209.177 80.8625C209.177 80.8625 213.652 86.7032 218.531 92.0483C222.26 96.133 221.273 97.1297 223.996 99.5582C229.758 104.696 228.993 105.579 232.57 106.527C232.65 105.628 231.687 105.78 231.519 105.055C232.167 104.869 233.067 104.858 232.945 103.686C232.893 103.182 233.214 102.576 234.343 102.692C235.634 102.825 237.215 99.8782 236.853 98.5919C236.322 96.7066 236.75 95.8058 238.528 95.074C238.433 94.5869 237.893 94.5809 237.644 94.2724C237.396 93.9646 236.641 93.9981 237.047 93.2204C237.31 92.7186 237.553 92.3631 238.127 92.4552C240.847 92.8921 246.308 90.4556 246.895 90.3403C248.637 89.9989 250.355 90.1092 252.071 89.9294C257.858 89.3228 262.164 96.46 262.231 102.018C262.268 105.061 263.411 105.766 262.456 107.829C261.376 110.165 260.163 107.228 259.508 110.316C259.115 112.171 257.785 115.779 259.726 115.783C264.04 115.79 261.177 117.637 267.366 118.244C276.493 119.14 279.013 123.786 281.561 125.4C300.43 137.352 294.672 132.165 302.274 137.329C304.179 138.623 306.438 139.216 308.425 140.389C309.988 141.311 312.85 139.299 312.881 137.422C312.934 134.117 312.437 130.785 312.919 127.513C313.388 124.324 313.085 121.095 313.696 117.933C314.245 115.087 312.305 109.75 312.327 106.465C312.336 105.179 311.294 104.557 310.216 104.415C309.282 104.291 308.512 103.897 307.673 103.464C308.624 103.404 309.575 103.344 310.572 103.281C310.288 102.726 309.844 102.855 309.477 102.856C307.449 102.863 310.324 101.806 308.576 101.466C308.013 101.356 307.403 101.665 306.871 101.276C306.784 100.99 307.145 100.904 307.163 100.749C307.379 98.8963 307.368 98.8976 309.101 98.8232C309.596 98.8019 310.108 98.8906 310.684 98.5449C309.88 97.4274 308.441 98.4477 307.617 97.6187C308.33 97.2369 309.094 97.4408 309.829 97.4191C312.128 97.351 311.996 97.3706 311.91 95.0278C311.859 93.6297 310.886 94.0424 310.005 93.7264C310.842 93.1258 312.131 93.0086 311.815 91.5982C311.583 90.5632 311.921 89.4627 311.516 88.4117C308.705 81.1042 307.803 73.6441 307.337 71.371C305.964 64.6792 305.575 64.3697 302.393 62.3328C296.658 58.6621 296.067 58.5479 296.439 57.9596C297.053 56.988 297.69 58.33 300.774 59.6709C300.012 58.1548 298.783 57.6309 297.803 56.8432C296.839 56.0682 297.739 55.3447 298.507 55.8237C299.066 56.172 299.566 56.6131 300.106 57.0264C300.947 55.5413 298.962 55.2052 298.923 54.1149C299.628 53.29 300.018 53.9718 303.051 56.6244C303.522 57.0371 303.531 57.0271 304.831 56.8672C304.386 55.3192 302.859 54.2282 302.852 52.2441C305.38 52.7684 305.175 55.2194 307.555 57.1162C308.8 58.1086 309.524 57.8533 309.89 56.3357C310.131 55.3372 310.226 54.2308 311.612 53.5134C313.094 62.2552 308.805 61.1843 314.329 75.3458C316.11 79.9108 317.091 84.7121 318.398 89.4172C318.44 89.569 318.551 89.7019 318.682 89.9377C321.868 89.3372 325.155 89.4986 328.401 89.3583C336.693 89 336.383 92.978 339.363 91.5556C340.131 91.1891 340.652 92.3442 341.668 92.0778C342.635 91.824 343.449 91.3787 344.332 91.0479C345.275 90.695 345.515 92.2369 346.644 92.5375C350.767 93.6352 353.437 96.7113 355.876 99.9904C358.019 102.87 356.755 108.937 353.215 111.146C352.72 111.455 352.125 111.678 351.835 112.167C350.463 114.484 348.333 115.041 345.853 114.768C344.061 114.571 343 115.632 341.473 116.901C343.19 117.456 344.571 117.587 345.848 117.964C351.076 119.505 354.239 125.012 359.497 127.496C360.865 128.142 362.289 129.965 365.227 131.35C367.329 132.341 369.153 133.79 370.851 135.35C371.71 136.14 372.684 136.765 373.546 137.536C374.145 138.072 374.688 138.192 375.557 137.929C377.36 137.384 378.182 138.146 377.969 140.055C377.78 141.738 378.478 143.388 378.049 145.069C377.959 145.42 378.314 145.638 378.531 145.883C379.992 147.532 376.913 149.615 376.68 147.837C376.454 146.109 374.683 145.031 374.904 143.091C374.988 142.352 374.119 141.771 373.228 141.505C366.464 139.487 363.609 135.124 353.992 133.629C349.52 132.934 349.23 131.049 347.1 131.158C346.138 131.208 345.66 131.506 345.383 132.524C344.166 137 343.663 141.554 343.952 146.156C344.367 152.766 345.204 150.554 346.926 155.633C347.869 158.411 349.257 161.015 350.084 163.848C350.431 165.037 350.481 166.254 350.847 167.445C354.266 178.558 359.987 173.522 358.522 180.761C358.072 182.982 357.366 184.872 354.913 185.603C357.202 191.461 359.504 196.064 358.042 201.243C357.613 202.762 358.815 204.855 355.9 208.356C353.738 210.953 350.016 211.046 347.639 208.666C340.179 201.193 344.462 205.152 336.302 185.208C336.215 184.996 334.247 179.699 333.24 179.957C331.203 180.478 334.406 182.315 331.406 185.996C330.636 191.464 329.861 196.953 330.554 202.468C330.899 205.216 329.728 208.799 330.735 212.797C331.168 214.515 332.707 219.072 331.123 226.891C330.737 228.793 330.992 230.682 330.887 232.574C330.77 234.677 337.506 234.194 335.791 239.304C333.274 246.803 340.2 248.505 337.995 255.416C337.279 257.66 335.757 259.167 333.544 259.369C331.426 259.563 330.235 258.137 329.106 256.686C328.575 256.003 326.343 248.42 326.371 244.58C326.384 242.936 326.814 237.209 325.419 234.835C323.198 231.052 322.272 226.799 320.89 222.708C318.279 214.981 319.771 212.296 319.276 210.321C318.782 208.349 315.444 185.488 313.811 184.081C313.315 183.652 313.261 183.05 313.304 182.482C313.56 179.079 312.318 171.394 314.114 166.415C314.198 166.183 314.36 165.928 314.322 165.713C313.828 162.934 314.918 160.363 315.522 157.771C316.265 154.579 315.632 151.527 315.213 148.435C314.929 146.339 310.06 146.366 311.621 148.902C312.937 151.04 313.782 151.82 313.018 152.313C312.682 152.529 312.285 152.296 312.169 152.047C311.06 149.66 308.834 148.178 307.359 146.11C306.785 145.306 306.079 144.623 305.291 144.444C302.83 143.883 301.099 141.942 298.671 141.312C296.358 140.711 294.154 139.705 291.864 138.999C288.025 137.817 284.449 136.087 281.207 133.776C278.177 131.616 274.588 131.306 271.188 130.345C270.693 130.205 270.437 130.385 270.245 130.845C268.88 134.117 270.663 132.732 268.659 138.276C268.18 139.601 267.871 140.948 267.557 142.313C267.245 143.664 267.044 144.781 268.205 145.93C268.99 146.707 269.062 147.844 268.273 148.877C264.478 153.844 268.408 154.167 269.225 157.163C270.433 161.593 272.752 165.663 273.443 170.264C274.088 174.56 275.262 178.768 275.215 183.176C275.051 198.934 278.417 206.113 274.414 208.64C273.093 209.473 272.172 210.863 270.526 211.26C269.165 211.587 270.492 212.824 268.606 216.673C266.981 219.987 262.919 219.999 261.474 216.687C260.73 214.98 259.895 213.284 260.627 211.272C261.056 210.094 260.552 208.837 260.348 207.624C260.237 206.964 259.838 206.286 258.137 205.944C257.015 205.718 255.762 205.138 254.791 205.437C253.761 205.754 254.169 207.317 253.757 208.277C252.69 210.757 251.247 211.767 250.616 217.704C250.139 222.193 246.087 228.129 242.615 224.81C237.258 219.688 242.415 216.697 240.524 213.296C237.943 208.655 236.195 208.973 236.139 206.836C236.111 205.736 233.474 204.968 232.039 203.418C229.628 200.812 231.673 201.189 229.602 195.587C228.917 193.731 228.656 191.788 228.142 189.905C227.281 186.748 228.282 183.985 229.748 181.187C225.818 179.682 221.851 178.76 222.89 176.367C223.771 174.339 224.557 172.271 225.643 170.405C225.149 169.609 224.275 170.214 223.795 169.679C223.698 169.435 223.747 169.175 223.986 169.076C224.583 168.829 225.096 168.385 225.829 168.448C226.478 168.504 226.944 168.113 227.128 167.501C227.533 166.153 228.567 165.287 229.51 164.351C231.318 162.556 231.576 159.247 232.83 158.149C233.868 157.24 234.332 155.998 234.948 154.828C236.837 151.238 232.715 150.032 234.463 144.686C234.539 144.453 234.726 144.165 234.652 143.989C233.126 140.344 236.006 137.139 234.054 131.36C231.047 122.455 232.651 125.218 230.861 122.426C229.972 121.04 229.898 121.019 228.652 122.308C227.837 123.152 227.237 122.308 227.111 121.96C226.453 120.151 225.027 120.087 223.47 120.235C223.569 119.462 224.669 120.075 224.636 119.251C224.883 119.166 224.909 119.107 224.711 119.074C224.703 119.148 224.694 119.221 224.685 119.294ZM254.145 193.435C255.416 192.737 256.336 192.128 256.303 190.88C256.275 189.781 256.616 188.772 256.817 187.725C257.282 185.303 254.051 184.488 253.987 185.793C253.867 188.234 253.449 190.687 254.145 193.435ZM233.894 159.486C231.873 160.224 232.895 163.866 229.934 166.215C229.478 166.577 229.98 166.918 230.121 167.273C230.303 167.728 230.475 167.888 231.017 167.718C232.722 167.185 233.157 166.004 233.894 159.486ZM332.09 110.929C332.041 110.781 332.032 110.54 331.937 110.5C331.192 110.189 330.432 109.754 329.602 110.103C329.256 110.248 327.808 113.006 329.311 113.282C330.284 113.46 332.073 111.926 332.09 110.929ZM319.979 93.6099C321.125 94.8033 322.925 95.6202 324.744 95.772C322.489 93.7243 321.955 93.4821 319.979 93.6099ZM330.01 100.493C328.511 97.7786 328.344 97.1272 327.675 97.5075C327.387 97.6708 327.189 98.0312 327.421 98.3452C328.074 99.228 328.424 100.398 330.01 100.493ZM325.719 100.772C326.212 99.6811 325.119 99.4064 325.019 98.7009C324.852 97.5133 323.219 98.8164 323.987 99.3879C324.56 99.8133 324.821 100.608 325.719 100.772ZM313.93 140.745C313.835 140.338 313.825 139.728 313.131 139.827C311.975 139.992 311.702 141.617 313.075 141.668C313.679 141.69 314.01 141.446 313.93 140.745ZM320.565 96.0407C321.076 97.9566 322.72 97.6111 322.524 97.1006C322.24 96.3611 321.69 95.9933 320.565 96.0407ZM324.055 92.3989C325.01 93.5736 325.596 94.2828 326.977 94.39C326.17 93.45 325.606 92.7086 324.055 92.3989ZM244.951 115.931C244.249 115.628 243.545 115.377 242.47 116.084C243.567 116.334 244.256 116.352 244.951 115.931ZM219.071 112.303C220.288 112.011 220.114 111.027 219.765 111.123C219.277 111.257 218.859 111.509 218.749 112.047C218.736 112.107 218.956 112.215 219.071 112.303ZM327.366 92.4342C327.252 91.7919 326.602 92.0899 326.655 92.4254C326.695 92.6755 326.901 92.8364 327.158 92.7758C327.255 92.7529 327.305 92.5405 327.366 92.4342ZM229.899 165.428C230.123 165.232 230.117 165.32 229.926 165.09C229.702 165.286 229.709 165.198 229.899 165.428Z" fill="#C69C6E"/>
<path d="M136.951 54.1422C137.736 54.1095 137.424 52.5168 138.425 52.999C139.49 53.512 138.615 54.4201 138.395 54.9284C136.566 59.1382 138.599 64.4254 135.175 68.7764C134.727 69.3457 134.365 70.0391 134.163 70.7328C131.101 81.2561 123.408 92.5512 122.169 93.2977C118.421 95.5548 111.361 100.908 99.5996 105.184C96.8169 106.196 94.826 108.067 92.8578 110.073C90.5584 112.416 87.5808 132.527 87.0641 135.742C85.9739 142.526 83.082 144.442 84.4465 146.161C84.9898 146.846 85.4822 149.62 86.2837 150.141C88.0786 151.307 88.9922 153.155 90.2691 154.72C91.6398 156.4 93.4491 157.621 95.1373 158.911C99.1507 161.978 108.447 173.656 109.933 175.248C113.16 178.704 113.212 181.14 114.026 182.134C116.261 184.861 113.835 189.937 111.669 192.618C110.618 193.918 105.924 201.301 104.157 203.173C100.555 206.99 102.31 208.366 100.415 211.016C98.0611 214.304 100.984 218.924 103.656 220.845C114.313 228.506 106.94 232.313 103.067 231.755C99.8541 231.291 97.5418 229.335 95.106 227.539C92.8074 225.844 94.7567 224.05 89.409 223.149C85.8671 222.552 82.6131 220.973 81.2929 219.821C74.6853 214.058 87.7585 211.954 90.7374 202.941C92.0051 199.106 94.082 193.008 96.8851 190.046C98.1022 188.76 98.2843 187.943 97.2223 186.603C96.0562 185.13 94.8183 183.652 93.0763 182.752C87.4614 179.849 85.913 175.971 73.9394 172.902C68.2979 171.456 63.3324 173.2 58.6576 176.014C46.8471 183.122 47.0307 186.594 43.8713 190.18C43.4032 190.711 42.4243 191.059 42.703 192.116C42.79 192.446 42.5461 192.719 42.1601 192.81C39.9782 193.322 40.9777 195.526 40.7537 195.99C39.0882 199.437 39.7368 203.487 37.7939 206.9C36.2714 209.574 37.7716 211.172 34.899 216.839C33.8288 218.951 36.289 219.231 34.6632 221.767C31.9333 226.027 34.5481 229.285 28.8736 231.438C22.7518 233.761 21.0988 231.188 17.3043 234.09C11.8791 238.239 8.26371 238.154 2.47234 235.466C-3.06047 232.898 4.90278 227.207 12.836 224.873C15.972 223.95 17.8997 220.728 19.4541 220.61C20.4238 220.536 20.9869 220.101 20.3825 218.947C19.9708 218.16 19.8486 217.227 19.5842 216.363C18.0416 211.319 23.4589 213.606 22.7156 208.714C22.282 205.861 23.5414 203.248 23.8362 200.503C24.2751 196.416 26.3252 192.726 26.8593 188.712C27.2593 185.705 29.2063 183.41 29.8763 180.59C33.0164 176.376 34.3759 171.197 37.4596 166.932C38.6275 165.317 39.4992 163.423 40.1591 161.537C41.158 158.682 44.1573 157.356 45.2593 148.038C45.3356 147.391 45.5526 146.909 46.1109 146.641C48.2768 145.601 47.6188 144.147 47.9577 142.758C48.7926 139.34 47.7285 141.158 43.6717 137.977C42.0023 136.668 42.7212 135.148 44.3249 133.761C46.2442 132.101 46.919 129.709 47.9436 127.557C48.6987 125.971 48.4927 124.123 48.0564 122.458C46.9215 118.127 49.2435 117.937 48.1462 106.926C47.8162 103.616 47.107 100.253 45.0702 97.2608C43.1543 94.4456 41.762 91.2751 40.0247 88.3159C39.1688 86.8582 39.1124 84.865 38.8665 83.1173C36.4357 65.8327 31.8681 70.3622 26.5546 53.2886C25.5628 50.1011 25.4747 48.6712 23.1604 46.3757C18.8236 42.0736 19.9168 38.82 18.9689 35.8232C17.8697 32.3481 16.9774 30.927 18.3577 30.4858C19.9118 29.9891 19.068 32.5885 20.5514 33.0729C20.6468 32.1233 20.8483 31.2493 20.4093 30.3255C20.129 29.7359 19.6777 26.8567 21.4875 26.8765C23.0324 26.8935 21.0321 28.3871 23.725 32.5037C23.725 26.5337 23.4647 25.4864 24.6332 25.449C25.4573 25.4226 25.7581 26.0921 25.6852 26.8186C25.5098 28.5695 26.3466 30.149 26.4442 31.8597C27.1997 29.9753 26.021 26.6617 27.6866 26.4149C29.7751 26.1053 29.2093 32.2345 29.2093 37.0762C30.0838 37.1053 30.2571 36.6327 30.2123 36.1186C30.1662 35.5915 30.7843 33.2366 31.8363 33.4037C32.4024 33.4936 32.1018 34.0705 32.242 34.406C34.4145 39.6012 28.6369 41.5102 31.8381 46.5045C41.5429 61.6457 42.0306 60.9022 44.2615 67.0457C46.4687 73.1245 47.9807 72.1014 50.0106 77.4771C50.7812 79.518 52.6327 81.0205 52.9614 83.3095C53.0321 83.8024 53.631 83.9469 54.1738 83.9973C57.3549 84.2918 60.3882 85.0872 63.3797 87.0422C61.954 82.8758 61.8418 78.952 62.0189 74.9681C62.1343 72.3736 63.9661 70.6952 64.9972 68.5937C65.8601 66.8348 66.3125 70.2051 67.7447 68.1515C69.0883 66.2248 71.2932 66.0279 73.2912 65.459C78.6641 63.9288 89.6435 73.2312 86.9835 79.0517C85.5556 82.1761 87.1678 87.4442 83.1706 90.9325C81.9877 91.965 81.2292 93.3921 79.8587 94.2372C79.6285 94.3792 79.5804 94.8117 79.3838 95.2554C82.4455 95.7714 85.2985 93.89 87.2416 93.9202C87.5658 93.9253 87.9778 93.9278 88.203 93.7497C90.2839 92.1032 92.8878 92.518 95.2304 91.9178C96.9809 91.4694 98.5439 91.5636 100.232 92.3026C102.422 93.2609 103.921 91.6814 113.017 87.6825C114.384 87.0815 115.409 86.1515 116.096 84.9294C120.416 77.2373 131.714 66.9396 129.562 63.5121C127.952 60.9456 128.552 58.0947 128.475 55.3324C128.468 55.0586 128.418 54.4936 128.879 54.6401C130.335 55.1017 129.844 54.0074 130.097 53.3636C130.577 52.1404 131.032 50.9447 131.012 49.6031C131 48.8067 132.395 48.2022 132.426 49.6169C132.443 50.3558 132.431 51.095 132.431 51.9614C134.405 50.7702 132.693 48.3766 134.099 48.252C134.596 48.208 134.866 48.4123 134.945 48.9149C134.98 49.1411 135.117 49.5402 135.211 49.5412C137.733 49.5689 136.803 51.4375 136.946 52.717C137.001 53.2088 136.992 53.7076 137.013 54.2032C136.885 54.2377 136.758 54.2721 136.63 54.3068C136.685 54.3744 136.74 54.4422 136.795 54.5098C136.846 54.3878 136.898 54.2651 136.951 54.1422Z" fill="#C69C6E"/>
<path d="M201.653 180.048C196.791 176.029 195.425 171.305 194.376 168.964C193.996 168.115 193.123 168.745 193.322 169.231C193.764 170.308 193.584 171.517 194.173 172.58C196.296 176.403 194.05 181.082 197.765 184.71C199.566 186.469 200.219 188.667 198.856 191.202C197.411 193.891 200.695 197.482 199.787 205.235C199.402 208.519 198.599 211.912 199.531 215.309C199.796 216.271 199.623 217.23 198.697 218.178C197.012 219.902 198.62 222.077 198.548 226.572C198.469 231.603 200.381 232.545 200.608 239.586C200.739 243.674 201.273 247.963 201.049 248.867C199.967 253.227 200.738 257.506 201.604 261.773C202.006 263.75 210.159 278.537 202.081 277.46C197.551 276.856 197.544 273.172 193.5 273.249C188.82 273.337 187.767 266.919 190.561 264.902C191.896 263.938 192.838 262.02 191.464 260.113C191.064 259.558 190.959 259.16 191.805 258.826C193.278 258.244 192.34 255.06 191.977 254.319C190.351 250.993 190.064 247.238 188.46 243.923C185.752 238.327 188.15 230.268 186.156 227.506C183.197 223.406 184.847 221.597 179.753 210.175C178.999 208.486 178.606 204.735 176.435 204.734C175.368 204.733 175.666 205.634 175.394 206.143C174.026 208.702 172.771 211.27 170.659 213.425C167.862 216.28 168.482 221.178 167.199 222.228C167.013 222.381 166.811 222.605 166.768 222.826C165.676 228.472 162.424 228.764 161.565 236.616C161.561 236.654 160.429 244.61 160.429 244.61C158.343 248.326 158.005 252.723 155.788 256.381C153.733 259.772 156.773 259.045 156.456 260.874C155.072 268.853 160.652 268.336 157.961 276.413C157.241 278.572 154.151 279.082 151.844 279.11C149.95 279.132 148.971 277.445 148.324 275.839C146.867 272.225 148.16 271.593 146.293 265.335C145.995 264.337 145.818 263.323 146.045 262.417C146.902 258.987 146.688 255.429 147.447 251.991C147.64 251.121 147.516 250.175 147.494 249.266C147.433 246.875 147.956 244.561 148.347 242.224C148.596 240.732 148.358 232.655 150.371 228.999C151.815 226.375 151.731 221.382 151.209 221.149C149.602 220.432 150.239 219.453 150.788 218.445C151.124 217.828 151.002 217.148 151.001 216.494C150.986 197.457 153.43 195.556 151.629 192.183C151.488 191.92 151.439 191.465 151.574 191.223C153.046 188.597 152.501 185.298 154.462 182.821C154.831 182.355 155.155 181.415 154.928 181.003C153.978 179.278 155.008 177.827 155.353 176.29C156.1 172.956 154.359 173.555 155.079 170.471C157.275 161.062 155.098 155.292 156.473 150.245C156.676 149.5 156.272 148.813 156.065 148.101C152.845 136.989 149.168 139.981 142.058 130.477C138.167 125.274 137.819 122.818 141.28 116.791C144.216 111.678 162.696 94.8735 165.338 92.893C168.037 90.8706 172.258 92.0904 174.309 94.5586C172.622 94.967 171.557 93.338 170.065 94.2871C171.974 95.3159 174.681 95.2936 174.926 98.1464C174.243 98.5487 173.652 98.2398 173.001 98.0671C171.245 97.6009 167.103 98.0252 167.622 99.5288C167.741 99.872 168.149 99.957 168.466 99.8529C170.83 99.0749 173.291 99.9519 175.774 99.1744C179.647 97.9619 185.998 105.118 187.296 107.431C189.153 110.74 187.095 111.681 187.887 114.028C188.432 115.643 187.343 117.877 185.8 118.753C184.273 119.619 182.974 124.009 185.104 123.731C187.348 123.439 189.605 125.066 190.614 124.409C190.968 124.178 191.49 124.114 191.804 124.37C194.281 126.389 195.942 124.132 199.295 128.199C203.978 133.878 202.322 135.036 206.237 141.984C208.339 145.714 209.73 149.729 210.992 153.771C212.086 157.276 209.458 160.633 210.273 161.973C211.149 163.413 209.75 164.668 210.053 166.038C210.08 166.16 209.947 166.408 209.83 166.456C207.764 167.3 208.031 169.391 207.411 170.98C205.974 174.667 204.488 172.275 204.038 175.048C203.749 176.836 202.858 178.416 201.653 180.048ZM164.42 126.228C171.001 124.818 168.789 123.806 169.153 120.916C169.244 120.191 169.107 119.213 167.974 118.713C163.73 116.842 166.667 113.624 165.893 111.516C164.914 108.847 166.136 106.795 167.66 104.786C168.154 104.136 168.49 103.374 169.176 102.863C169.759 102.429 169.45 101.526 168.431 101.859C166.698 102.425 166.091 103.606 163.318 103.615C159.024 103.629 153.778 115.321 151.544 119.565C149.622 123.216 152.895 122.006 160.261 125.049C161.668 125.63 163.47 124.682 164.42 126.228ZM200.763 153.247C199.814 151.175 198.403 149.602 196.828 147.784C195.993 152.052 197.155 153.618 200.763 153.247ZM195.305 146.637C194.471 146.604 194.431 147.723 195.302 147.679C196.259 147.63 196.094 146.667 195.305 146.637Z" fill="#C69C6E"/>
<path d="M701.227 78.1371C700.056 77.2371 699.091 76.0746 698.052 75.0519C698.495 74.0756 699.071 75.5705 699.503 74.7857C699.232 74.123 698.602 73.8181 698.043 73.381C697.673 73.0914 698.435 72.3621 697.768 71.7498C696.7 70.7699 695.973 68.1371 694.618 68.1075C692.112 68.0525 690.404 65.4122 688.317 65.5704C687.447 65.6363 686.776 65.24 686.256 64.6591C686.53 63.5472 688.925 64.5052 687.937 62.1086C687.569 61.2144 686.862 60.4158 687.323 59.3474C688.059 59.27 688.119 60.4065 689.194 60.2036C687.654 57.4713 688.055 54.9059 689.972 52.2126C690.262 53.7691 690.811 55.102 690.985 56.4012C691.71 61.8475 697.332 61.9326 703.954 70.0059C704.451 70.6113 705.376 70.6268 705.659 71.6339C705.894 72.4727 707.088 72.6779 707.788 73.2207C714.928 78.7531 711.945 79.8151 716.189 81.3174C715.811 80.0364 714.199 79.949 713.951 78.519C717.731 79.8242 716.625 81.7084 719.081 79.2918C716.837 75.9421 713.505 73.9002 710.63 68.2925C709.29 65.6778 707.543 63.4534 704.503 62.6266C704.305 62.5726 704.055 62.5928 704.023 62.2275C704.851 61.9305 705.595 62.9889 706.59 62.2592C708.022 61.2097 712.236 71.1134 719.529 77.406C717.874 70.6557 717.718 70.971 718.125 70.0651C718.564 69.0906 717.16 68.4777 716.718 67.6179L716.649 67.6817C717.632 66.7555 717.2 66.3014 716.203 63.6528L716.125 63.7143C717.005 63.6711 716.993 64.5197 717.394 64.9568C717.995 65.6112 718.449 66.4138 719.388 66.7978C718.197 64.8169 716.857 62.921 716.208 60.6852L716.141 60.7488C718.215 60.3165 718.637 64.1961 721.299 65.3346C719.868 62.6629 717.943 60.75 716.395 58.5729C716.596 57.9678 717.425 58.0739 717.592 57.4554C716.375 54.7509 712.724 55.4234 714.18 53.6383C714.238 53.5667 713.87 53.1149 713.661 52.8734C713.097 52.2223 712.285 51.7739 712.657 50.6099C712.851 50.0024 711.542 50.2576 711.572 49.3612C712.089 48.9621 712.901 49.4388 713.504 49.0346C712.707 47.1115 712.128 46.4418 710.163 45.2303C710.544 44.6269 711.708 44.5304 711.237 43.0298C716.125 47.9926 713.095 45.8839 723.814 58.4496C731.594 67.5707 733.764 70.9959 740.329 73.5581C744.821 75.3113 748.728 76.6025 751.144 83.3742C751.46 84.2598 752.228 85.151 752.105 86.0185C751.535 90.0388 753.234 93.913 751.86 97.587C756.017 99.0126 755.565 97.2789 761.041 95.231C765.88 93.4215 767.748 90.6235 769.942 88.6589C774.023 85.0054 773.102 84.1547 779.846 74.3815C781.574 71.8769 785.783 63.8767 786.565 62.1733C787.003 61.2197 788.302 59.8177 786.199 58.9907C785.938 58.888 785.878 58.5072 786.095 58.3966C787.627 57.6159 786.776 57.055 784.578 54.0757C783.505 52.622 785.939 53.4204 785.321 52.2906C784.967 51.6447 784.527 51.0453 783.956 50.1781C786.834 50.4755 786.774 53.4094 788.649 54.7048C788.862 53.6424 788.992 52.6478 789.271 51.6955C789.556 50.7181 788.519 49.8368 789.167 48.7925C792.751 51.6126 788.452 60.5455 794.567 58.7036C796.264 58.1925 797.171 57.699 797.694 59.2596C797.842 59.6995 797.376 59.9755 796.988 60.065C791.894 61.2444 789.207 64.7625 788.093 69.5084C786.84 74.8518 783.982 81.1983 781.113 87.9635C780.6 89.1732 779.904 90.2393 778.88 91.1493C777.871 92.045 768.362 102.387 764.121 105.415C762.559 106.53 762.006 108.271 761.958 110.341C761.788 117.688 764.802 119.357 763.747 122.782C763.333 124.125 763.391 125.517 762.916 126.854C762.29 128.614 761.932 130.486 762.786 132.361C762.967 132.757 762.945 133.612 762.699 133.77C761.422 134.591 761.88 135.803 761.857 136.878C761.778 140.407 760.542 140.093 760.838 143.116C761.368 148.54 759.157 154.744 761.168 156.127C761.76 156.534 762.079 157.222 762.147 157.795C762.521 160.976 764.695 163.382 765.723 166.282C766.964 169.784 768.542 173.166 769.849 176.646C770.712 178.945 772.24 180.608 774.307 181.805C778.191 184.054 782.63 189.384 780.018 192.895C777.714 195.991 776.074 192.655 775.852 195.304C775.585 198.478 771.092 200.755 767.93 199.38C766.654 198.824 765.356 198.318 763.965 198.014C759.916 197.128 760.088 192.792 755.092 187.726C752.522 185.119 752.753 180.73 749.171 180.829C746.228 180.91 746.05 176.423 744.64 176.525C743.617 176.599 743.242 177.501 743.082 178.442C743.042 178.68 742.818 178.912 742.839 179.131C743.102 181.776 741.795 184.172 741.664 186.804C741.556 188.975 740.382 191.107 739.6 193.227C737.66 198.49 735.63 200.931 730.436 199.832C724.408 198.556 721.299 193.07 713.823 176.795C711.033 170.718 708.48 167.364 703.626 168.122C695.242 169.432 691.597 169.125 689.294 170.008C689.26 168.809 689.92 168.127 690.535 167.616C693.939 164.783 696.017 161.612 700.609 159.426C703.362 158.116 705.771 156.276 708.374 154.741C709.742 153.935 709.521 154.36 710.799 155.398C713.442 157.545 712.558 158.94 717.415 165.876C717.966 166.662 718.729 167.128 719.755 166.989L719.685 166.914C719.872 168.708 719.571 168.104 723.8 172.238C724.091 172.522 724.371 172.868 724.834 172.864C725.233 172.86 725.684 173.013 725.987 172.603C726.256 172.241 726.289 171.811 726.111 171.431C723.827 166.552 726.307 160.546 726.242 159.979C725.802 156.149 728.758 152.818 727.835 150.518C727.649 150.057 727.522 149.375 728.601 149.283C729.104 149.24 728.341 148.298 728.755 147.556C729.23 146.705 729.314 145.692 730.047 144.799C731.76 142.711 729.11 141.497 730.877 139.528C733.476 136.63 729.835 134.63 730.321 131.946C730.75 129.577 730.191 127.157 730.788 124.808C731.093 123.611 730.337 122.587 730.211 121.455C730.126 120.688 729.486 120.659 726.312 120.768C725.716 120.788 725.082 121.576 724.539 120.743C722.523 117.642 725.18 117.447 724.37 115.512C723.632 113.753 720.684 115.011 720.248 111.519C720.099 110.33 720.145 108.833 719.444 108.071C718.656 107.216 717.094 107.85 715.871 107.86C710.11 107.908 710.971 110.886 709.162 109.018C708.478 108.312 708.389 108.398 707.177 109.293C706.517 109.04 706.828 108.317 706.548 107.867C705.987 106.966 705.671 105.893 704.214 106.235C703.445 106.416 702.673 104.829 704.145 104.878C705.189 104.913 705.508 103.526 706.739 103.703C707.317 103.786 707.415 102.241 706.672 102.004C704.731 101.386 705.08 100.005 705.124 98.6069C706.153 98.5146 707.964 100.862 708.701 98.8946C709.079 97.8844 710.303 97.4713 710.778 96.2509C708.307 95.4013 705.424 94.5109 702.858 93.2482C699.429 91.5607 701.288 95.6905 698.097 93.8197L698.172 93.8811C699.847 91.3572 702.427 92.1088 705.539 90.1323C704.202 89.7071 702.865 89.2817 701.52 88.8539C702.073 87.8283 703.138 88.1034 703.981 87.828C702.639 86.3374 700.589 86.577 698.583 85.562C701.169 84.9684 703.006 87.1651 705.258 86.3034C704.173 84.6527 701.893 84.5221 700.694 82.7266C703.607 82.8197 707.115 87.0722 709.809 86.384C709.821 86.6079 709.803 86.8396 709.858 87.0526C709.895 87.1945 710.114 87.1434 710.089 86.9772C710.032 86.5877 704.904 80.9642 701.227 78.1371ZM721.226 69.6179C721.189 69.3434 721.24 69.4179 721.046 69.3483C721.349 69.6037 721.212 69.4595 721.747 70.1042C721.811 70.3721 721.951 70.5528 722.258 70.5426C722.362 70.8135 722.518 71.0197 722.85 71.0014C722.724 71.6771 722.242 72.3995 723.27 73.095C723.449 72.2429 723.383 71.6095 722.783 71.0671C722.668 70.8109 722.513 70.6049 722.193 70.6051C722.234 70.2175 722.098 70.0325 721.683 70.1688C721.72 69.8308 721.561 69.6528 721.226 69.6179ZM704.602 92.2982C707.071 93.0245 709.54 93.7508 712.008 94.4769C709.922 92.406 707.529 91.4114 704.602 92.2982ZM717.169 99.4508C715.096 98.9369 714.546 99.1544 713.309 101.05C714.661 100.031 715.921 99.8292 717.169 99.4508ZM709.484 102.481C710.287 103.369 710.285 102.081 709.956 102.046C709.672 102.015 709.559 102.244 709.484 102.481ZM717.374 102.822C717.16 102.996 716.383 103.5 716.948 103.669C717.326 103.783 717.53 103.534 717.614 103.217C717.638 103.126 717.479 102.987 717.374 102.822Z" fill="#C69C6E"/>
<path d="M398.207 104.853C398.447 104.143 397.517 103.974 397.812 103.44C398.113 102.894 398.54 103.05 399.084 103.197C400.348 103.54 401.68 103.453 402.981 103.807C405.601 104.521 404.85 101.682 405.164 101.242C406.608 99.2227 402.613 99.9385 403.402 98.4477C403.827 97.6442 404.565 98.4302 405.093 98.6643C405.913 99.0281 406.835 99.2852 407.411 100.042C408.225 101.111 409.059 100.916 409.932 100.162C409.618 99.2556 407.991 98.8733 408.909 97.3808C410.9 98.2988 412.668 99.7799 414.918 100.01C417.337 100.258 419.386 101.284 421.471 102.443C423.098 103.348 425.056 103.588 426.677 104.652C430.27 107.011 427.598 109.137 429.02 114.648C429.474 116.411 429.226 118.297 427.524 119.569C426.819 120.096 426.495 120.876 426.22 121.629C425.814 122.738 426.286 123.206 427.652 123.298C428.797 123.376 429.862 123.862 431.062 123.779C439.488 123.194 436.213 122.89 441.939 123.49C445.727 123.887 449.554 124.143 453.351 123.279C454.517 123.014 455.051 122.398 455.18 121.29C455.528 118.289 456.673 115.401 456.565 112.342C456.515 110.921 457.758 109.638 457.234 108.342C456.763 107.178 455.59 106.315 454.879 105.221C453.107 102.493 453.311 101.843 456.188 100.309C458.999 98.8104 460.193 99.127 461.98 101.773C463.215 103.6 464.097 105.508 463.5 107.768C463.023 109.578 465.65 108.091 464.536 112.648C463.083 118.593 465.499 123.208 458.948 127.867C454.339 131.145 449.89 131.289 444.073 131.714C441.877 131.874 440.063 133.116 438.355 134.386C437.903 134.722 437.618 135.443 437.614 136.153C437.589 140.886 435.3 141.954 436.614 146.476C437.225 148.58 437.214 153.609 438.319 155.344C438.607 155.797 438.641 156.281 438.612 156.774C438.402 160.298 439.459 163.76 439.121 167.291C438.944 169.145 440.093 170.744 440.217 172.556C440.239 172.877 440.664 173.279 441.003 173.452C444.102 175.033 441.118 177.013 444.093 183.404C445.632 186.709 445.13 188.319 445.926 189.53C448.338 193.205 442.961 191.471 443.932 197.092C445.579 206.613 443.825 210.664 445.04 214.545C445.326 215.459 444.624 216.438 444.607 217.456C444.522 222.412 443.386 227.11 441.15 231.578C439.546 234.783 438.309 238.162 436.307 241.18C435.841 241.882 435.536 243.043 436.201 243.69C438.918 246.336 437.401 251.585 438.765 255.484C440.185 259.542 433.795 262.076 431.089 257.447C427.742 251.72 424.404 250.679 425.615 247.202C426.361 245.056 426.773 242.724 429.073 241.532C429.856 241.127 429.98 240.343 430.071 239.683C430.661 235.398 431.574 231.163 431.697 226.803C431.886 220.14 436.536 219.281 434.626 214.819C433.163 211.403 432.824 205.864 427.994 198.397C426.791 196.536 425.456 194.777 424.653 192.692C424.596 192.546 424.47 192.403 424.338 192.312C423.62 191.813 423.239 190.597 422.159 190.909C421.119 191.209 421.161 192.31 421.083 193.196C420.766 196.807 418.086 196.171 416.425 198.914C411.778 206.589 412.779 209.22 411.074 213.13C407.508 221.303 410.339 226.919 407.688 233.245C407.024 234.828 406.865 236.552 406.452 238.19C404.984 244.005 409.358 247.441 405.307 249.682C404.345 250.214 403.869 251.028 403.465 252.127C402.921 253.607 401.77 254.87 400.859 256.213C400.667 256.496 392.558 257.035 393.585 253.795C395.168 248.801 397.836 246.658 396.297 242.792C395.998 242.039 396.319 241.858 397.074 241.78C399.698 241.51 399.876 241.23 399.28 238.774C398.852 237.015 399.125 235.215 399.13 233.457C399.139 230.319 398.702 227.23 398.539 224.117C398.438 222.174 396.606 222.4 398.147 219.013C400.815 213.15 401.504 206.966 401.594 200.627C401.647 196.923 402.168 193.231 402.065 189.515C402.051 189.004 402.272 188.574 402.435 188.105C403.119 186.139 402.934 184.153 402.85 182.084C402.493 173.32 407.188 170.944 405.247 167.809C403.579 165.115 403.443 161.933 402.591 158.978C402.342 158.117 402.659 157.224 403.107 156.278C394.755 154.572 395.817 148.881 388.26 145.219C385.655 143.957 384.418 142.377 384.571 141.296C384.767 139.912 383.807 131.738 393.187 131.738C382.629 124.141 378.871 124.24 380.467 121.627C380.654 121.321 380.526 120.815 380.513 120.401C380.352 115.285 382.402 109.52 381.999 104.732C381.501 98.8234 385.788 99.9355 387.82 95.1356C388.654 93.1655 390.07 92.6988 391.983 92.9376C393.53 93.1306 395.009 93.3796 396.362 94.3308C398.214 95.6329 395.806 95.4994 395.686 98.3035C395.547 101.567 392.221 98.8995 391.538 102.419C391.438 102.935 391.188 103.34 390.888 103.738C390.403 104.38 390.905 104.745 391.37 104.764C393.667 104.858 395.972 105.062 398.207 104.853ZM396.37 107.674C394.468 107.067 392.668 107.579 391.014 106.844C389.682 106.252 389.084 106.603 389.1 107.928C389.135 110.725 387.846 111.416 388.055 117.196C388.151 119.851 390.1 117.994 391.681 119.81C392.69 120.968 394.015 121.262 395.37 121.598C395.772 121.698 396.28 121.7 396.549 121.949C399.299 124.492 403.397 120.656 406.603 121.955C408.505 122.726 410.471 123.424 412.091 124.761C414.254 126.547 415.189 125.628 415.056 124.417C414.913 123.121 414.566 121.845 414.257 120.572C413.823 118.781 410.552 119.603 411.135 116.036C411.503 113.788 410.897 111.615 411.047 109.397C411.171 107.573 410.833 107.428 409.034 108.203C403.815 110.449 402.946 114.781 400.583 115.358C400.564 113.956 401.729 113.183 401.776 112.017C401.234 111.725 400.651 111.726 400.091 111.891C391.187 114.524 390.871 115.241 390.654 114.303C390.299 112.767 394.786 113.56 396.675 110.264C394.993 110.565 393.677 111.17 392.088 110.617C393.514 109.561 395.436 109.555 396.37 107.674Z" fill="#C69C6E"/>
<path d="M498.069 202.1C496.745 204.078 494.946 207.483 491.314 208.36C489.027 208.912 486.874 208.091 485.721 206.052C483.798 202.652 482.501 199.157 482.674 195.089C482.872 190.409 482.743 185.728 484.137 181.179C484.385 180.37 484.349 179.534 483.776 178.822C481.913 176.509 487.624 170.963 485.371 162.691C485.01 161.363 486.333 160.342 484.695 158.808C485.169 161.834 483.45 163.923 483.138 166.413C482.914 168.208 476.511 172.873 475.74 168.699C475.545 167.643 476.205 167.491 477.038 167.385C477.511 167.325 477.955 167.033 478.488 166.814C478.314 165.851 478.065 164.975 478.913 163.984C484.729 157.187 479.291 152.433 482.283 149.107C483.011 148.298 482.72 147.213 482.739 146.235C482.782 143.947 482.872 143.832 485.022 143.628C486.714 143.467 486.846 143.458 486.72 141.789C486.549 139.527 487.159 137.359 487.278 135.134C487.456 131.807 486.8 128.539 486.749 125.233C486.704 122.401 476.2 103.687 476.078 103.466C475.513 102.444 474.621 101.544 475.104 100.122C475.263 99.6541 474.717 98.9231 474.437 98.3384C472.357 93.9975 469.948 89.8127 468.306 85.2628C467.837 83.9622 466.975 82.8054 466.349 81.5546C465.708 80.2708 461.661 79.6496 462.862 76.3938C463.191 75.503 462.968 74.9249 462.623 74.3772C462.083 73.5195 462.22 72.8169 463.091 72.6519C466.3 72.0436 462.92 67.5283 466.465 66.7976C466.951 66.6974 466.521 65.45 467.427 65.2695C467.925 65.7224 467.421 67.3329 468.28 66.8977C469.743 66.1563 469.763 67.3468 469.575 68.038C469.279 69.1223 469.377 70.0918 469.664 71.117C469.75 71.4247 469.798 71.8386 469.661 72.0967C467.992 75.2215 473.192 80.6034 478.516 91.45C480.427 95.3453 482.753 99.0777 485.995 102.476C488.218 96.6337 484.317 100.003 483.787 97.2375C486.333 96.379 489.314 96.146 490.714 93.2019C488.716 92.1159 484.142 92.0653 483.379 91.7366C483.181 91.6511 482.643 91.23 483.041 91.0248C484.58 90.2317 483.87 89.3252 483.175 88.4758C484.136 87.5131 484.927 88.2523 485.75 88.4141C486.214 88.5051 486.932 88.4713 486.611 87.7112C486.088 86.4751 486.414 86.7579 487.515 86.7542C491.786 86.74 495.456 88.6412 499.333 89.923C506.441 92.2728 510.107 98.9935 510.109 99.2068C510.158 106.954 511.421 104.994 508.071 112.545C507.728 113.317 507.394 114.13 508.264 114.752C509.126 115.369 510.193 116.401 511.157 115.652C513.674 113.692 515.517 115.405 520.637 111.291C524.272 108.371 526.777 104.449 529.956 101.141C534.593 96.3133 537.185 88.172 542.719 83.3707C545.032 81.3637 541.489 78.8342 543.734 76.6192C543.901 77.7257 543.933 78.7983 545.007 79.6874C545.443 78.5572 545.825 77.5651 546.202 76.5884C547.443 76.8571 546.307 78.0782 547.395 78.4923C548.463 78.8988 549.24 79.9315 549.27 80.995C549.281 81.4011 549.059 81.9934 549.389 82.1629C551.417 83.2043 549.789 84.6213 549.826 85.8528C549.833 86.0692 549.695 86.3445 549.535 86.5034C545.71 90.284 527.387 116.131 525.45 118.767C521.886 123.616 520.29 122.99 518.808 130.569C518.713 131.052 518.814 131.597 518.631 132.034C517.321 135.161 517.143 138.567 516.172 141.75C515.189 144.976 517.137 151.699 517.998 154.542C518.88 157.452 517.515 158.835 519.262 164.508C520.151 167.398 520.84 170.415 519.937 173.478C519.629 174.524 520.002 175.617 519.586 176.663C519.397 177.137 519.69 177.734 520.228 177.843C522.305 178.261 523.189 179.881 523.928 181.522C526.951 188.227 529.694 189.117 529.338 194.471C529.141 197.444 526.921 198.513 524.986 196.234C524.505 195.668 523.868 195.217 523.453 194.612C522.922 193.837 522.485 193.08 521.341 193.275C520.619 193.398 520.38 192.774 520.023 192.33C519.381 191.528 518.824 191.925 518.489 192.582C517.392 194.739 518.158 196.428 515.127 200.11C513.513 202.07 511.84 204.029 509.765 205.545C507.66 207.084 502.68 207.43 500.613 204.534C499.989 203.659 499.312 202.824 498.069 202.1Z" fill="#C69C6E"/>
<path d="M716.241 67.0877C714.555 66.2047 715.966 65.5649 716.226 66.4887C716.283 66.691 716.198 66.9327 716.177 67.1567L716.241 67.0877Z" fill="#C69C6E"/>
<path d="M719.755 166.989C719.831 166.623 719.997 166.943 719.685 166.914L719.755 166.989Z" fill="#C69C6E"/>
<path d="M1047.47 7.98438C1047.65 7.77096 1047.82 7.77374 1048 7.98309C1048 7.98309 1048.04 7.91845 1048.04 7.91823C1047.84 7.91823 1047.63 7.91823 1047.43 7.91823L1047.47 7.98438Z" fill="#C69C6E"/>
<path d="M699.992 82.3335L699.94 82.2119L700.067 82.2244L699.992 82.3335Z" fill="#C69C6E"/>
<path d="M698.096 93.8198C698.247 93.9709 698.194 94.2608 698.102 94.2285C697.6 94.0501 698.077 93.9912 698.171 93.8813L698.096 93.8198Z" fill="#C69C6E"/>
<path d="M716.718 67.6181C716.452 67.5366 716.28 67.3709 716.241 67.0879L716.177 67.157C716.696 67.012 716.801 67.2329 716.649 67.6816L716.718 67.6181Z" fill="#C69C6E"/>
<path d="M716.204 63.654C716.11 63.5525 716.016 63.451 715.923 63.3495C715.966 63.3159 716.024 63.2444 716.05 63.2544C716.332 63.3616 716.228 63.5404 716.125 63.7153C716.125 63.7155 716.204 63.654 716.204 63.654Z" fill="#C69C6E"/>
<path d="M716.209 60.6858C716.06 60.4723 716.083 60.5535 716.114 60.4106C716.123 60.5237 716.132 60.6365 716.141 60.7495C716.141 60.7495 716.209 60.6858 716.209 60.6858Z" fill="#C69C6E"/>
</svg>
