<svg width="292" height="244" viewBox="0 0 292 244" fill="none" xmlns="http://www.w3.org/2000/svg">
<rect x="0.95122" width="290.244" height="243.024" fill="#05213A"/>
<path d="M136.915 38.469C107.015 40.869 81.2146 51.669 62.6146 69.569C53.4147 78.469 53.9147 81.169 67.6147 94.469C76.3146 102.969 79.9147 104.769 84.0146 102.969C86.8146 101.569 103.415 89.169 105.215 86.969C106.015 85.969 106.415 82.069 106.415 76.069C106.415 66.769 106.415 66.669 109.215 65.669C127.915 58.369 152.715 57.969 172.415 64.469L177.915 66.269L178.115 73.269C178.615 86.369 178.315 85.869 190.615 95.269C205.315 106.569 204.815 106.669 218.115 93.469C231.515 80.169 231.815 79.069 223.915 70.869C214.015 60.469 197.015 50.169 180.315 44.469C168.615 40.369 147.915 37.569 136.915 38.469Z" fill="#C69C6E"/>
<path d="M120.515 86.969C118.615 94.369 116.015 97.169 98.2147 111.069C78.2147 126.569 76.3147 128.469 73.3147 135.269C71.5147 139.369 71.0147 142.669 70.6147 153.469C70.0147 171.269 70.8147 176.969 74.5147 181.269C79.4147 186.769 81.3147 186.969 145.915 186.569C210.415 186.269 208.215 186.469 212.415 179.469C214.215 176.569 214.415 174.369 214.415 158.669C214.415 139.569 213.615 135.369 208.815 129.069C207.515 127.269 198.615 119.769 189.115 112.369C179.615 105.069 170.915 97.969 169.715 96.669C167.115 93.869 164.415 87.769 164.415 84.769C164.415 82.869 163.815 82.769 143.015 82.769H121.615L120.515 86.969ZM155.715 110.069C176.815 119.669 181.615 147.269 165.015 162.569C157.315 169.669 153.215 171.269 142.915 171.269C135.115 171.269 133.215 170.869 128.915 168.569C117.915 162.769 110.415 151.269 110.415 140.069C110.415 116.469 134.615 100.369 155.715 110.069Z" fill="#C69C6E"/>
<path d="M131.615 117.369C122.815 121.769 117.915 129.969 118.015 140.269C118.115 149.469 123.215 157.369 131.915 162.069C137.915 165.269 148.515 165.069 154.515 161.569C163.415 156.369 167.415 149.469 167.415 139.769C167.415 131.969 165.215 126.769 159.815 121.569C152.115 114.169 141.215 112.569 131.615 117.369Z" fill="#C69C6E"/>
</svg>
