<svg width="225" height="225" viewBox="0 0 225 225" fill="none" xmlns="http://www.w3.org/2000/svg">
<rect width="225" height="225" fill="#05213A"/>
<path d="M103.274 36.0953C94.4557 37.2574 80.032 42.3843 73.1962 46.7592C56.9953 57.0814 46.0579 71.0948 40.5209 88.3211C37.5131 97.7546 36.7612 102.608 36.7612 112.247C36.7612 124.073 39.4955 135.83 44.6224 146.016L46.6731 149.98L44.1439 159.345C42.7767 164.472 40.3842 173.154 38.8803 178.759C37.3081 184.296 36.2143 188.945 36.351 189.15C36.5561 189.286 39.4272 188.671 42.7767 187.714C46.1946 186.826 55.0129 184.501 62.4639 182.587L75.9989 179.169L82.6297 181.835C94.4557 186.689 99.9927 187.783 112.844 187.783C125.354 187.783 130.481 186.826 141.828 182.382C158.576 175.751 175.665 159.209 182.433 142.939C187.081 131.797 188.175 126.533 188.585 114.571C188.927 102.471 188.175 97.1394 184.894 87.159C180.245 73.3506 171.496 61.0461 159.875 52.0228C150.168 44.5718 142.648 40.9488 130.275 37.6676C124.875 36.3004 109.084 35.3434 103.274 36.0953ZM130.139 50.9975C147.638 56.1927 161.173 67.4035 169.24 83.536C174.845 94.7468 177.033 106.299 175.734 118.604C173.683 138.291 161.379 157.158 144.289 166.797C133.146 173.086 122.688 175.546 109.289 175C102.18 174.726 99.856 174.316 94.3873 172.47C90.8327 171.24 85.7058 169.121 83.0398 167.685L78.118 165.156L66.7022 168.095C60.3448 169.736 55.0812 170.898 54.9445 170.761C54.8078 170.625 55.9699 165.498 57.6105 159.345L60.5499 148.203L56.5851 140.273C51.1164 129.405 49.7493 123.867 49.7493 112.247C49.6809 105.753 50.0227 101.651 50.843 98.3015C57.0636 73.3506 76.3407 54.5521 100.881 49.6303C108.537 48.1264 122.619 48.81 130.139 50.9975Z" fill="#C69C6E"/>
<path d="M80.7156 79.1611C79.2117 80.5283 77.161 83.331 76.1356 85.4501C74.5634 88.6629 74.2216 90.2352 74.2899 94.4734C74.2899 101.173 75.7938 105.342 80.7156 112.862C88.8503 125.303 100.745 136.582 111.135 141.846C127.883 150.254 138.615 150.596 147.228 143.076C149.689 140.82 150.715 138.701 151.467 133.711C151.808 131.387 151.672 130.635 150.51 129.61C149.074 128.174 133.898 121.133 132.395 121.133C131.916 121.133 129.592 123.457 127.268 126.26C124.943 129.063 122.756 131.387 122.346 131.387C120.158 131.387 108.743 124.551 104.778 120.86C100.334 116.69 93.7037 108.008 93.7037 106.368C93.7037 105.889 95.0709 103.907 96.7798 101.924C98.899 99.4635 99.856 97.6862 99.856 96.3191C99.856 94.405 94.5924 81.2802 92.61 78.2041C91.7897 76.9053 91.0377 76.7002 87.5515 76.7002C83.7918 76.7002 83.2449 76.9053 80.7156 79.1611Z" fill="#C69C6E"/>
</svg>
